<svg id="svg" version="1.1" xmlns="http://www.w3.org/2000/svg" xmlns:xlink="http://www.w3.org/1999/xlink" width="400" height="224.28785607196403" viewBox="0, 0, 400,224.28785607196403"><g id="svgg"><path id="path0" d="M140.606 105.581 L 139.540 106.381 139.506 107.986 C 139.488 108.868,139.431 109.313,139.379 108.974 C 139.328 108.634,139.192 108.357,139.077 108.357 C 138.961 108.357,138.867 107.999,138.867 107.562 C 138.867 106.180,137.865 105.216,136.430 105.216 C 134.677 105.216,133.173 107.274,134.380 108.020 C 134.655 108.190,134.683 112.170,134.409 112.170 C 134.189 112.170,133.885 113.850,133.863 115.199 C 133.846 116.150,133.522 116.657,132.931 116.657 C 132.733 116.657,132.513 116.809,132.442 116.994 C 132.363 117.200,132.023 117.330,131.565 117.330 C 131.154 117.330,130.763 117.418,130.697 117.525 C 130.631 117.632,130.170 117.785,129.674 117.864 C 129.178 117.944,128.772 118.108,128.772 118.230 C 128.772 118.352,128.516 118.452,128.204 118.452 C 127.891 118.452,127.578 118.603,127.507 118.789 C 127.430 118.989,127.092 119.125,126.670 119.125 C 126.227 119.125,125.737 119.334,125.358 119.686 C 125.025 119.994,124.493 120.247,124.175 120.247 C 123.858 120.247,123.540 120.398,123.469 120.583 C 123.398 120.768,123.199 120.920,123.027 120.920 C 122.855 120.920,122.715 121.019,122.715 121.140 C 122.715 121.261,122.462 121.423,122.154 121.501 C 121.845 121.578,121.593 121.731,121.593 121.841 C 121.593 121.951,121.441 122.042,121.256 122.042 C 121.071 122.042,120.920 122.193,120.920 122.378 C 120.920 122.568,120.719 122.715,120.460 122.715 C 120.208 122.715,119.767 122.967,119.481 123.275 C 119.195 123.584,118.847 123.836,118.707 123.836 C 118.567 123.836,118.452 123.934,118.452 124.053 C 118.452 124.346,117.179 125.631,116.889 125.631 C 116.762 125.631,116.657 125.737,116.657 125.866 C 116.657 125.995,116.405 126.335,116.096 126.621 C 114.994 127.643,115.434 131.688,116.648 131.688 C 117.197 131.688,118.442 130.866,118.447 130.501 C 118.450 130.279,118.704 129.826,119.013 129.493 C 119.321 129.161,119.574 128.758,119.574 128.599 C 119.574 128.439,119.725 128.251,119.910 128.180 C 120.095 128.109,120.247 127.955,120.247 127.838 C 120.247 127.592,121.607 126.304,121.867 126.304 C 121.963 126.304,122.042 126.153,122.042 125.967 C 122.042 125.758,122.253 125.631,122.602 125.631 C 122.951 125.631,123.163 125.504,123.163 125.294 C 123.163 125.109,123.315 124.958,123.500 124.958 C 123.685 124.958,123.836 124.857,123.836 124.734 C 123.836 124.610,124.089 124.509,124.397 124.509 C 124.746 124.509,124.958 124.382,124.958 124.173 C 124.958 123.962,125.171 123.836,125.526 123.836 C 125.838 123.836,126.152 123.685,126.223 123.500 C 126.294 123.315,126.588 123.163,126.876 123.163 C 127.164 123.163,127.462 123.062,127.538 122.939 C 127.614 122.815,127.865 122.715,128.096 122.715 C 128.327 122.715,128.667 122.563,128.852 122.378 C 129.041 122.189,129.589 122.042,130.102 122.042 C 130.764 122.042,131.015 121.949,131.015 121.705 C 131.015 121.471,131.250 121.368,131.787 121.368 C 132.212 121.368,132.621 121.268,132.698 121.144 C 132.895 120.825,134.320 120.866,134.525 121.197 C 134.745 121.552,134.631 122.985,134.362 123.264 C 134.096 123.539,134.096 124.581,134.361 124.857 C 134.474 124.974,134.600 125.322,134.642 125.631 C 134.736 126.338,137.030 126.603,137.654 125.979 C 137.845 125.787,138.124 125.631,138.272 125.631 C 138.671 125.631,139.316 124.797,139.316 124.282 C 139.316 124.035,139.466 123.836,139.652 123.836 C 139.837 123.836,139.989 123.709,139.989 123.553 C 139.989 123.397,140.393 123.094,140.886 122.880 C 141.380 122.666,141.784 122.390,141.784 122.267 C 141.784 122.143,142.291 122.042,142.912 122.042 C 143.709 122.042,144.079 121.942,144.170 121.705 C 144.260 121.470,144.627 121.368,145.384 121.368 C 145.980 121.368,146.531 121.268,146.607 121.144 C 146.692 121.007,148.474 120.920,151.206 120.920 C 153.937 120.920,155.720 121.007,155.805 121.144 C 155.881 121.268,156.835 121.368,157.925 121.368 C 159.480 121.368,159.935 121.441,160.036 121.705 C 160.139 121.973,160.620 122.042,162.392 122.042 C 164.164 122.042,164.645 122.110,164.747 122.378 C 164.846 122.636,165.270 122.715,166.553 122.715 C 167.475 122.715,168.292 122.815,168.368 122.939 C 168.444 123.062,169.258 123.163,170.176 123.163 C 171.510 123.163,171.845 123.231,171.845 123.500 C 171.845 123.721,172.067 123.836,172.494 123.836 C 172.864 123.836,173.199 123.981,173.272 124.173 C 173.673 125.217,176.222 123.979,175.982 122.857 C 175.806 122.036,175.495 121.593,175.095 121.593 C 174.938 121.593,174.752 121.441,174.681 121.256 C 174.609 121.071,174.296 120.920,173.983 120.920 C 173.671 120.920,173.416 120.823,173.416 120.706 C 173.416 120.588,173.061 120.425,172.628 120.344 C 172.195 120.262,171.785 120.106,171.717 119.997 C 171.650 119.888,171.158 119.798,170.625 119.798 C 170.093 119.798,169.294 119.647,168.851 119.462 C 168.282 119.224,167.206 119.123,165.178 119.118 C 163.013 119.113,162.204 119.030,161.875 118.781 C 161.610 118.580,160.937 118.452,160.150 118.452 C 159.440 118.452,158.806 118.364,158.739 118.257 C 158.673 118.150,157.897 117.991,157.014 117.904 C 155.478 117.753,154.818 117.531,154.187 116.954 C 153.845 116.641,153.801 115.984,154.122 115.984 C 154.260 115.984,154.347 114.860,154.347 113.061 C 154.347 110.669,154.408 110.114,154.683 110.008 C 154.868 109.937,155.020 109.646,155.020 109.361 C 155.020 109.076,155.118 108.809,155.239 108.768 C 155.359 108.727,155.522 108.372,155.600 107.980 C 155.754 107.210,155.410 107.080,154.725 107.649 C 154.441 107.885,154.359 107.851,154.231 107.449 C 154.051 106.882,154.258 106.629,154.985 106.525 C 155.500 106.451,155.502 106.440,155.097 105.983 C 154.261 105.039,153.281 105.221,152.609 106.445 C 152.378 106.864,152.348 106.852,152.070 106.221 C 151.656 105.281,151.518 105.223,149.684 105.219 C 148.437 105.217,148.020 105.295,147.922 105.552 C 147.851 105.738,147.656 105.889,147.489 105.889 C 146.583 105.889,145.853 107.793,146.663 108.043 C 146.879 108.110,147.207 108.261,147.392 108.379 C 147.577 108.497,147.905 108.653,148.121 108.726 C 148.337 108.798,148.514 108.992,148.514 109.156 C 148.514 109.320,148.766 109.929,149.075 110.509 C 149.659 111.609,149.901 114.414,149.411 114.414 C 149.288 114.414,149.187 114.896,149.187 115.486 C 149.187 116.983,148.733 117.330,146.773 117.331 L 145.261 117.331 145.331 114.865 C 145.386 112.908,145.328 112.295,145.050 111.898 C 144.562 111.201,144.559 107.987,145.046 107.449 C 145.527 106.917,144.849 105.494,144.027 105.310 C 143.718 105.241,143.234 105.091,142.951 104.976 C 142.115 104.637,141.730 104.737,140.606 105.581 M202.580 104.992 C 202.580 105.115,202.356 105.216,202.082 105.216 C 200.841 105.216,200.110 107.373,200.940 108.587 C 201.448 109.329,201.683 109.471,202.412 109.475 L 203.029 109.478 203.029 112.369 C 203.029 116.034,204.040 116.876,206.895 115.592 L 207.768 115.199 207.722 112.283 C 207.697 110.679,207.691 109.240,207.708 109.086 C 207.729 108.899,208.153 108.805,208.974 108.805 L 210.208 108.805 210.208 107.684 C 210.208 106.836,210.125 106.562,209.871 106.562 C 209.686 106.562,209.534 106.411,209.534 106.225 C 209.534 106.040,209.426 105.889,209.294 105.889 C 209.162 105.889,208.902 105.738,208.717 105.552 C 208.472 105.307,207.873 105.216,206.503 105.216 C 205.470 105.216,204.563 105.115,204.487 104.992 C 204.411 104.868,203.950 104.767,203.464 104.767 C 202.978 104.767,202.580 104.868,202.580 104.992 M265.508 104.992 C 265.431 105.115,264.426 105.216,263.267 105.216 C 261.698 105.216,261.080 105.301,260.828 105.552 C 260.643 105.738,260.340 105.889,260.155 105.889 C 258.602 105.889,258.369 110.439,259.843 111.983 C 260.059 112.210,260.337 112.395,260.460 112.395 C 260.583 112.395,260.684 112.499,260.684 112.627 C 260.684 112.917,261.969 114.190,262.262 114.190 C 262.381 114.190,262.479 114.382,262.479 114.616 C 262.479 115.085,263.807 115.984,264.500 115.984 C 264.922 115.984,266.517 114.529,266.517 114.144 C 266.517 114.034,266.769 113.710,267.078 113.424 C 267.386 113.138,267.639 112.790,267.639 112.650 C 267.639 112.509,267.790 112.395,267.975 112.395 C 268.160 112.395,268.312 112.243,268.312 112.058 C 268.312 111.873,268.463 111.722,268.648 111.722 C 268.858 111.722,268.985 111.510,268.985 111.161 C 268.985 110.852,269.086 110.600,269.209 110.600 C 269.334 110.600,269.434 110.006,269.434 109.267 C 269.434 108.534,269.333 107.872,269.209 107.796 C 269.086 107.720,268.985 107.411,268.985 107.110 C 268.985 106.808,268.859 106.558,268.704 106.552 C 268.550 106.547,268.176 106.244,267.874 105.879 C 267.571 105.515,267.148 105.216,266.933 105.216 C 266.719 105.216,266.481 105.115,266.405 104.992 C 266.329 104.868,266.127 104.767,265.956 104.767 C 265.786 104.767,265.584 104.868,265.508 104.992 M169.994 105.371 C 169.778 105.427,169.602 105.567,169.602 105.681 C 169.602 105.795,169.195 105.889,168.697 105.889 C 168.129 105.889,167.748 106.006,167.672 106.203 C 167.606 106.376,167.357 106.569,167.120 106.631 C 166.882 106.693,166.622 106.916,166.541 107.126 C 166.460 107.336,166.157 107.764,165.867 108.077 C 165.300 108.689,165.034 113.068,165.564 113.068 C 165.687 113.068,165.788 113.320,165.788 113.629 C 165.788 113.978,165.915 114.190,166.125 114.190 C 166.310 114.190,166.461 114.341,166.461 114.526 C 166.461 114.711,166.612 114.863,166.798 114.863 C 166.983 114.863,167.134 114.962,167.134 115.083 C 167.134 115.204,167.386 115.366,167.695 115.443 C 168.003 115.521,168.256 115.674,168.256 115.784 C 168.256 115.894,169.316 115.984,170.611 115.984 C 172.032 115.984,172.967 115.895,172.967 115.760 C 172.967 115.637,173.172 115.536,173.423 115.536 C 173.673 115.536,173.936 115.384,174.007 115.199 C 174.079 115.014,174.277 114.863,174.449 114.863 C 174.621 114.863,174.762 114.722,174.762 114.550 C 174.762 114.378,174.913 114.179,175.098 114.108 C 175.283 114.037,175.435 113.783,175.435 113.542 C 175.435 113.302,175.558 113.064,175.709 113.014 C 176.045 112.902,176.007 108.888,175.666 108.477 C 175.543 108.330,175.413 108.007,175.375 107.761 C 175.115 106.056,172.247 104.782,169.994 105.371 M179.245 105.634 C 177.987 106.306,178.166 108.805,179.473 108.805 C 179.596 108.805,179.697 108.993,179.697 109.221 C 179.697 109.450,179.950 109.910,180.258 110.242 C 180.966 111.007,181.024 110.830,179.585 112.293 C 178.045 113.858,177.806 115.214,179.029 115.458 C 179.402 115.533,179.761 115.681,179.827 115.789 C 180.219 116.422,181.936 115.643,181.939 114.831 C 181.940 114.504,182.092 114.179,182.277 114.108 C 182.484 114.029,182.614 114.109,182.614 114.316 C 182.614 114.501,182.765 114.710,182.950 114.781 C 183.135 114.852,183.287 115.051,183.287 115.223 C 183.287 115.395,183.438 115.536,183.623 115.536 C 183.808 115.536,183.960 115.637,183.960 115.760 C 183.960 115.885,184.558 115.984,185.306 115.984 C 186.053 115.984,186.652 115.885,186.652 115.760 C 186.652 115.637,186.803 115.536,186.988 115.536 C 187.874 115.536,187.195 112.706,186.035 111.566 C 185.449 110.991,185.346 109.759,185.867 109.560 C 186.052 109.489,186.203 109.335,186.203 109.219 C 186.203 109.103,186.455 108.774,186.764 108.489 C 187.072 108.203,187.325 107.890,187.325 107.795 C 187.325 107.699,187.487 107.502,187.686 107.357 C 188.018 107.114,188.018 107.063,187.686 106.731 C 187.487 106.532,187.325 106.312,187.325 106.241 C 187.325 105.275,184.822 104.858,183.808 105.655 C 183.254 106.091,183.244 106.091,182.430 105.655 C 181.400 105.103,180.253 105.095,179.245 105.634 M190.547 105.552 C 190.476 105.738,190.289 105.889,190.132 105.889 C 189.174 105.889,189.008 107.658,189.890 108.475 C 190.207 108.768,190.466 109.114,190.466 109.243 C 190.466 109.373,190.617 109.478,190.802 109.478 C 191.011 109.478,191.139 109.690,191.139 110.039 C 191.139 110.348,191.239 110.600,191.363 110.600 C 191.486 110.600,191.587 110.805,191.587 111.056 C 191.587 111.306,191.739 111.570,191.924 111.641 C 192.184 111.740,192.260 112.174,192.260 113.548 C 192.260 115.045,192.322 115.345,192.653 115.447 C 192.869 115.514,193.221 115.662,193.435 115.776 C 195.130 116.681,196.295 115.785,196.297 113.573 C 196.298 112.555,196.393 111.722,196.508 111.722 C 196.623 111.722,196.788 111.495,196.874 111.217 C 196.961 110.939,197.477 110.277,198.022 109.745 C 199.340 108.457,199.914 106.562,198.986 106.562 C 198.865 106.562,198.766 106.411,198.766 106.225 C 198.766 106.040,198.615 105.889,198.430 105.889 C 198.245 105.889,198.093 105.788,198.093 105.665 C 198.093 105.541,197.639 105.440,197.084 105.440 C 196.528 105.440,196.074 105.541,196.074 105.665 C 196.074 105.788,195.872 105.889,195.625 105.889 C 195.379 105.889,195.177 105.994,195.177 106.123 C 195.177 106.251,195.053 106.489,194.903 106.650 C 194.606 106.967,194.055 106.628,194.055 106.129 C 194.055 105.997,193.947 105.889,193.815 105.889 C 193.682 105.889,193.423 105.738,193.238 105.552 C 193.029 105.344,192.478 105.216,191.788 105.216 C 191.006 105.216,190.637 105.316,190.547 105.552 M215.287 105.552 C 215.102 105.738,214.779 105.889,214.569 105.889 C 214.071 105.889,212.675 107.372,212.675 107.900 C 212.675 108.125,212.524 108.367,212.339 108.438 C 212.074 108.539,212.002 108.996,212.002 110.566 C 212.002 112.068,212.086 112.634,212.339 112.844 C 212.524 112.997,212.675 113.312,212.675 113.544 C 212.675 114.093,213.407 114.810,214.632 115.461 C 215.685 116.021,219.630 116.257,219.630 115.760 C 219.630 115.637,219.825 115.536,220.062 115.536 C 220.300 115.536,220.647 115.384,220.832 115.199 C 221.017 115.014,221.330 114.863,221.528 114.863 C 221.726 114.863,221.960 114.686,222.049 114.470 C 222.137 114.254,222.499 113.651,222.853 113.129 C 223.544 112.110,223.673 109.293,223.038 109.081 C 222.891 109.032,222.771 108.698,222.771 108.338 C 222.771 107.906,222.656 107.684,222.434 107.684 C 222.249 107.684,222.098 107.576,222.098 107.443 C 222.098 107.133,221.527 106.562,221.216 106.562 C 221.084 106.562,220.976 106.411,220.976 106.225 C 220.976 106.010,220.755 105.886,220.359 105.882 C 220.020 105.878,219.546 105.726,219.307 105.545 C 218.699 105.085,215.749 105.091,215.287 105.552 M228.299 105.552 C 228.114 105.738,227.839 105.889,227.689 105.889 C 227.296 105.889,225.911 107.371,225.911 107.792 C 225.911 107.987,225.760 108.205,225.575 108.276 C 225.390 108.347,225.238 108.588,225.238 108.811 C 225.238 109.035,225.067 109.516,224.858 109.881 C 224.500 110.505,224.500 110.579,224.858 111.125 C 225.067 111.445,225.238 111.965,225.238 112.282 C 225.238 112.599,225.390 112.916,225.575 112.987 C 225.760 113.058,225.911 113.357,225.911 113.653 C 225.911 113.948,226.012 114.190,226.136 114.190 C 226.259 114.190,226.360 114.341,226.360 114.526 C 226.360 114.711,226.511 114.863,226.697 114.863 C 226.882 114.863,227.033 114.962,227.033 115.083 C 227.033 115.204,227.285 115.366,227.594 115.443 C 227.902 115.521,228.155 115.674,228.155 115.784 C 228.155 116.063,233.254 116.039,233.427 115.760 C 233.503 115.637,233.812 115.536,234.113 115.536 C 234.450 115.536,234.661 115.406,234.661 115.199 C 234.661 115.014,234.812 114.863,234.997 114.863 C 235.376 114.863,235.386 114.728,235.335 110.264 C 235.308 107.998,235.229 107.307,234.981 107.168 C 234.805 107.069,234.661 106.741,234.661 106.439 C 234.661 105.949,234.565 105.889,233.787 105.889 C 233.218 105.889,232.869 105.772,232.785 105.552 C 232.683 105.288,232.225 105.216,230.646 105.216 C 229.158 105.216,228.548 105.303,228.299 105.552 M238.867 105.359 C 238.651 105.422,238.474 105.567,238.474 105.681 C 238.474 105.795,238.323 105.889,238.138 105.889 C 237.856 105.889,237.801 106.370,237.801 108.873 C 237.801 110.514,237.704 111.954,237.585 112.073 C 236.972 112.686,237.054 114.776,237.716 115.389 C 238.515 116.130,240.706 116.242,241.557 115.587 C 242.108 115.163,242.099 115.256,241.920 111.518 C 241.816 109.326,241.849 108.930,242.155 108.759 C 242.730 108.437,242.640 106.465,242.023 105.848 C 241.534 105.359,239.794 105.089,238.867 105.359 M245.664 105.380 C 244.610 105.794,244.009 107.671,244.778 108.146 C 244.997 108.281,245.066 109.171,245.055 111.737 C 245.038 115.800,245.125 115.984,247.061 115.984 C 248.445 115.984,249.415 114.876,248.838 113.952 C 248.450 113.332,248.484 112.151,248.884 112.305 C 249.057 112.372,249.256 112.596,249.326 112.803 C 249.797 114.192,251.299 115.536,252.381 115.536 C 253.750 115.536,253.954 115.379,253.954 114.323 C 253.954 113.805,254.053 113.282,254.175 113.161 C 254.446 112.890,254.751 107.312,254.541 106.473 C 254.384 105.847,251.730 105.617,251.692 106.225 C 251.685 106.349,251.528 106.616,251.343 106.820 C 251.120 107.067,251.088 107.240,251.247 107.338 C 251.609 107.562,251.533 108.357,251.150 108.357 C 250.965 108.357,250.813 108.247,250.813 108.112 C 250.813 107.849,249.153 106.165,248.312 105.576 C 247.813 105.227,246.330 105.117,245.664 105.380 M137.252 106.831 C 137.400 106.979,137.521 107.271,137.521 107.480 C 137.521 107.689,137.672 107.918,137.858 107.989 C 138.054 108.065,138.194 108.401,138.194 108.798 C 138.194 109.172,138.295 109.478,138.418 109.478 C 138.542 109.478,138.643 109.661,138.643 109.884 C 138.643 110.107,138.791 110.486,138.972 110.725 C 139.153 110.965,139.305 111.377,139.309 111.642 C 139.313 111.906,139.467 112.181,139.652 112.252 C 140.068 112.411,140.091 113.292,139.694 113.835 C 139.100 114.646,138.633 114.160,137.554 111.610 C 136.981 110.252,136.231 108.729,135.888 108.224 C 134.988 106.898,136.141 105.721,137.252 106.831 M143.466 110.572 C 143.466 114.263,143.442 114.478,143.017 114.640 C 142.048 115.009,141.932 114.661,141.987 111.547 C 142.020 109.664,141.953 108.574,141.799 108.478 C 140.984 107.975,141.763 106.507,142.792 106.608 L 143.466 106.674 143.466 110.572 M150.725 107.123 C 150.771 107.370,150.873 107.622,150.952 107.684 C 151.030 107.745,151.338 108.301,151.635 108.918 C 151.933 109.534,152.423 110.337,152.724 110.701 C 153.209 111.287,153.261 111.532,153.185 112.876 C 153.087 114.605,153.024 114.713,152.103 114.713 C 151.174 114.713,151.147 114.657,151.055 112.566 C 150.998 111.266,150.874 110.638,150.641 110.463 C 150.458 110.326,150.308 109.998,150.308 109.734 C 150.308 109.470,150.214 109.254,150.099 109.254 C 149.984 109.254,149.819 109.027,149.732 108.749 C 149.646 108.472,149.513 108.194,149.437 108.132 C 149.002 107.779,148.782 107.056,149.033 106.805 C 149.458 106.381,150.628 106.600,150.725 107.123 M169.321 107.466 C 169.169 107.709,168.969 107.908,168.875 107.908 C 168.781 107.908,168.704 108.067,168.704 108.261 C 168.704 108.454,168.553 108.765,168.368 108.950 C 168.135 109.183,168.031 109.755,168.031 110.813 C 168.031 111.897,168.129 112.421,168.368 112.619 C 168.553 112.773,168.704 113.052,168.704 113.239 C 168.704 113.426,168.881 113.710,169.097 113.869 C 169.401 114.094,169.430 114.220,169.222 114.431 C 168.887 114.771,167.405 114.131,167.194 113.556 C 167.118 113.349,166.922 113.099,166.758 113.001 C 166.595 112.902,166.461 112.580,166.461 112.285 C 166.461 111.990,166.360 111.686,166.237 111.610 C 166.113 111.533,166.012 111.073,166.012 110.587 C 166.012 110.101,166.113 109.703,166.237 109.703 C 166.360 109.703,166.461 109.455,166.461 109.153 C 166.461 108.851,166.595 108.523,166.758 108.424 C 166.922 108.325,167.121 108.066,167.201 107.849 C 167.281 107.631,167.592 107.359,167.892 107.245 C 168.191 107.132,168.503 106.931,168.584 106.800 C 168.687 106.634,168.864 106.632,169.164 106.792 C 169.531 106.989,169.555 107.092,169.321 107.466 M181.862 107.235 C 181.936 107.605,182.078 107.908,182.178 107.908 C 182.277 107.908,182.430 108.135,182.517 108.413 C 182.603 108.690,182.741 108.968,182.822 109.030 C 183.073 109.220,184.857 111.986,184.857 112.185 C 184.857 112.288,184.983 112.453,185.137 112.552 C 185.590 112.842,186.253 114.185,186.117 114.538 C 185.809 115.341,183.960 114.623,183.960 113.699 C 183.960 113.468,183.808 113.220,183.623 113.149 C 183.438 113.078,183.287 112.875,183.287 112.698 C 183.287 112.520,183.034 112.103,182.726 111.770 C 182.417 111.438,182.165 110.999,182.165 110.795 C 182.165 110.591,182.013 110.366,181.828 110.295 C 181.643 110.224,181.492 110.055,181.492 109.919 C 181.492 109.784,181.239 109.342,180.931 108.937 C 180.623 108.533,180.370 108.091,180.370 107.954 C 180.370 107.818,180.203 107.613,179.999 107.498 C 179.325 107.121,179.814 106.562,180.817 106.562 C 181.649 106.562,181.739 106.620,181.862 107.235 M192.843 106.734 C 192.978 106.824,193.163 107.200,193.253 107.569 C 193.343 107.938,193.485 108.292,193.568 108.354 C 193.651 108.417,193.920 108.873,194.167 109.366 C 194.413 109.860,194.746 110.366,194.905 110.492 C 195.114 110.656,195.177 111.288,195.130 112.735 L 195.064 114.750 194.279 114.750 L 193.494 114.750 193.572 113.057 C 193.634 111.713,193.576 111.303,193.291 111.067 C 193.094 110.903,192.933 110.591,192.933 110.372 C 192.933 110.154,192.782 109.917,192.597 109.846 C 192.412 109.775,192.260 109.512,192.260 109.261 C 192.260 109.010,192.185 108.804,192.092 108.803 C 191.814 108.799,191.075 107.071,191.238 106.807 C 191.409 106.531,192.468 106.482,192.843 106.734 M197.308 107.123 C 197.308 107.349,197.194 107.572,197.055 107.618 C 196.760 107.717,196.460 107.070,196.655 106.754 C 196.864 106.416,197.308 106.667,197.308 107.123 M202.769 107.109 C 202.812 107.328,202.745 107.608,202.622 107.732 C 202.351 108.003,201.810 107.125,202.029 106.770 C 202.234 106.438,202.679 106.642,202.769 107.109 M206.125 106.831 C 206.313 107.019,206.394 108.236,206.394 110.865 L 206.394 114.630 205.798 114.779 C 204.570 115.087,204.487 114.831,204.488 110.734 C 204.488 107.657,204.548 106.956,204.824 106.781 C 205.285 106.490,205.803 106.510,206.125 106.831 M208.822 107.085 C 208.864 107.302,208.751 107.459,208.555 107.459 C 208.138 107.459,207.886 107.094,208.084 106.774 C 208.287 106.446,208.734 106.635,208.822 107.085 M240.667 110.651 L 240.728 114.627 240.127 114.778 C 238.880 115.091,238.578 113.708,239.033 109.773 C 239.073 109.426,239.022 108.688,238.921 108.133 C 238.696 106.907,238.953 106.513,239.914 106.607 L 240.606 106.674 240.667 110.651 M248.421 107.233 C 248.749 107.602,249.019 107.960,249.019 108.029 C 249.019 108.098,249.248 108.376,249.528 108.648 C 249.808 108.920,250.325 109.587,250.677 110.132 C 251.029 110.677,251.759 111.540,252.299 112.050 C 253.649 113.325,253.749 114.638,252.496 114.638 C 252.064 114.638,251.711 114.531,251.711 114.399 C 251.711 114.077,250.622 112.638,249.860 111.952 C 249.520 111.647,249.243 111.264,249.243 111.100 C 249.243 110.937,248.990 110.569,248.682 110.283 C 248.374 109.997,248.121 109.695,248.121 109.612 C 248.121 109.529,247.717 109.041,247.224 108.527 C 246.014 107.268,246.014 106.562,247.224 106.562 C 247.606 106.562,248.039 106.805,248.421 107.233 M253.057 107.136 C 253.057 107.314,252.905 107.459,252.720 107.459 C 252.382 107.459,252.259 106.986,252.527 106.718 C 252.736 106.508,253.057 106.761,253.057 107.136 M173.291 107.257 C 173.730 107.516,174.089 107.859,174.089 108.018 C 174.089 108.178,174.240 108.367,174.425 108.438 C 174.610 108.509,174.762 108.729,174.762 108.927 C 174.762 109.124,174.924 109.448,175.122 109.647 C 175.524 110.048,175.431 111.760,175.000 111.904 C 174.869 111.948,174.762 112.172,174.762 112.402 C 174.762 112.633,174.635 112.902,174.481 113.001 C 174.327 113.099,174.100 113.363,173.976 113.588 C 173.647 114.187,172.636 114.732,172.179 114.556 C 171.813 114.415,171.811 114.375,172.151 113.999 C 172.353 113.776,172.518 113.488,172.518 113.358 C 172.518 113.229,172.670 112.997,172.855 112.844 C 173.516 112.295,173.311 109.222,172.538 108.087 C 171.608 106.724,171.879 106.425,173.291 107.257 M185.633 106.995 C 185.704 107.110,185.654 107.270,185.523 107.352 C 185.191 107.557,184.573 107.288,184.744 107.012 C 184.919 106.729,185.461 106.718,185.633 106.995 M216.489 106.933 C 216.489 107.014,216.237 107.411,215.928 107.816 C 215.620 108.220,215.367 108.703,215.367 108.889 C 215.367 109.075,215.266 109.290,215.143 109.366 C 214.453 109.793,215.183 113.161,216.137 113.952 C 216.328 114.111,216.429 114.330,216.361 114.439 C 216.192 114.713,215.143 114.691,215.143 114.414 C 215.143 114.291,214.992 114.190,214.807 114.190 C 214.621 114.190,214.470 114.075,214.470 113.935 C 214.470 113.795,214.218 113.446,213.909 113.160 C 213.395 112.684,213.348 112.481,213.348 110.715 L 213.348 108.789 214.378 107.787 C 215.281 106.910,216.489 106.421,216.489 106.933 M219.913 107.067 C 220.791 107.557,221.425 108.198,221.425 108.596 C 221.425 108.808,221.576 109.040,221.761 109.111 C 222.008 109.206,222.098 109.595,222.098 110.577 C 222.098 111.466,221.985 112.027,221.761 112.251 C 221.576 112.436,221.421 112.721,221.417 112.884 C 221.407 113.270,220.637 114.190,220.323 114.190 C 220.189 114.190,220.079 114.291,220.079 114.414 C 220.079 114.658,219.119 114.726,218.892 114.498 C 218.815 114.421,219.011 114.019,219.328 113.603 C 220.207 112.451,220.215 108.985,219.343 107.841 C 218.577 106.837,218.847 106.471,219.913 107.067 M229.725 106.978 C 229.725 107.083,229.473 107.442,229.164 107.775 C 228.856 108.107,228.603 108.571,228.603 108.804 C 228.603 109.037,228.503 109.290,228.379 109.366 C 228.256 109.442,228.155 110.105,228.155 110.838 C 228.155 111.577,228.255 112.170,228.379 112.170 C 228.503 112.170,228.603 112.407,228.603 112.697 C 228.603 112.986,228.805 113.405,229.052 113.629 C 229.669 114.187,229.619 114.638,228.940 114.638 C 228.632 114.638,228.379 114.561,228.379 114.467 C 228.379 114.373,228.160 114.196,227.893 114.075 C 227.625 113.953,227.297 113.651,227.164 113.404 C 227.030 113.158,226.858 112.905,226.780 112.844 C 225.892 112.136,226.407 109.053,227.622 107.803 C 228.527 106.872,229.725 106.402,229.725 106.978 M233.317 107.240 C 233.587 107.743,233.445 108.132,232.991 108.132 C 232.695 108.132,232.375 107.128,232.599 106.904 C 232.828 106.675,233.078 106.792,233.317 107.240 M263.152 107.116 C 263.152 107.316,263.020 107.395,262.817 107.317 C 262.632 107.246,262.537 107.098,262.606 106.987 C 262.801 106.670,263.152 106.753,263.152 107.116 M264.498 108.007 C 264.498 108.745,264.209 108.875,263.753 108.343 C 263.227 107.728,263.283 107.459,263.937 107.459 C 264.382 107.459,264.498 107.572,264.498 108.007 M268.015 109.035 C 267.978 109.643,267.889 110.200,267.817 110.273 C 267.628 110.462,267.346 108.201,267.523 107.915 C 267.832 107.414,268.078 107.975,268.015 109.035 M171.284 108.805 C 171.363 109.052,171.521 109.254,171.636 109.254 C 172.136 109.254,171.866 112.172,171.318 112.686 C 171.029 112.958,170.734 113.331,170.663 113.517 C 170.561 113.785,170.531 113.773,170.517 113.460 C 170.507 113.245,170.342 113.068,170.149 113.068 C 169.957 113.068,169.856 112.977,169.924 112.867 C 169.992 112.757,169.897 112.608,169.713 112.538 C 169.189 112.336,169.237 109.074,169.770 108.669 C 170.363 108.219,171.120 108.287,171.284 108.805 M231.767 109.086 C 232.577 110.004,232.609 110.893,231.856 111.590 C 231.548 111.876,231.296 112.213,231.296 112.338 C 231.296 112.604,230.637 112.813,230.230 112.676 C 230.076 112.624,229.950 112.335,229.950 112.033 C 229.950 111.731,229.798 111.425,229.613 111.354 C 229.421 111.281,229.277 110.946,229.277 110.576 C 229.277 110.149,229.391 109.927,229.613 109.927 C 229.822 109.927,229.950 109.715,229.950 109.366 C 229.950 109.017,230.077 108.805,230.286 108.805 C 230.471 108.805,230.623 108.704,230.623 108.581 C 230.623 108.142,231.134 108.368,231.767 109.086 M218.394 109.557 C 219.015 110.711,218.577 113.068,217.742 113.068 C 217.446 113.068,216.713 112.265,216.713 111.941 C 216.713 111.746,216.590 111.464,216.439 111.312 C 216.222 111.096,216.222 110.945,216.439 110.598 C 216.590 110.356,216.713 109.991,216.713 109.787 C 216.713 109.399,217.321 108.825,217.744 108.813 C 217.879 108.809,218.171 109.144,218.394 109.557 M263.163 109.478 C 263.404 109.478,263.601 109.572,263.601 109.687 C 263.601 109.802,263.828 109.928,264.105 109.968 C 264.701 110.052,264.793 110.772,264.251 111.114 C 263.840 111.374,262.928 110.628,262.928 110.032 C 262.928 109.843,262.776 109.631,262.591 109.560 C 262.406 109.489,262.258 109.265,262.261 109.062 C 262.268 108.735,262.294 108.738,262.497 109.086 C 262.623 109.302,262.922 109.478,263.163 109.478 M260.845 110.310 C 261.006 110.730,261.569 111.426,262.562 112.434 C 262.917 112.794,263.143 113.152,263.065 113.229 C 262.873 113.421,260.236 110.635,260.236 110.241 C 260.236 109.800,260.668 109.849,260.845 110.310 M266.075 112.158 C 265.809 112.655,265.421 112.944,265.250 112.773 C 265.118 112.641,265.864 111.769,266.132 111.741 C 266.229 111.730,266.204 111.918,266.075 112.158 M264.748 113.695 C 264.611 113.741,264.498 113.915,264.498 114.083 C 264.498 114.540,264.073 114.713,263.703 114.406 C 263.165 113.959,263.296 113.488,263.916 113.643 C 264.345 113.751,264.492 113.671,264.632 113.255 C 264.794 112.775,264.817 112.768,264.903 113.171 C 264.955 113.414,264.885 113.649,264.748 113.695 M233.841 113.396 C 233.977 113.750,233.017 114.638,232.499 114.638 C 231.889 114.638,232.361 113.518,233.090 113.234 C 233.621 113.028,233.707 113.047,233.841 113.396 M136.033 114.463 C 135.840 114.775,135.514 114.419,135.655 114.051 C 135.760 113.779,135.828 113.766,135.967 113.992 C 136.065 114.150,136.095 114.362,136.033 114.463 M180.943 114.394 C 180.753 114.701,179.994 114.713,179.808 114.412 C 179.633 114.129,180.636 113.722,180.900 113.969 C 181.007 114.069,181.026 114.260,180.943 114.394 M247.033 114.302 C 247.033 114.419,246.925 114.551,246.792 114.595 C 246.659 114.639,246.551 114.507,246.551 114.302 C 246.551 114.096,246.659 113.964,246.792 114.008 C 246.925 114.052,247.033 114.185,247.033 114.302 M141.335 116.302 C 141.335 116.477,141.736 116.805,142.226 117.031 C 143.111 117.439,143.440 118.003,142.793 118.003 C 142.608 118.003,142.457 118.090,142.457 118.196 C 142.457 118.574,139.915 118.679,139.373 118.324 C 138.809 117.955,138.668 116.722,139.136 116.254 C 139.530 115.860,141.335 115.900,141.335 116.302 M136.924 118.887 C 137.644 119.161,138.418 120.000,138.418 120.506 C 138.418 121.013,139.078 121.368,140.030 121.372 C 140.534 121.374,140.676 121.438,140.469 121.569 C 140.301 121.675,139.973 121.712,139.740 121.651 C 139.423 121.568,139.316 121.660,139.316 122.015 C 139.316 122.277,139.217 122.490,139.096 122.490 C 138.975 122.490,138.807 122.768,138.722 123.107 C 138.526 123.896,137.748 124.958,137.367 124.958 C 137.205 124.958,137.072 125.057,137.072 125.178 C 137.072 125.523,135.979 125.710,135.634 125.423 C 135.133 125.008,135.486 124.260,136.785 122.982 C 138.362 121.432,138.377 120.699,136.850 119.885 C 135.842 119.348,132.711 119.293,132.025 119.800 C 131.901 119.891,131.497 120.020,131.127 120.085 C 130.206 120.248,128.813 120.789,128.495 121.106 C 128.351 121.251,128.052 121.368,127.830 121.368 C 127.607 121.368,127.426 121.461,127.426 121.575 C 127.426 121.689,127.123 121.848,126.753 121.929 C 126.383 122.011,126.080 122.170,126.080 122.284 C 126.080 122.397,125.827 122.490,125.519 122.490 C 125.210 122.490,124.958 122.581,124.958 122.692 C 124.958 122.803,124.548 123.107,124.047 123.368 C 123.546 123.629,122.866 124.094,122.535 124.401 C 122.204 124.707,121.832 124.959,121.707 124.960 C 121.104 124.967,117.813 128.699,117.740 129.459 C 117.636 130.558,116.802 130.574,116.698 129.480 C 116.561 128.056,120.821 123.388,122.256 123.388 C 122.385 123.388,122.490 123.298,122.490 123.189 C 122.490 123.080,122.667 122.930,122.883 122.855 C 123.099 122.781,123.578 122.522,123.948 122.280 C 124.319 122.038,125.278 121.522,126.080 121.133 C 126.882 120.743,127.806 120.284,128.133 120.112 C 128.461 119.939,128.940 119.798,129.199 119.798 C 129.458 119.798,129.669 119.697,129.669 119.574 C 129.669 119.450,129.960 119.349,130.316 119.349 C 130.672 119.349,131.303 119.202,131.718 119.022 C 132.581 118.647,136.056 118.557,136.924 118.887 M267.680 119.398 C 267.514 119.564,266.513 119.702,265.112 119.750 C 262.900 119.827,261.357 120.220,261.357 120.706 C 261.357 120.824,261.102 120.920,260.789 120.920 C 260.477 120.920,260.163 121.071,260.092 121.256 C 260.009 121.474,259.661 121.593,259.103 121.593 C 258.630 121.593,258.181 121.694,258.104 121.817 C 258.028 121.941,257.580 122.042,257.109 122.042 C 256.621 122.042,256.132 122.186,255.973 122.378 C 255.819 122.563,255.501 122.715,255.266 122.715 C 255.030 122.715,254.779 122.866,254.708 123.051 C 254.632 123.249,254.289 123.390,253.874 123.395 C 253.486 123.399,252.977 123.547,252.743 123.724 C 252.509 123.901,252.227 123.990,252.116 123.922 C 252.006 123.854,251.671 123.958,251.372 124.153 C 251.073 124.349,250.368 124.509,249.805 124.509 C 249.101 124.509,248.740 124.615,248.651 124.846 C 248.549 125.112,248.082 125.182,246.428 125.182 C 245.276 125.182,244.281 125.268,244.216 125.372 C 244.152 125.477,243.064 125.630,241.798 125.713 C 240.533 125.796,239.399 125.963,239.278 126.084 C 239.157 126.205,238.131 126.304,236.999 126.304 C 235.442 126.304,234.872 126.386,234.661 126.640 C 234.447 126.898,233.863 126.977,232.179 126.977 C 230.952 126.977,229.915 127.076,229.837 127.201 C 229.748 127.346,225.427 127.426,217.611 127.426 C 209.794 127.426,205.474 127.346,205.384 127.201 C 205.304 127.071,204.082 126.977,202.482 126.977 C 200.299 126.977,199.660 126.906,199.439 126.640 C 199.226 126.383,198.643 126.304,196.970 126.304 C 195.463 126.304,194.579 126.199,194.137 125.969 C 193.783 125.785,193.071 125.633,192.554 125.632 C 192.037 125.632,191.551 125.530,191.475 125.407 C 191.399 125.283,190.618 125.182,189.741 125.182 C 188.626 125.182,188.031 125.079,187.768 124.841 C 187.412 124.519,182.360 124.328,180.943 124.582 C 180.009 124.750,180.494 125.804,181.677 126.179 C 181.946 126.265,182.165 126.428,182.165 126.543 C 182.165 126.659,182.406 126.753,182.702 126.753 C 182.997 126.753,183.297 126.904,183.368 127.089 C 183.466 127.345,183.881 127.426,185.090 127.426 C 186.208 127.426,186.784 127.526,187.020 127.762 C 187.254 127.996,187.827 128.099,188.898 128.099 C 189.746 128.099,190.493 128.187,190.560 128.294 C 190.626 128.401,191.494 128.536,192.488 128.594 C 193.482 128.651,194.413 128.816,194.557 128.959 C 194.701 129.103,195.460 129.220,196.247 129.220 C 197.219 129.220,197.784 129.328,198.013 129.557 C 198.256 129.799,198.846 129.893,200.128 129.893 C 201.106 129.893,201.907 129.983,201.907 130.091 C 201.907 130.200,204.230 130.364,207.070 130.454 C 209.909 130.545,212.288 130.708,212.355 130.817 C 212.521 131.085,224.166 131.071,224.873 130.802 C 225.182 130.684,227.106 130.518,229.150 130.432 C 231.194 130.345,232.866 130.189,232.866 130.084 C 232.866 129.979,233.674 129.893,234.661 129.893 C 236.106 129.893,236.455 129.828,236.455 129.557 C 236.455 129.285,236.814 129.220,238.335 129.220 C 239.732 129.220,240.286 129.134,240.494 128.884 C 240.703 128.631,241.266 128.547,242.751 128.547 C 243.839 128.547,244.792 128.446,244.868 128.323 C 244.944 128.200,245.890 128.099,246.970 128.099 C 248.348 128.099,249.062 128.001,249.368 127.769 C 249.631 127.570,250.318 127.437,251.101 127.433 C 252.042 127.428,252.433 127.333,252.527 127.089 C 252.617 126.855,252.981 126.753,253.721 126.753 C 254.546 126.753,254.922 126.626,255.391 126.192 C 255.724 125.883,256.193 125.631,256.433 125.631 C 256.674 125.631,256.870 125.480,256.870 125.294 C 256.870 125.097,257.079 124.955,257.375 124.951 C 257.954 124.943,258.665 124.469,258.665 124.092 C 258.665 123.913,259.577 123.836,261.694 123.836 C 264.236 123.836,264.722 123.782,264.722 123.500 C 264.722 123.238,265.020 123.163,266.055 123.163 C 266.788 123.163,267.450 123.062,267.527 122.939 C 267.603 122.815,268.167 122.715,268.781 122.715 C 269.565 122.715,269.935 122.615,270.025 122.378 C 270.110 122.159,270.459 122.042,271.028 122.042 C 271.655 122.042,271.901 121.946,271.901 121.705 C 271.901 121.520,272.053 121.368,272.238 121.368 C 272.463 121.368,272.574 121.143,272.574 120.688 C 272.574 120.291,272.435 119.955,272.238 119.879 C 272.053 119.808,271.901 119.609,271.901 119.438 C 271.901 119.023,268.091 118.987,267.680 119.398 M146.775 119.732 C 146.497 119.786,146.043 119.786,145.766 119.732 C 145.488 119.679,145.715 119.635,146.270 119.635 C 146.826 119.635,147.053 119.679,146.775 119.732 M271.677 120.426 C 271.677 121.023,271.227 121.369,270.454 121.365 C 268.920 121.359,268.183 120.821,269.377 120.579 C 269.717 120.511,270.247 120.368,270.555 120.262 C 271.441 119.959,271.677 119.993,271.677 120.426 M144.195 120.401 C 143.979 120.458,143.626 120.458,143.410 120.401 C 143.194 120.345,143.371 120.299,143.803 120.299 C 144.234 120.299,144.411 120.345,144.195 120.401 M142.008 120.920 C 142.008 121.043,141.806 121.144,141.559 121.144 C 141.312 121.144,141.110 121.043,141.110 120.920 C 141.110 120.796,141.312 120.695,141.559 120.695 C 141.806 120.695,142.008 120.796,142.008 120.920 M268.256 121.523 C 268.040 121.580,267.686 121.580,267.471 121.523 C 267.255 121.467,267.431 121.421,267.863 121.421 C 268.295 121.421,268.472 121.467,268.256 121.523 M136.848 123.948 C 136.848 124.133,136.949 124.285,137.072 124.285 C 137.196 124.285,137.297 124.133,137.297 123.948 C 137.297 123.763,137.196 123.612,137.072 123.612 C 136.949 123.612,136.848 123.763,136.848 123.948 M224.736 129.375 C 224.522 129.431,224.118 129.433,223.839 129.379 C 223.560 129.325,223.735 129.279,224.229 129.277 C 224.722 129.275,224.951 129.318,224.736 129.375 " stroke="none" fill="#c5c4bf" fill-rule="evenodd"></path><path id="path1" d="M136.175 107.386 C 136.175 107.592,136.307 107.920,136.469 108.115 C 136.726 108.424,136.978 108.977,137.752 110.937 C 138.457 112.720,138.920 113.482,139.227 113.364 C 139.410 113.294,139.527 113.174,139.488 113.096 C 139.077 112.279,138.382 110.761,138.089 110.039 C 137.888 109.546,137.628 108.967,137.510 108.752 C 137.393 108.538,137.297 108.226,137.297 108.058 C 137.297 107.753,136.609 107.011,136.326 107.011 C 136.243 107.011,136.175 107.179,136.175 107.386 M142.232 110.729 C 142.232 114.149,142.264 114.441,142.625 114.371 C 142.979 114.303,143.017 113.944,143.017 110.653 C 143.017 107.334,142.983 107.011,142.625 107.011 C 142.267 107.011,142.232 107.337,142.232 110.729 M150.135 108.366 C 150.539 109.111,151.102 110.146,151.386 110.665 C 151.814 111.447,151.886 111.851,151.805 113.012 C 151.728 114.104,151.775 114.414,152.017 114.414 C 152.480 114.414,152.457 110.987,151.991 110.600 C 151.806 110.447,151.655 110.230,151.655 110.120 C 151.655 110.009,151.418 109.542,151.130 109.081 C 150.841 108.621,150.536 107.967,150.452 107.628 C 150.349 107.211,150.154 107.011,149.851 107.011 C 149.433 107.011,149.453 107.105,150.135 108.366 M180.595 107.256 C 180.595 107.391,181.232 108.476,182.011 109.667 C 182.791 110.859,183.775 112.412,184.199 113.118 C 184.655 113.878,185.128 114.404,185.358 114.408 C 185.771 114.414,185.129 113.282,182.323 109.055 C 181.979 108.535,181.603 107.863,181.488 107.561 C 181.281 107.017,180.595 106.782,180.595 107.256 M191.982 107.515 C 192.053 107.793,192.346 108.397,192.634 108.857 C 192.922 109.317,193.158 109.784,193.158 109.895 C 193.158 110.006,193.309 110.222,193.494 110.376 C 193.744 110.583,193.831 111.138,193.831 112.534 C 193.831 114.264,193.866 114.414,194.279 114.414 C 194.685 114.414,194.728 114.264,194.728 112.839 C 194.728 111.271,194.646 111.035,193.439 109.133 C 193.285 108.891,192.997 108.315,192.798 107.852 C 192.400 106.928,191.766 106.667,191.982 107.515 M205.240 107.727 C 205.077 111.462,205.160 114.414,205.428 114.414 C 205.793 114.414,205.859 107.347,205.496 107.123 C 205.366 107.042,205.258 107.295,205.240 107.727 M239.372 110.712 C 239.372 113.853,239.423 114.414,239.708 114.414 C 239.994 114.414,240.045 113.853,240.045 110.712 C 240.045 107.572,239.994 107.011,239.708 107.011 C 239.423 107.011,239.372 107.572,239.372 110.712 M246.999 107.207 C 246.999 107.315,247.681 108.249,248.514 109.282 C 249.347 110.316,250.294 111.514,250.620 111.946 C 251.451 113.050,252.075 113.741,252.242 113.741 C 252.551 113.741,252.360 112.698,251.991 112.376 C 251.775 112.187,251.245 111.593,250.813 111.055 C 250.381 110.517,249.926 109.968,249.800 109.834 C 249.675 109.700,249.223 109.136,248.794 108.581 C 247.743 107.217,246.999 106.648,246.999 107.207 M214.744 108.075 C 213.770 108.412,213.253 111.245,213.965 112.343 C 214.579 113.289,215.143 113.806,215.143 113.423 C 215.143 113.248,215.017 113.063,214.863 113.012 C 214.447 112.873,214.472 108.857,214.890 108.599 C 215.264 108.367,215.145 107.936,214.744 108.075 M220.220 108.066 C 220.141 108.144,220.237 108.452,220.432 108.750 C 220.799 109.310,220.787 111.495,220.409 112.933 C 220.160 113.878,220.601 113.506,221.174 112.288 C 221.715 111.137,221.766 110.444,221.377 109.545 C 221.001 108.674,220.391 107.895,220.220 108.066 M227.908 108.207 C 226.513 109.229,226.485 112.103,227.858 113.476 C 228.334 113.952,228.432 113.670,228.048 112.933 C 227.847 112.547,227.709 111.689,227.709 110.824 C 227.709 109.960,227.847 109.102,228.048 108.716 C 228.441 107.963,228.408 107.841,227.908 108.207 M167.358 108.441 C 167.358 108.611,167.207 108.876,167.022 109.030 C 166.480 109.480,166.578 111.608,167.187 112.593 C 167.794 113.574,167.988 113.127,167.609 111.622 C 167.449 110.985,167.442 110.418,167.588 109.908 C 167.870 108.925,167.868 108.132,167.583 108.132 C 167.459 108.132,167.358 108.271,167.358 108.441 M173.534 108.974 C 173.631 109.436,173.711 110.219,173.711 110.712 C 173.711 111.206,173.631 111.988,173.534 112.451 C 173.321 113.462,173.614 113.552,174.152 112.641 C 174.651 111.797,174.682 109.431,174.201 108.950 C 174.016 108.765,173.864 108.505,173.864 108.373 C 173.864 108.241,173.750 108.132,173.611 108.132 C 173.436 108.132,173.412 108.393,173.534 108.974 M138.089 122.332 C 137.993 122.553,137.977 122.797,138.054 122.874 C 138.282 123.102,138.466 122.782,138.361 122.339 C 138.268 121.948,138.256 121.947,138.089 122.332 " stroke="none" fill="#1a1a16" fill-rule="evenodd"></path><path id="path2" d="M135.407 106.934 C 135.321 107.158,135.512 107.670,135.888 108.224 C 136.231 108.729,136.981 110.252,137.554 111.610 C 138.633 114.160,139.100 114.646,139.694 113.835 C 140.091 113.292,140.068 112.411,139.652 112.252 C 139.467 112.181,139.313 111.906,139.309 111.642 C 139.305 111.377,139.153 110.965,138.972 110.725 C 138.613 110.250,138.522 110.595,138.842 111.220 C 139.909 113.304,139.908 113.300,139.440 113.645 C 138.893 114.048,138.845 113.993,137.986 111.946 C 137.597 111.021,136.930 109.583,136.503 108.750 C 136.076 107.918,135.726 107.135,135.726 107.012 C 135.726 106.578,136.822 106.786,137.172 107.285 C 137.416 107.633,137.521 107.681,137.521 107.442 C 137.521 106.589,135.707 106.153,135.407 106.934 M141.838 106.821 C 141.511 107.148,141.464 108.272,141.770 108.460 C 141.885 108.532,142.012 108.210,142.050 107.744 C 142.111 107.010,142.194 106.898,142.681 106.898 C 143.241 106.898,143.242 106.902,143.369 109.591 L 143.495 112.283 143.481 109.478 L 143.466 106.674 142.792 106.608 C 142.421 106.572,141.992 106.667,141.838 106.821 M148.989 106.867 C 148.827 107.062,148.802 107.248,148.928 107.326 C 149.044 107.398,149.198 107.306,149.268 107.122 C 149.539 106.416,150.257 106.763,150.779 107.852 C 151.060 108.438,151.564 109.372,151.899 109.927 C 152.599 111.089,152.942 114.302,152.388 114.515 C 151.666 114.792,151.428 114.397,151.573 113.164 C 151.720 111.917,150.567 108.718,150.352 109.776 C 150.306 110.001,150.427 110.304,150.621 110.449 C 150.878 110.641,150.995 111.215,151.055 112.566 C 151.147 114.657,151.174 114.713,152.103 114.713 C 153.024 114.713,153.087 114.605,153.185 112.876 C 153.261 111.532,153.209 111.287,152.724 110.701 C 152.423 110.337,151.933 109.534,151.635 108.918 C 151.338 108.301,151.030 107.745,150.952 107.684 C 150.873 107.622,150.771 107.370,150.725 107.123 C 150.620 106.561,149.393 106.380,148.989 106.867 M154.233 106.788 C 153.910 107.312,154.357 107.968,154.778 107.587 C 154.992 107.393,155.236 107.302,155.318 107.384 C 155.401 107.467,155.468 107.315,155.468 107.048 C 155.468 106.530,154.517 106.330,154.233 106.788 M168.476 106.903 C 168.325 107.086,168.074 107.235,167.919 107.235 C 167.590 107.235,167.016 107.864,167.188 108.036 C 167.252 108.101,167.461 107.997,167.652 107.807 C 168.381 107.078,168.983 107.454,168.375 108.258 C 167.919 108.861,167.913 109.405,168.368 108.950 C 168.553 108.765,168.704 108.454,168.704 108.261 C 168.704 108.067,168.781 107.908,168.875 107.908 C 168.969 107.908,169.169 107.709,169.321 107.466 C 169.690 106.876,168.923 106.365,168.476 106.903 M179.847 106.712 C 179.582 106.976,179.687 107.407,180.048 107.546 C 180.318 107.650,180.367 107.577,180.258 107.234 C 180.137 106.852,180.218 106.786,180.811 106.786 C 181.232 106.786,181.547 106.919,181.611 107.123 C 181.847 107.878,182.187 108.489,183.006 109.630 C 183.284 110.017,183.511 110.400,183.511 110.481 C 183.511 110.705,184.682 112.196,184.781 112.097 C 184.867 112.011,183.096 109.238,182.822 109.030 C 182.741 108.968,182.603 108.690,182.517 108.413 C 182.430 108.135,182.277 107.908,182.178 107.908 C 182.078 107.908,181.936 107.605,181.862 107.235 C 181.730 106.575,180.344 106.215,179.847 106.712 M191.226 106.881 C 191.159 107.056,191.230 107.435,191.383 107.722 C 191.560 108.052,191.698 108.138,191.758 107.956 C 191.811 107.798,191.732 107.522,191.583 107.342 C 191.367 107.082,191.385 106.988,191.674 106.877 C 192.303 106.636,192.666 106.950,193.307 108.289 C 193.650 109.005,194.165 109.956,194.452 110.403 C 195.204 111.574,195.122 114.486,194.334 114.598 C 193.978 114.649,193.762 114.516,193.607 114.149 L 193.386 113.629 193.440 114.190 C 193.486 114.671,193.606 114.750,194.279 114.750 L 195.064 114.750 195.130 112.735 C 195.177 111.288,195.114 110.656,194.905 110.492 C 194.746 110.366,194.413 109.860,194.167 109.366 C 193.920 108.873,193.651 108.417,193.568 108.354 C 193.485 108.292,193.343 107.938,193.253 107.569 C 193.010 106.577,191.535 106.076,191.226 106.881 M196.655 106.754 C 196.460 107.070,196.760 107.717,197.055 107.618 C 197.387 107.508,197.382 106.736,197.048 106.625 C 196.905 106.577,196.728 106.635,196.655 106.754 M202.029 106.770 C 201.810 107.125,202.351 108.003,202.622 107.732 C 202.902 107.451,202.780 106.741,202.432 106.625 C 202.289 106.577,202.108 106.642,202.029 106.770 M204.824 106.781 C 204.548 106.956,204.488 107.657,204.488 110.734 C 204.487 114.831,204.570 115.087,205.798 114.779 L 206.394 114.630 206.394 110.865 C 206.394 106.603,206.142 105.948,204.824 106.781 M208.084 106.774 C 207.886 107.094,208.138 107.459,208.555 107.459 C 208.751 107.459,208.864 107.302,208.822 107.085 C 208.734 106.635,208.287 106.446,208.084 106.774 M238.991 106.831 C 238.865 106.991,238.820 107.527,238.892 108.020 L 239.022 108.918 239.141 107.908 C 239.246 107.012,239.323 106.898,239.821 106.898 L 240.381 106.898 240.381 110.712 L 240.381 114.526 239.821 114.526 C 239.268 114.526,239.258 114.493,239.135 112.283 L 239.010 110.039 238.933 112.002 C 238.891 113.082,238.846 114.080,238.833 114.221 C 238.797 114.643,239.486 114.939,240.127 114.778 L 240.728 114.627 240.667 110.651 L 240.606 106.674 239.914 106.607 C 239.533 106.569,239.118 106.670,238.991 106.831 M246.476 106.712 C 246.134 107.054,246.378 107.647,247.224 108.527 C 247.717 109.041,248.121 109.529,248.121 109.612 C 248.121 109.695,248.374 109.997,248.682 110.283 C 248.990 110.569,249.243 110.920,249.243 111.063 C 249.243 111.353,250.159 112.385,250.422 112.391 C 250.581 112.395,249.820 111.270,248.981 110.264 C 247.563 108.561,246.551 107.208,246.551 107.014 C 246.551 106.517,247.625 106.817,248.215 107.478 C 248.554 107.859,248.882 108.120,248.943 108.058 C 249.005 107.996,248.778 107.634,248.439 107.254 C 247.856 106.599,246.863 106.325,246.476 106.712 M252.527 106.718 C 252.259 106.986,252.382 107.459,252.720 107.459 C 252.905 107.459,253.057 107.314,253.057 107.136 C 253.057 106.761,252.736 106.508,252.527 106.718 M171.997 106.955 C 171.875 107.162,172.956 108.891,173.111 108.736 C 173.172 108.675,173.093 108.418,172.935 108.164 C 172.537 107.527,172.839 107.324,173.521 107.771 C 173.833 107.975,174.089 108.049,174.089 107.935 C 174.089 107.482,172.206 106.599,171.997 106.955 M184.744 107.012 C 184.573 107.288,185.191 107.557,185.523 107.352 C 185.654 107.270,185.704 107.110,185.633 106.995 C 185.461 106.718,184.919 106.729,184.744 107.012 M205.805 106.966 C 205.866 107.065,205.937 108.806,205.962 110.836 L 206.008 114.526 205.489 114.526 L 204.971 114.526 205.003 110.712 C 205.020 108.615,205.038 106.873,205.041 106.842 C 205.057 106.701,205.706 106.806,205.805 106.966 M214.378 107.787 C 213.744 108.404,213.349 108.986,213.350 109.302 C 213.351 109.769,213.383 109.754,213.701 109.142 C 214.164 108.251,214.921 107.459,215.309 107.459 C 215.525 107.459,215.579 107.616,215.484 107.964 C 215.363 108.405,215.418 108.383,215.916 107.796 C 217.134 106.360,215.854 106.353,214.378 107.787 M218.892 106.926 C 218.815 107.003,219.018 107.415,219.343 107.841 C 220.215 108.985,220.207 112.451,219.328 113.603 C 219.011 114.019,218.815 114.421,218.892 114.498 C 219.119 114.726,220.079 114.658,220.079 114.414 C 220.079 114.291,220.189 114.190,220.323 114.190 C 220.655 114.190,221.409 113.259,221.413 112.844 C 221.415 112.658,221.207 112.835,220.950 113.236 C 220.445 114.024,219.439 114.306,219.747 113.573 C 219.838 113.357,219.961 112.951,220.022 112.672 C 220.083 112.393,220.221 112.109,220.330 112.042 C 220.794 111.755,220.365 108.568,219.784 107.987 C 219.527 107.731,219.611 107.459,219.946 107.459 C 220.121 107.459,220.524 107.770,220.844 108.150 C 221.164 108.530,221.425 108.698,221.425 108.525 C 221.425 107.825,219.321 106.497,218.892 106.926 M227.597 107.828 C 227.040 108.402,226.584 109.028,226.584 109.222 C 226.584 109.415,226.913 109.098,227.314 108.518 C 228.002 107.523,229.055 106.992,228.747 107.796 C 228.540 108.334,228.967 108.184,229.363 107.579 C 230.208 106.289,228.916 106.471,227.597 107.828 M232.599 106.904 C 232.375 107.128,232.695 108.132,232.991 108.132 C 233.445 108.132,233.587 107.743,233.317 107.240 C 233.078 106.792,232.828 106.675,232.599 106.904 M262.606 106.987 C 262.537 107.098,262.632 107.246,262.817 107.317 C 263.020 107.395,263.152 107.316,263.152 107.116 C 263.152 106.753,262.801 106.670,262.606 106.987 M263.376 107.681 C 263.376 108.026,264.107 108.796,264.314 108.668 C 264.783 108.378,264.497 107.459,263.937 107.459 C 263.629 107.459,263.376 107.559,263.376 107.681 M149.187 107.895 C 149.187 108.025,149.277 108.132,149.387 108.132 C 149.497 108.132,149.650 108.385,149.728 108.693 C 149.805 109.002,149.960 109.254,150.071 109.254 C 150.183 109.254,150.124 108.953,149.941 108.586 C 149.583 107.869,149.187 107.506,149.187 107.895 M267.523 107.915 C 267.346 108.201,267.628 110.462,267.817 110.273 C 268.042 110.047,268.092 107.937,267.875 107.803 C 267.762 107.733,267.604 107.784,267.523 107.915 M137.521 108.005 C 137.521 108.078,137.611 108.314,137.721 108.528 C 137.831 108.742,138.046 109.220,138.199 109.591 C 138.373 110.011,138.519 110.149,138.587 109.957 C 138.648 109.789,138.593 109.586,138.466 109.508 C 138.339 109.429,138.200 109.070,138.158 108.710 C 138.096 108.177,137.521 107.540,137.521 108.005 M180.370 108.028 C 180.370 108.124,180.605 108.515,180.891 108.896 C 181.178 109.278,181.478 109.767,181.557 109.983 C 181.637 110.199,181.806 110.376,181.934 110.376 C 182.242 110.376,182.225 110.187,181.884 109.807 C 181.231 109.078,181.043 108.813,181.043 108.618 C 181.043 108.504,180.892 108.286,180.707 108.132 C 180.522 107.979,180.370 107.932,180.370 108.028 M166.611 108.506 C 166.528 108.589,166.461 108.891,166.461 109.179 C 166.461 109.467,166.360 109.703,166.237 109.703 C 165.956 109.703,165.939 111.332,166.218 111.621 C 166.331 111.738,166.457 112.078,166.498 112.377 C 166.539 112.676,166.725 112.970,166.910 113.031 C 167.206 113.128,167.207 113.093,166.919 112.744 C 166.479 112.212,166.451 109.246,166.881 108.728 C 167.171 108.379,166.933 108.184,166.611 108.506 M174.470 109.052 C 174.949 110.012,174.955 111.431,174.486 112.354 C 174.239 112.841,174.201 113.068,174.378 113.009 C 174.528 112.959,174.686 112.725,174.732 112.488 C 174.777 112.252,174.910 111.997,175.029 111.922 C 175.426 111.672,175.512 110.036,175.146 109.671 C 174.961 109.486,174.774 109.148,174.730 108.920 C 174.686 108.692,174.528 108.465,174.378 108.416 C 174.197 108.355,174.227 108.565,174.470 109.052 M191.812 108.568 C 191.812 108.698,191.905 108.805,192.020 108.805 C 192.135 108.805,192.261 109.025,192.301 109.293 C 192.340 109.561,192.494 109.820,192.643 109.869 C 192.831 109.931,192.809 109.747,192.573 109.274 C 192.209 108.544,191.812 108.176,191.812 108.568 M249.624 109.194 C 250.335 110.141,250.581 110.444,252.030 112.161 C 253.103 113.433,253.167 113.664,252.548 114.054 C 252.252 114.241,252.017 114.111,251.360 113.397 L 250.540 112.507 251.126 113.333 C 251.447 113.788,251.711 114.267,251.711 114.399 C 251.711 114.531,252.064 114.638,252.496 114.638 C 253.749 114.638,253.649 113.325,252.299 112.050 C 251.759 111.540,251.027 110.678,250.672 110.135 C 249.850 108.875,249.415 108.357,249.182 108.357 C 249.079 108.357,249.278 108.733,249.624 109.194 M214.956 108.959 C 214.595 109.635,214.642 111.938,215.031 112.619 C 215.207 112.928,215.355 113.357,215.359 113.573 C 215.369 114.052,214.792 114.095,214.613 113.629 C 214.542 113.444,214.355 113.300,214.197 113.310 C 213.971 113.324,213.970 113.352,214.190 113.441 C 214.344 113.503,214.470 113.697,214.470 113.872 C 214.470 114.047,214.621 114.190,214.807 114.190 C 214.992 114.190,215.143 114.291,215.143 114.414 C 215.143 114.691,216.192 114.713,216.361 114.439 C 216.429 114.330,216.328 114.111,216.137 113.952 C 215.151 113.134,214.494 109.992,215.168 109.319 C 215.306 109.181,215.373 108.934,215.318 108.770 C 215.250 108.564,215.136 108.624,214.956 108.959 M228.192 108.959 C 227.816 109.663,227.871 112.185,228.274 112.718 C 228.596 113.144,228.603 113.142,228.603 112.662 C 228.603 112.392,228.503 112.170,228.379 112.170 C 228.072 112.170,228.094 109.629,228.404 109.319 C 228.542 109.181,228.609 108.934,228.554 108.770 C 228.486 108.564,228.372 108.624,228.192 108.959 M221.425 109.222 C 221.425 109.349,221.526 109.514,221.649 109.591 C 221.962 109.784,221.930 111.575,221.608 111.898 C 221.462 112.044,221.417 112.237,221.508 112.329 C 221.844 112.665,222.100 111.796,222.043 110.506 C 221.997 109.432,221.425 108.246,221.425 109.222 M167.874 110.824 C 167.874 111.503,167.916 111.781,167.968 111.441 C 168.019 111.102,168.019 110.547,167.968 110.208 C 167.916 109.868,167.874 110.146,167.874 110.824 M173.255 110.712 C 173.257 111.329,173.301 111.555,173.352 111.214 C 173.404 110.873,173.402 110.368,173.349 110.092 C 173.296 109.816,173.254 110.095,173.255 110.712 M226.421 110.824 C 226.421 111.380,226.465 111.607,226.518 111.329 C 226.572 111.052,226.572 110.597,226.518 110.320 C 226.465 110.042,226.421 110.269,226.421 110.824 M260.236 110.241 C 260.236 110.635,262.873 113.421,263.065 113.229 C 263.143 113.152,262.917 112.794,262.562 112.434 C 261.569 111.426,261.006 110.730,260.845 110.310 C 260.668 109.849,260.236 109.800,260.236 110.241 M192.933 110.444 C 192.933 110.623,193.085 110.895,193.270 111.049 C 193.524 111.260,193.606 111.263,193.606 111.060 C 193.606 110.913,193.455 110.641,193.270 110.456 C 192.981 110.167,192.933 110.166,192.933 110.444 M182.172 110.831 C 182.182 111.273,183.032 112.275,183.230 112.078 C 183.316 111.992,183.282 111.852,183.155 111.766 C 183.028 111.680,182.753 111.360,182.544 111.055 C 182.318 110.723,182.168 110.633,182.172 110.831 M265.545 112.208 C 265.128 112.662,265.167 113.011,265.604 112.741 C 265.919 112.546,266.357 111.717,266.132 111.741 C 266.036 111.751,265.771 111.961,265.545 112.208 M213.348 112.328 C 213.348 112.585,213.500 112.854,213.685 112.925 C 214.106 113.086,214.104 112.859,213.678 112.296 C 213.354 111.868,213.348 111.869,213.348 112.328 M226.584 112.473 C 226.584 112.677,226.661 112.844,226.756 112.844 C 226.850 112.844,227.026 113.071,227.148 113.348 C 227.270 113.626,227.597 113.953,227.874 114.075 C 228.152 114.196,228.379 114.373,228.379 114.467 C 228.379 114.561,228.632 114.638,228.940 114.638 C 229.633 114.638,229.667 114.181,229.017 113.607 C 228.538 113.185,228.534 113.185,228.652 113.656 C 228.847 114.437,227.988 114.040,227.236 113.002 C 226.844 112.462,226.584 112.251,226.584 112.473 M168.031 112.578 C 168.031 112.710,168.132 112.879,168.256 112.956 C 168.569 113.149,168.537 113.965,168.217 113.965 C 168.073 113.965,167.755 113.789,167.512 113.573 C 167.166 113.266,167.092 113.254,167.176 113.515 C 167.356 114.081,168.883 114.774,169.213 114.440 C 169.433 114.217,169.409 114.100,169.097 113.869 C 168.881 113.710,168.704 113.426,168.704 113.239 C 168.704 113.052,168.553 112.773,168.368 112.619 C 168.156 112.443,168.031 112.428,168.031 112.578 M183.287 112.673 C 183.287 112.864,183.438 113.078,183.623 113.149 C 183.808 113.220,183.960 113.468,183.960 113.699 C 183.960 114.623,185.809 115.341,186.117 114.538 C 186.317 114.017,185.193 112.209,184.870 112.531 C 184.808 112.593,184.858 112.714,184.981 112.800 C 185.394 113.088,185.999 114.200,185.863 114.420 C 185.580 114.877,184.829 114.626,184.454 113.949 C 183.862 112.880,183.287 112.252,183.287 112.673 M143.226 113.449 C 143.276 114.020,143.207 114.433,143.051 114.497 C 142.863 114.574,142.866 114.608,143.060 114.621 C 143.481 114.648,143.544 114.369,143.337 113.404 L 143.144 112.507 143.226 113.449 M172.784 112.892 C 172.638 113.038,172.518 113.276,172.518 113.422 C 172.518 113.567,172.368 113.811,172.184 113.963 C 171.800 114.282,171.936 114.638,172.441 114.638 C 172.886 114.638,174.089 113.783,174.089 113.466 C 174.089 113.332,173.904 113.390,173.678 113.594 C 172.947 114.256,172.317 113.807,173.008 113.116 C 173.154 112.970,173.223 112.801,173.161 112.739 C 173.100 112.677,172.930 112.746,172.784 112.892 M264.632 113.255 C 264.492 113.671,264.345 113.751,263.916 113.643 C 263.296 113.488,263.165 113.959,263.703 114.406 C 264.073 114.713,264.498 114.540,264.498 114.083 C 264.498 113.915,264.611 113.741,264.748 113.695 C 264.885 113.649,264.955 113.414,264.903 113.171 C 264.817 112.768,264.794 112.775,264.632 113.255 M233.090 113.234 C 232.361 113.518,231.889 114.638,232.499 114.638 C 233.017 114.638,233.977 113.750,233.841 113.396 C 233.707 113.047,233.621 113.028,233.090 113.234 M135.655 114.051 C 135.582 114.243,135.611 114.455,135.721 114.523 C 136.007 114.699,136.177 114.332,135.967 113.992 C 135.828 113.766,135.760 113.779,135.655 114.051 M180.187 113.987 C 179.902 114.096,179.731 114.288,179.808 114.412 C 179.994 114.713,180.753 114.701,180.943 114.394 C 181.185 114.004,180.752 113.770,180.187 113.987 M246.551 114.302 C 246.551 114.507,246.659 114.639,246.792 114.595 C 246.925 114.551,247.033 114.419,247.033 114.302 C 247.033 114.185,246.925 114.052,246.792 114.008 C 246.659 113.964,246.551 114.096,246.551 114.302 M131.718 119.022 C 131.303 119.202,130.672 119.349,130.316 119.349 C 129.960 119.349,129.669 119.450,129.669 119.574 C 129.669 119.697,129.458 119.798,129.199 119.798 C 128.940 119.798,128.461 119.939,128.133 120.112 C 127.806 120.284,126.882 120.743,126.080 121.133 C 125.278 121.522,124.319 122.038,123.948 122.280 C 123.578 122.522,123.099 122.781,122.883 122.855 C 122.667 122.930,122.490 123.080,122.490 123.189 C 122.490 123.298,122.385 123.388,122.256 123.388 C 120.821 123.388,116.561 128.056,116.698 129.480 C 116.802 130.574,117.636 130.558,117.740 129.459 C 117.813 128.699,121.104 124.967,121.707 124.960 C 121.832 124.959,122.204 124.707,122.535 124.401 C 122.866 124.094,123.546 123.629,124.047 123.368 C 124.548 123.107,124.958 122.803,124.958 122.692 C 124.958 122.581,125.210 122.490,125.519 122.490 C 125.827 122.490,126.080 122.397,126.080 122.284 C 126.080 122.170,126.383 122.011,126.753 121.929 C 127.123 121.848,127.426 121.689,127.426 121.575 C 127.426 121.461,127.607 121.368,127.830 121.368 C 128.052 121.368,128.351 121.251,128.495 121.106 C 128.813 120.789,130.206 120.248,131.127 120.085 C 131.497 120.020,131.901 119.891,132.025 119.800 C 132.711 119.293,135.842 119.348,136.850 119.885 C 138.377 120.699,138.362 121.432,136.785 122.982 C 135.486 124.260,135.133 125.008,135.634 125.423 C 135.979 125.710,137.072 125.523,137.072 125.178 C 137.072 125.057,137.205 124.958,137.367 124.958 C 137.748 124.958,138.526 123.896,138.722 123.107 C 138.807 122.768,138.975 122.490,139.096 122.490 C 139.217 122.490,139.316 122.277,139.316 122.015 C 139.316 121.660,139.423 121.568,139.740 121.651 C 139.973 121.712,140.301 121.675,140.469 121.569 C 140.676 121.438,140.534 121.374,140.030 121.372 C 139.078 121.368,138.418 121.013,138.418 120.506 C 138.418 118.943,134.101 117.987,131.718 119.022 M134.885 119.063 C 134.484 119.113,133.828 119.113,133.427 119.063 C 133.026 119.013,133.354 118.973,134.156 118.973 C 134.958 118.973,135.286 119.013,134.885 119.063 M145.766 119.732 C 146.043 119.786,146.497 119.786,146.775 119.732 C 147.053 119.679,146.826 119.635,146.270 119.635 C 145.715 119.635,145.488 119.679,145.766 119.732 M129.445 120.247 C 129.445 120.370,129.218 120.470,128.940 120.468 C 128.532 120.465,128.500 120.423,128.772 120.247 C 129.207 119.966,129.445 119.966,129.445 120.247 M270.555 120.262 C 270.247 120.368,269.717 120.511,269.377 120.579 C 268.183 120.821,268.920 121.359,270.454 121.365 C 271.227 121.369,271.677 121.023,271.677 120.426 C 271.677 119.993,271.441 119.959,270.555 120.262 M143.410 120.401 C 143.626 120.458,143.979 120.458,144.195 120.401 C 144.411 120.345,144.234 120.299,143.803 120.299 C 143.371 120.299,143.194 120.345,143.410 120.401 M128.211 120.920 C 128.135 121.043,127.876 121.144,127.637 121.144 C 127.397 121.144,127.201 121.043,127.201 120.920 C 127.201 120.796,127.460 120.695,127.775 120.695 C 128.101 120.695,128.290 120.793,128.211 120.920 M141.110 120.920 C 141.110 121.043,141.312 121.144,141.559 121.144 C 141.806 121.144,142.008 121.043,142.008 120.920 C 142.008 120.796,141.806 120.695,141.559 120.695 C 141.312 120.695,141.110 120.796,141.110 120.920 M126.977 121.344 C 126.977 121.608,126.321 121.854,126.056 121.690 C 125.941 121.620,125.906 121.468,125.977 121.353 C 126.142 121.086,126.977 121.079,126.977 121.344 M267.471 121.523 C 267.686 121.580,268.040 121.580,268.256 121.523 C 268.472 121.467,268.295 121.421,267.863 121.421 C 267.431 121.421,267.255 121.467,267.471 121.523 M138.975 121.811 C 139.186 122.152,138.415 123.163,137.944 123.163 C 137.426 123.163,137.408 122.871,137.883 122.146 C 138.257 121.576,138.739 121.428,138.975 121.811 M125.631 122.042 C 125.631 122.165,125.480 122.266,125.294 122.266 C 125.109 122.266,124.958 122.165,124.958 122.042 C 124.958 121.918,125.109 121.817,125.294 121.817 C 125.480 121.817,125.631 121.918,125.631 122.042 M124.621 122.715 C 124.545 122.838,124.337 122.939,124.160 122.939 C 123.982 122.939,123.836 122.838,123.836 122.715 C 123.836 122.591,124.044 122.490,124.298 122.490 C 124.552 122.490,124.698 122.591,124.621 122.715 M123.411 123.454 C 123.123 123.742,122.831 123.519,123.044 123.174 C 123.127 123.041,123.297 122.995,123.423 123.073 C 123.576 123.167,123.572 123.293,123.411 123.454 M122.715 123.836 C 122.715 123.960,122.507 124.061,122.253 124.061 C 121.999 124.061,121.853 123.960,121.929 123.836 C 122.006 123.713,122.213 123.612,122.391 123.612 C 122.569 123.612,122.715 123.713,122.715 123.836 M137.297 123.948 C 137.297 124.133,137.196 124.285,137.072 124.285 C 136.949 124.285,136.848 124.133,136.848 123.948 C 136.848 123.763,136.949 123.612,137.072 123.612 C 137.196 123.612,137.297 123.763,137.297 123.948 M121.817 124.509 C 121.817 124.633,121.704 124.734,121.566 124.734 C 120.874 124.734,117.555 128.560,117.555 129.359 C 117.555 129.895,117.463 130.125,117.274 130.063 C 116.850 129.924,116.801 128.670,117.207 128.333 C 117.398 128.174,117.555 127.922,117.555 127.773 C 117.555 127.483,119.769 125.306,120.695 124.684 C 121.335 124.256,121.817 124.180,121.817 124.509 M223.839 129.379 C 224.118 129.433,224.522 129.431,224.736 129.375 C 224.951 129.318,224.722 129.275,224.229 129.277 C 223.735 129.279,223.560 129.325,223.839 129.379 " stroke="none" fill="#6e6d68" fill-rule="evenodd"></path><path id="path3" d="M135.977 107.291 C 135.996 107.671,136.028 107.699,136.105 107.403 C 136.162 107.187,136.268 107.011,136.342 107.011 C 136.416 107.011,136.686 107.187,136.943 107.403 C 137.408 107.795,137.408 107.795,136.981 107.291 C 136.746 107.013,136.418 106.786,136.252 106.786 C 136.081 106.786,135.962 107.005,135.977 107.291 M142.101 107.091 C 142.030 107.276,142.017 107.661,142.072 107.948 C 142.147 108.345,142.178 108.295,142.202 107.740 C 142.225 107.184,142.333 107.011,142.658 107.011 C 143.056 107.011,143.079 107.174,143.002 109.422 C 142.939 111.286,142.972 111.666,143.146 111.094 C 143.787 108.998,142.808 105.249,142.101 107.091 M149.370 106.902 C 149.179 107.093,149.422 107.908,149.670 107.908 C 149.783 107.908,149.768 107.707,149.635 107.459 C 149.433 107.082,149.465 107.011,149.833 107.011 C 150.074 107.011,150.322 107.114,150.385 107.241 C 150.448 107.367,150.474 107.342,150.442 107.185 C 150.382 106.881,149.598 106.675,149.370 106.902 M180.268 106.995 C 180.197 107.110,180.241 107.267,180.367 107.345 C 180.492 107.422,180.595 107.379,180.595 107.248 C 180.595 106.803,181.281 107.009,181.485 107.515 C 181.609 107.825,181.693 107.886,181.702 107.672 C 181.730 106.979,180.606 106.448,180.268 106.995 M191.769 106.904 C 191.552 107.120,191.857 108.116,192.229 108.406 C 192.542 108.651,192.560 108.643,192.349 108.357 C 192.212 108.172,192.045 107.793,191.977 107.515 C 191.764 106.644,192.408 106.941,192.787 107.889 C 192.981 108.372,193.235 108.827,193.353 108.900 C 193.470 108.972,193.323 108.527,193.025 107.909 C 192.541 106.905,192.111 106.561,191.769 106.904 M205.135 107.108 C 205.068 107.280,205.057 107.708,205.109 108.057 C 205.188 108.584,205.211 108.546,205.238 107.839 C 205.258 107.333,205.364 107.041,205.496 107.123 C 205.802 107.312,205.797 114.339,205.491 114.491 C 205.364 114.553,205.390 114.579,205.547 114.547 C 206.018 114.452,206.074 107.108,205.605 106.928 C 205.408 106.853,205.202 106.931,205.135 107.108 M239.253 107.059 C 238.871 108.054,239.266 114.526,239.708 114.526 C 240.361 114.526,240.415 106.954,239.764 106.829 C 239.547 106.787,239.318 106.891,239.253 107.059 M246.692 106.964 C 246.585 107.137,248.241 109.336,249.853 111.161 C 250.992 112.450,250.460 111.698,248.604 109.395 C 247.721 108.300,246.999 107.315,246.999 107.207 C 246.999 106.926,247.307 106.965,247.673 107.291 C 247.940 107.530,247.943 107.513,247.690 107.179 C 247.379 106.768,246.879 106.661,246.692 106.964 M240.045 110.712 C 240.045 113.853,239.994 114.414,239.708 114.414 C 239.423 114.414,239.372 113.853,239.372 110.712 C 239.372 107.572,239.423 107.011,239.708 107.011 C 239.994 107.011,240.045 107.572,240.045 110.712 M167.708 107.803 C 167.469 107.984,167.393 108.132,167.540 108.132 C 167.687 108.132,167.819 108.410,167.833 108.749 C 167.853 109.216,167.885 109.257,167.967 108.918 C 168.026 108.671,168.166 108.373,168.278 108.256 C 168.860 107.643,168.401 107.279,167.708 107.803 M214.531 107.971 C 213.992 108.563,213.496 109.476,213.636 109.617 C 213.692 109.672,213.865 109.407,214.022 109.028 C 214.350 108.237,215.042 107.752,215.219 108.190 C 215.288 108.360,215.339 108.320,215.350 108.090 C 215.378 107.484,215.021 107.432,214.531 107.971 M219.630 107.705 C 219.630 107.884,219.772 107.932,220.203 107.898 C 220.271 107.893,220.530 108.120,220.777 108.403 L 221.227 108.918 220.867 108.324 C 220.515 107.744,219.630 107.301,219.630 107.705 M227.773 107.964 C 227.214 108.578,226.732 109.477,226.882 109.627 C 226.943 109.687,227.060 109.524,227.142 109.263 C 227.320 108.703,228.151 107.879,228.390 108.027 C 228.481 108.083,228.614 107.979,228.685 107.795 C 228.881 107.283,228.294 107.392,227.773 107.964 M248.121 107.565 C 248.121 107.766,249.364 109.374,250.120 110.151 C 250.572 110.616,250.555 110.558,250.022 109.815 C 249.668 109.321,249.319 108.867,249.247 108.805 C 249.175 108.744,248.892 108.402,248.618 108.046 C 248.345 107.690,248.121 107.474,248.121 107.565 M172.970 107.985 C 172.976 108.445,173.408 108.991,173.412 108.544 C 173.414 108.338,173.539 108.129,173.690 108.078 C 173.841 108.028,173.740 107.928,173.466 107.856 C 173.162 107.777,172.968 107.827,172.970 107.985 M137.298 108.051 C 137.297 108.191,137.447 108.595,137.632 108.948 C 137.816 109.301,137.968 109.476,137.968 109.336 C 137.969 109.196,137.819 108.792,137.635 108.438 C 137.450 108.085,137.299 107.911,137.298 108.051 M150.533 108.007 C 150.533 108.228,151.493 109.715,151.579 109.628 C 151.631 109.577,151.457 109.169,151.193 108.721 C 150.757 107.983,150.533 107.740,150.533 108.007 M182.184 108.900 C 182.433 109.322,182.803 109.801,183.006 109.965 C 183.208 110.129,183.047 109.784,182.647 109.198 C 181.802 107.961,181.525 107.782,182.184 108.900 M220.207 108.693 C 220.509 109.432,220.592 111.971,220.323 112.240 C 220.189 112.375,220.079 112.708,220.079 112.982 C 220.079 113.255,219.952 113.530,219.798 113.592 C 219.644 113.655,219.739 113.713,220.009 113.723 C 220.280 113.733,220.573 113.624,220.661 113.482 C 220.766 113.311,220.722 113.284,220.529 113.403 C 220.303 113.543,220.276 113.438,220.409 112.933 C 220.803 111.433,220.801 109.288,220.406 108.757 C 220.090 108.333,220.055 108.322,220.207 108.693 M136.864 109.142 C 136.864 109.265,137.008 109.619,137.185 109.927 C 137.361 110.236,137.505 110.387,137.505 110.264 C 137.505 110.140,137.361 109.787,137.185 109.478 C 137.008 109.170,136.864 109.019,136.864 109.142 M221.344 109.366 C 221.439 109.613,221.518 110.219,221.518 110.712 C 221.518 111.206,221.439 111.812,221.344 112.058 C 221.241 112.322,221.311 112.276,221.513 111.946 C 221.703 111.638,221.857 111.082,221.857 110.712 C 221.857 110.342,221.703 109.787,221.513 109.478 C 221.311 109.148,221.241 109.102,221.344 109.366 M173.500 110.712 C 173.500 111.606,173.568 112.059,173.666 111.810 C 173.758 111.576,173.833 111.082,173.833 110.712 C 173.833 110.342,173.758 109.848,173.666 109.615 C 173.568 109.366,173.500 109.819,173.500 110.712 M227.782 110.824 C 227.782 111.750,227.821 112.128,227.870 111.666 C 227.918 111.203,227.918 110.446,227.870 109.983 C 227.821 109.520,227.782 109.899,227.782 110.824 M167.510 110.122 C 167.439 110.476,167.465 111.056,167.567 111.412 C 167.719 111.944,167.754 111.830,167.763 110.768 C 167.776 109.339,167.704 109.154,167.510 110.122 M182.623 110.937 C 183.151 111.800,183.730 112.658,183.910 112.844 C 184.089 113.029,183.805 112.473,183.277 111.610 C 182.749 110.746,182.170 109.888,181.991 109.703 C 181.811 109.518,182.096 110.073,182.623 110.937 M214.542 110.824 C 214.542 111.626,214.583 111.955,214.632 111.554 C 214.682 111.153,214.682 110.496,214.632 110.095 C 214.583 109.694,214.542 110.022,214.542 110.824 M137.977 109.762 C 137.973 109.856,138.060 110.108,138.171 110.323 C 138.282 110.537,138.552 111.146,138.771 111.677 C 138.990 112.207,139.254 112.693,139.356 112.756 C 139.563 112.884,139.114 111.736,138.824 111.397 C 138.725 111.279,138.643 111.021,138.643 110.822 C 138.643 110.467,137.991 109.429,137.977 109.762 M174.598 110.600 C 174.598 111.155,174.642 111.383,174.696 111.105 C 174.749 110.827,174.749 110.373,174.696 110.095 C 174.642 109.818,174.598 110.045,174.598 110.600 M226.616 110.838 C 226.596 111.475,226.717 112.024,226.938 112.296 C 227.132 112.535,227.209 112.580,227.110 112.395 C 227.010 112.210,226.866 111.554,226.788 110.937 L 226.648 109.815 226.616 110.838 M193.304 110.376 C 193.447 110.561,193.610 110.965,193.666 111.273 L 193.770 111.834 193.800 111.245 C 193.817 110.920,193.654 110.517,193.438 110.347 C 193.096 110.079,193.079 110.083,193.304 110.376 M183.287 110.478 C 183.287 110.568,183.489 110.898,183.735 111.212 C 183.982 111.526,184.184 111.709,184.184 111.619 C 184.184 111.529,183.982 111.199,183.735 110.886 C 183.489 110.572,183.287 110.389,183.287 110.478 M152.404 112.731 C 152.405 113.718,152.445 114.094,152.492 113.567 C 152.539 113.039,152.539 112.231,152.491 111.772 C 152.442 111.313,152.404 111.744,152.404 112.731 M194.771 112.787 C 194.716 114.851,193.925 115.294,193.769 113.348 L 193.683 112.283 193.701 113.404 C 193.716 114.391,193.779 114.535,194.224 114.598 C 194.879 114.691,194.993 114.349,194.895 112.596 L 194.814 111.161 194.771 112.787 M151.722 112.619 C 151.722 113.298,151.764 113.575,151.815 113.236 C 151.867 112.897,151.867 112.342,151.815 112.002 C 151.764 111.663,151.722 111.941,151.722 112.619 M205.104 112.507 C 205.107 113.001,205.153 113.176,205.206 112.897 C 205.260 112.618,205.258 112.214,205.202 112.000 C 205.146 111.785,205.102 112.013,205.104 112.507 M166.689 112.227 C 166.687 112.443,166.780 112.619,166.895 112.619 C 167.010 112.619,167.160 112.796,167.229 113.012 C 167.363 113.437,168.226 114.069,168.414 113.881 C 168.477 113.818,168.392 113.456,168.224 113.075 C 167.938 112.427,167.912 112.415,167.800 112.881 C 167.688 113.348,167.651 113.331,167.187 112.606 C 166.857 112.091,166.692 111.965,166.689 112.227 M184.654 112.619 C 185.304 113.626,185.306 113.629,185.305 113.386 C 185.304 113.273,185.043 112.877,184.725 112.507 L 184.147 111.834 184.654 112.619 M213.580 112.063 C 213.576 112.189,213.884 112.670,214.264 113.131 C 214.914 113.920,215.372 114.051,215.364 113.447 C 215.362 113.265,215.300 113.275,215.171 113.479 C 215.018 113.720,214.955 113.709,214.845 113.423 C 214.770 113.228,214.812 113.068,214.939 113.068 C 215.066 113.068,215.100 112.956,215.016 112.820 C 214.909 112.646,214.798 112.663,214.649 112.876 C 214.505 113.081,214.402 113.099,214.333 112.931 C 214.142 112.471,213.587 111.832,213.580 112.063 M251.298 113.115 C 252.131 114.290,252.478 114.366,252.531 113.387 C 252.556 112.930,252.535 112.884,252.460 113.236 C 252.318 113.904,252.248 113.884,251.332 112.900 L 250.550 112.058 251.298 113.115 M173.025 113.223 C 172.673 113.980,172.800 114.107,173.451 113.652 C 173.733 113.454,173.848 113.292,173.706 113.292 C 173.565 113.292,173.416 113.142,173.376 112.959 C 173.328 112.739,173.208 112.829,173.025 113.223 M227.938 112.743 C 227.934 112.872,228.056 113.103,228.209 113.257 C 228.431 113.479,228.419 113.578,228.153 113.747 C 227.869 113.926,227.878 113.959,228.211 113.962 C 228.427 113.964,228.603 113.833,228.603 113.672 C 228.603 113.319,227.948 112.404,227.938 112.743 M138.643 113.564 C 138.643 113.661,138.845 113.741,139.091 113.741 C 139.338 113.741,139.540 113.646,139.540 113.530 C 139.540 113.415,139.338 113.335,139.091 113.354 C 138.845 113.372,138.643 113.467,138.643 113.564 M184.515 113.909 C 184.731 114.355,185.035 114.638,185.298 114.638 C 185.904 114.638,186.044 114.295,185.584 113.935 C 185.231 113.658,185.223 113.666,185.501 114.021 C 185.774 114.369,185.754 114.414,185.333 114.414 C 185.071 114.414,184.857 114.332,184.857 114.232 C 184.857 114.133,184.701 113.855,184.510 113.616 C 184.203 113.231,184.203 113.265,184.515 113.909 M137.870 122.252 C 137.434 122.734,137.568 123.165,138.151 123.160 C 138.458 123.157,138.470 123.118,138.217 122.958 C 138.017 122.831,137.965 122.610,138.073 122.345 C 138.236 121.945,138.248 121.946,138.403 122.362 C 138.551 122.758,138.867 122.451,138.867 121.911 C 138.867 121.648,138.215 121.871,137.870 122.252 M120.247 125.182 C 120.247 125.306,120.133 125.407,119.993 125.407 C 119.713 125.407,118.393 126.741,117.843 127.579 C 117.376 128.293,117.685 128.559,118.170 127.861 C 118.380 127.560,119.075 126.784,119.716 126.136 C 120.357 125.488,120.738 124.958,120.564 124.958 C 120.389 124.958,120.247 125.059,120.247 125.182 M117.208 129.228 C 117.202 129.701,117.278 130.038,117.376 129.977 C 117.603 129.837,117.611 128.608,117.386 128.471 C 117.294 128.414,117.213 128.755,117.208 129.228 " stroke="none" fill="#4c4c46" fill-rule="evenodd"></path><path id="path4" d="M240.157 110.712 C 240.157 112.848,240.233 114.549,240.325 114.491 C 240.418 114.434,240.494 112.734,240.494 110.712 C 240.494 108.691,240.418 106.990,240.325 106.933 C 240.233 106.876,240.157 108.577,240.157 110.712 M172.760 107.852 C 172.770 108.068,172.827 108.124,172.887 107.977 C 172.947 107.829,173.166 107.763,173.374 107.830 C 173.697 107.933,173.703 107.915,173.416 107.708 C 172.933 107.361,172.740 107.403,172.760 107.852 M166.522 110.600 C 166.522 111.155,166.566 111.383,166.619 111.105 C 166.673 110.827,166.673 110.373,166.619 110.095 C 166.566 109.818,166.522 110.045,166.522 110.600 M213.416 110.824 C 213.416 111.503,213.458 111.781,213.509 111.441 C 213.560 111.102,213.560 110.547,213.509 110.208 C 213.458 109.868,213.416 110.146,213.416 110.824 M143.191 111.722 C 143.191 112.277,143.234 112.504,143.288 112.227 C 143.341 111.949,143.341 111.495,143.288 111.217 C 143.234 110.939,143.191 111.167,143.191 111.722 M142.060 112.170 C 142.060 112.602,142.106 112.779,142.162 112.563 C 142.219 112.347,142.219 111.994,142.162 111.778 C 142.106 111.562,142.060 111.739,142.060 112.170 M252.552 113.634 C 252.448 114.180,252.469 114.201,252.794 113.876 C 253.048 113.621,253.081 113.451,252.908 113.278 C 252.735 113.105,252.634 113.207,252.552 113.634 M142.083 113.963 C 142.108 114.342,142.264 114.536,142.569 114.567 C 142.892 114.600,142.911 114.581,142.639 114.499 C 142.430 114.437,142.212 114.165,142.153 113.895 C 142.064 113.484,142.052 113.495,142.083 113.963 M133.427 119.063 C 133.828 119.113,134.484 119.113,134.885 119.063 C 135.286 119.013,134.958 118.973,134.156 118.973 C 133.354 118.973,133.026 119.013,133.427 119.063 M128.772 120.247 C 128.500 120.423,128.532 120.465,128.940 120.468 C 129.218 120.470,129.445 120.370,129.445 120.247 C 129.445 119.966,129.207 119.966,128.772 120.247 M127.201 120.976 C 127.201 121.068,127.397 121.144,127.637 121.144 C 127.876 121.144,128.119 121.068,128.176 120.976 C 128.233 120.883,128.037 120.808,127.741 120.808 C 127.444 120.808,127.201 120.883,127.201 120.976 M125.977 121.353 C 125.828 121.594,126.267 121.929,126.468 121.727 C 126.543 121.653,126.460 121.583,126.285 121.570 C 126.110 121.558,126.220 121.467,126.528 121.368 C 127.050 121.201,127.055 121.187,126.598 121.167 C 126.327 121.154,126.048 121.238,125.977 121.353 M138.095 121.796 C 138.026 121.908,138.188 121.942,138.456 121.872 C 138.863 121.766,138.916 121.815,138.779 122.174 C 138.655 122.501,138.679 122.540,138.879 122.341 C 139.024 122.198,139.074 121.971,138.991 121.837 C 138.808 121.541,138.268 121.516,138.095 121.796 M123.836 122.728 C 123.836 122.984,124.439 123.010,124.593 122.761 C 124.653 122.663,124.508 122.569,124.269 122.551 C 124.031 122.533,123.836 122.613,123.836 122.728 M121.958 123.790 C 121.898 123.887,122.043 123.982,122.281 124.000 C 122.520 124.018,122.715 123.938,122.715 123.822 C 122.715 123.567,122.112 123.541,121.958 123.790 M120.695 124.734 C 120.396 124.927,120.396 124.952,120.695 124.958 C 120.990 124.964,120.991 124.991,120.701 125.174 C 120.483 125.312,120.313 125.291,120.200 125.114 C 119.993 124.789,119.971 125.011,120.160 125.505 C 120.277 125.809,120.382 125.775,120.833 125.288 C 121.558 124.506,121.487 124.222,120.695 124.734 " stroke="none" fill="#5c5454" fill-rule="evenodd"></path></g></svg>