<svg xmlns="http://www.w3.org/2000/svg" xmlns:xlink="http://www.w3.org/1999/xlink" width="1080" zoomAndPan="magnify" viewBox="0 0 810 809.999993" height="1080" preserveAspectRatio="xMidYMid meet" version="1.0"><path fill="#bc4749" d="M 291.328125 56.363281 C 291.320312 55.855469 291.363281 55.355469 291.453125 54.855469 C 291.542969 54.355469 291.683594 53.871094 291.871094 53.398438 C 292.058594 52.925781 292.289062 52.476562 292.5625 52.050781 C 292.839844 51.625 293.152344 51.230469 293.507812 50.867188 C 293.859375 50.503906 294.246094 50.175781 294.664062 49.886719 C 295.082031 49.601562 295.523438 49.355469 295.988281 49.152344 C 296.453125 48.953125 296.933594 48.796875 297.429688 48.691406 C 297.925781 48.585938 298.429688 48.527344 298.9375 48.519531 L 374.03125 47.375 C 374.539062 47.367188 375.042969 47.40625 375.542969 47.5 C 376.042969 47.589844 376.527344 47.726562 377 47.914062 C 377.472656 48.101562 377.921875 48.332031 378.347656 48.609375 C 378.777344 48.882812 379.171875 49.199219 379.535156 49.550781 C 379.902344 49.90625 380.226562 50.289062 380.515625 50.707031 C 380.804688 51.125 381.050781 51.566406 381.253906 52.035156 C 381.453125 52.5 381.609375 52.980469 381.714844 53.476562 C 381.820312 53.972656 381.878906 54.476562 381.886719 54.984375 C 381.894531 55.492188 381.851562 55.996094 381.761719 56.496094 C 381.667969 56.996094 381.53125 57.480469 381.34375 57.953125 C 381.15625 58.425781 380.921875 58.875 380.648438 59.300781 C 380.371094 59.726562 380.058594 60.121094 379.703125 60.488281 C 379.347656 60.851562 378.964844 61.175781 378.542969 61.464844 C 378.125 61.753906 377.683594 61.996094 377.21875 62.199219 C 376.75 62.398438 376.269531 62.554688 375.773438 62.660156 C 375.277344 62.765625 374.773438 62.820312 374.265625 62.828125 L 299.171875 63.976562 L 299.050781 63.976562 C 298.550781 63.972656 298.050781 63.925781 297.558594 63.828125 C 297.066406 63.730469 296.585938 63.585938 296.121094 63.398438 C 295.65625 63.207031 295.214844 62.972656 294.796875 62.695312 C 294.375 62.417969 293.988281 62.105469 293.628906 61.75 C 293.273438 61.398438 292.953125 61.015625 292.667969 60.601562 C 292.386719 60.183594 292.144531 59.746094 291.949219 59.285156 C 291.75 58.824219 291.601562 58.347656 291.496094 57.855469 C 291.390625 57.363281 291.335938 56.867188 291.328125 56.363281 Z M 314.808594 412.625 C 314.808594 412.632812 314.808594 412.644531 314.808594 412.65625 C 314.792969 413 314.753906 413.34375 314.691406 413.679688 C 314.285156 418.429688 315.492188 424.335938 319.703125 431.546875 C 357.078125 495.597656 428.359375 608.457031 450.238281 633.117188 C 450.578125 633.496094 450.875 633.90625 451.136719 634.34375 C 451.394531 634.78125 451.609375 635.242188 451.777344 635.722656 C 451.945312 636.203125 452.066406 636.695312 452.136719 637.199219 C 452.210938 637.703125 452.230469 638.210938 452.203125 638.71875 C 452.171875 639.226562 452.09375 639.730469 451.964844 640.222656 C 451.839844 640.714844 451.664062 641.191406 451.441406 641.648438 C 451.21875 642.105469 450.957031 642.539062 450.648438 642.945312 C 450.339844 643.351562 449.996094 643.722656 449.613281 644.0625 C 449.234375 644.398438 448.824219 644.695312 448.382812 644.953125 C 447.945312 645.210938 447.484375 645.421875 447 645.585938 C 446.519531 645.753906 446.027344 645.871094 445.523438 645.9375 C 445.015625 646.007812 444.511719 646.023438 444.003906 645.992188 C 443.496094 645.960938 442.992188 645.878906 442.5 645.75 C 442.007812 645.617188 441.535156 645.441406 441.078125 645.214844 C 440.621094 644.992188 440.191406 644.722656 439.785156 644.414062 C 439.382812 644.101562 439.011719 643.757812 438.675781 643.375 C 430.085938 633.6875 414.886719 612.054688 397.257812 585.40625 C 386.148438 599.441406 381.09375 614.667969 382.273438 630.796875 C 384.507812 661.304688 408.648438 690.011719 430.511719 706.703125 C 449.777344 721.417969 470.414062 730.082031 490.367188 738.464844 C 520.125 750.960938 550.898438 763.886719 577.574219 796.492188 C 577.894531 796.886719 578.175781 797.304688 578.414062 797.753906 C 578.648438 798.203125 578.839844 798.667969 578.988281 799.152344 C 579.132812 799.640625 579.230469 800.132812 579.277344 800.636719 C 579.328125 801.144531 579.324219 801.648438 579.273438 802.152344 C 579.222656 802.65625 579.125 803.152344 578.976562 803.636719 C 578.828125 804.121094 578.632812 804.585938 578.394531 805.03125 C 578.15625 805.480469 577.875 805.898438 577.550781 806.289062 C 577.230469 806.679688 576.871094 807.035156 576.480469 807.359375 C 576.085938 807.679688 575.667969 807.957031 575.222656 808.195312 C 574.773438 808.433594 574.308594 808.628906 573.820312 808.773438 C 573.335938 808.921875 572.84375 809.019531 572.335938 809.066406 C 571.832031 809.117188 571.328125 809.117188 570.824219 809.066406 C 570.320312 809.015625 569.824219 808.917969 569.339844 808.769531 C 568.855469 808.625 568.390625 808.429688 567.941406 808.191406 C 567.496094 807.953125 567.074219 807.671875 566.683594 807.351562 C 566.292969 807.027344 565.933594 806.671875 565.613281 806.28125 C 541.371094 776.648438 513.6875 765.023438 484.386719 752.714844 C 463.53125 743.957031 441.96875 734.902344 421.125 718.984375 C 407.296875 708.464844 395.449219 696.050781 385.582031 681.746094 C 380.597656 674.488281 376.460938 666.777344 373.167969 658.613281 C 356.195312 658.867188 336.304688 658.9375 312.574219 658.832031 C 298.585938 658.765625 285.710938 658.921875 273.257812 659.070312 C 264.226562 659.171875 255.601562 659.273438 247.382812 659.273438 C 195.097656 659.273438 159.105469 655.140625 135.722656 621.820312 C 115.902344 593.570312 115.585938 563.109375 115.25 530.863281 C 115.183594 524.578125 115.117188 518.078125 114.894531 511.597656 C 112.972656 455.285156 111.921875 361.007812 110.910156 269.832031 C 110.65625 247.246094 110.40625 224.648438 110.140625 202.5625 C 110.078125 197.222656 109.957031 191.757812 109.832031 185.972656 C 108.875 142.742188 107.6875 88.933594 132.355469 53.421875 C 158.226562 16.175781 199.234375 9.085938 239.015625 5.015625 C 288.261719 -0.0117188 325.082031 0.324219 388.984375 2.972656 C 392.71875 3.128906 396.347656 3.277344 399.875 3.417969 C 473.796875 6.40625 507.539062 7.765625 529.867188 47.359375 C 546.6875 77.179688 548.351562 123.050781 547.644531 168.179688 C 547.089844 203.9375 547.515625 254.914062 547.96875 308.886719 C 548.460938 367.855469 548.972656 428.832031 548.097656 469.09375 C 548.03125 472.378906 547.96875 475.601562 547.914062 478.753906 C 549.835938 478.417969 551.777344 478.226562 553.730469 478.175781 C 568.75 477.839844 584.457031 484.964844 597.921875 498.277344 C 605.824219 506.097656 612.222656 515.039062 618.40625 523.683594 C 620.730469 526.933594 623.132812 530.292969 625.542969 533.484375 C 633.21875 543.644531 640.675781 554.03125 647.886719 564.074219 C 666.207031 589.582031 683.507812 613.675781 699.097656 626.578125 C 699.492188 626.902344 699.847656 627.257812 700.171875 627.652344 C 700.492188 628.046875 700.773438 628.46875 701.011719 628.917969 C 701.25 629.367188 701.441406 629.832031 701.589844 630.320312 C 701.734375 630.808594 701.832031 631.304688 701.882812 631.808594 C 701.929688 632.316406 701.929688 632.820312 701.878906 633.328125 C 701.824219 633.832031 701.726562 634.328125 701.578125 634.8125 C 701.425781 635.300781 701.230469 635.765625 700.992188 636.214844 C 700.75 636.660156 700.464844 637.082031 700.140625 637.472656 C 699.816406 637.863281 699.460938 638.21875 699.066406 638.539062 C 698.671875 638.863281 698.25 639.140625 697.800781 639.378906 C 697.347656 639.617188 696.882812 639.808594 696.394531 639.953125 C 695.90625 640.097656 695.410156 640.191406 694.902344 640.238281 C 694.398438 640.285156 693.890625 640.285156 693.386719 640.230469 C 692.882812 640.179688 692.386719 640.078125 691.898438 639.925781 C 691.414062 639.773438 690.949219 639.578125 690.5 639.335938 C 690.054688 639.09375 689.636719 638.808594 689.246094 638.484375 C 672.117188 624.308594 654.25 599.429688 635.335938 573.085938 C 628.175781 563.117188 620.773438 552.808594 613.214844 542.796875 C 610.679688 539.445312 608.21875 536 605.835938 532.671875 C 599.757812 524.179688 594.023438 516.15625 587.050781 509.261719 C 581 503.273438 568.660156 493.261719 554.089844 493.621094 C 550.644531 493.703125 547.347656 494.445312 544.199219 495.851562 C 543.691406 496.175781 543.15625 496.4375 542.585938 496.636719 C 535.914062 500.195312 531.535156 506.363281 531.042969 512.179688 C 531.007812 512.617188 530.933594 513.046875 530.824219 513.46875 C 530.710938 513.894531 530.566406 514.304688 530.386719 514.707031 C 530.207031 515.105469 529.996094 515.484375 529.75 515.847656 C 529.503906 516.210938 529.230469 516.550781 528.929688 516.867188 C 528.625 517.183594 528.296875 517.472656 527.945312 517.734375 C 527.59375 517.996094 527.222656 518.222656 526.832031 518.421875 C 526.441406 518.621094 526.039062 518.785156 525.621094 518.914062 C 525.199219 519.042969 524.773438 519.132812 524.339844 519.191406 C 523.90625 519.246094 523.46875 519.265625 523.03125 519.25 C 522.59375 519.230469 522.160156 519.175781 521.734375 519.085938 C 521.304688 518.992188 520.886719 518.867188 520.480469 518.703125 C 520.074219 518.542969 519.683594 518.347656 519.308594 518.117188 C 518.9375 517.890625 518.585938 517.632812 518.253906 517.34375 C 517.925781 517.054688 517.625 516.742188 517.347656 516.402344 C 517.070312 516.0625 516.824219 515.699219 516.609375 515.320312 C 516.394531 514.9375 516.214844 514.539062 516.066406 514.128906 C 511.84375 502.324219 498.777344 494.117188 486.308594 495.441406 C 473.839844 496.765625 462.792969 507.546875 461.152344 519.972656 C 461.054688 520.703125 460.859375 521.40625 460.5625 522.082031 C 460.265625 522.753906 459.878906 523.375 459.40625 523.9375 C 458.929688 524.5 458.386719 524.988281 457.773438 525.394531 C 457.160156 525.804688 456.503906 526.117188 455.800781 526.335938 C 455.097656 526.558594 454.378906 526.675781 453.640625 526.6875 C 452.902344 526.703125 452.179688 526.613281 451.46875 526.421875 C 450.757812 526.226562 450.089844 525.941406 449.460938 525.554688 C 448.832031 525.171875 448.269531 524.707031 447.773438 524.160156 C 444.042969 520.054688 430.726562 503.078125 413.871094 481.589844 C 391.75 453.386719 364.21875 418.289062 351.054688 403.082031 C 343.632812 394.503906 329.238281 394.351562 322.273438 399.941406 C 320.257812 401.492188 318.605469 403.367188 317.3125 405.558594 C 316.023438 407.753906 315.1875 410.109375 314.808594 412.625 Z M 370.519531 602.160156 C 361.109375 602.328125 351.722656 602.5 342.363281 602.675781 C 303.917969 603.386719 264.164062 604.125 221.46875 604.445312 C 220.261719 604.453125 219.007812 604.464844 217.714844 604.464844 C 206.140625 604.464844 191.625 603.730469 180.101562 595.453125 C 161.320312 581.957031 160.128906 556.984375 160.492188 534.632812 C 161.214844 488.992188 160.53125 435.867188 159.800781 379.613281 C 158.761719 299.195312 157.6875 216.042969 160.445312 141.179688 C 161.128906 122.746094 164.792969 109.476562 171.644531 100.605469 C 182.332031 86.78125 197.109375 86.375 208.980469 86.046875 C 210.394531 86.007812 211.796875 85.96875 213.175781 85.90625 C 213.28125 85.90625 213.382812 85.898438 213.492188 85.898438 C 241.765625 85.804688 277.53125 85.296875 312.117188 84.804688 C 369.371094 83.992188 423.453125 83.222656 447.777344 84.144531 C 456.921875 84.496094 468.300781 84.929688 478.023438 90.746094 C 497.253906 102.238281 499.796875 126.292969 499.75 148.300781 C 499.617188 213.550781 500.222656 286.40625 500.804688 356.859375 C 501.152344 398.246094 501.503906 440.957031 501.707031 481.832031 C 505.578125 483.035156 509.226562 484.71875 512.652344 486.886719 C 516.078125 489.050781 519.164062 491.625 521.910156 494.605469 C 524.789062 490.699219 528.273438 487.4375 532.363281 484.820312 C 532.433594 479.6875 532.527344 474.308594 532.648438 468.765625 C 533.515625 428.730469 533.007812 367.875 532.515625 309.019531 C 532.0625 254.953125 531.632812 203.882812 532.195312 167.941406 C 532.867188 124.984375 531.417969 81.566406 516.40625 54.953125 C 499.078125 24.230469 476.140625 21.96875 399.25 18.859375 C 395.71875 18.71875 392.082031 18.570312 388.347656 18.417969 C 325.203125 15.796875 288.886719 15.460938 240.585938 20.390625 C 202.878906 24.25 167.195312 30.355469 145.046875 62.238281 C 123.246094 93.621094 124.328125 142.503906 125.28125 185.632812 C 125.410156 191.460938 125.53125 196.964844 125.589844 202.378906 C 125.855469 224.46875 126.105469 247.070312 126.355469 269.664062 C 127.367188 360.75 128.417969 454.9375 130.335938 511.074219 C 130.5625 517.734375 130.628906 524.328125 130.699219 530.703125 C 131.019531 561.777344 131.296875 588.617188 148.367188 612.945312 C 170.742188 644.824219 209.257812 644.367188 273.070312 643.613281 C 285.585938 643.464844 298.519531 643.308594 312.640625 643.375 C 334.222656 643.480469 352.601562 643.425781 368.484375 643.21875 C 367.6875 639.492188 367.144531 635.726562 366.859375 631.921875 C 366.46875 626.890625 366.582031 621.867188 367.199219 616.855469 C 367.816406 611.847656 368.921875 606.945312 370.519531 602.15625 Z M 306.355469 439.335938 C 302.667969 433.289062 300.367188 426.753906 299.453125 419.726562 C 294.25 419.472656 288.671875 419.160156 282.351562 418.773438 C 256.902344 417.203125 228.464844 412.398438 210.546875 388.660156 C 200.6875 375.605469 196.691406 358.726562 199.28125 341.132812 C 199.96875 336.328125 201.117188 331.632812 202.726562 327.054688 C 204.339844 322.472656 206.382812 318.09375 208.863281 313.917969 C 211.339844 309.742188 214.199219 305.847656 217.445312 302.238281 C 220.691406 298.628906 224.261719 295.371094 228.148438 292.464844 C 255.3125 272.605469 285.015625 268.480469 321.257812 268.398438 C 324.546875 268.390625 327.863281 268.371094 331.203125 268.339844 C 358.203125 268.136719 386.128906 267.921875 412.351562 276.824219 C 441.128906 286.613281 461.097656 311.90625 462.046875 339.773438 C 462.957031 366.652344 450.300781 390.808594 429.027344 402.816406 C 414.015625 411.296875 397.542969 415.28125 382.859375 417.417969 C 396.175781 434.007812 412.160156 454.382812 426.027344 472.0625 C 435.300781 483.890625 444.269531 495.320312 450.652344 503.324219 C 457.46875 490.8125 470.292969 481.617188 484.671875 480.085938 C 485.195312 480.03125 485.71875 480.003906 486.246094 479.972656 C 486.039062 439.710938 485.691406 397.710938 485.355469 356.988281 C 484.769531 286.492188 484.164062 213.597656 484.296875 148.269531 C 484.335938 130.605469 482.679688 111.53125 470.09375 104.011719 C 463.761719 100.222656 454.957031 99.890625 447.1875 99.589844 C 423.269531 98.683594 366.875 99.484375 312.335938 100.257812 C 277.773438 100.75 242.035156 101.257812 213.703125 101.355469 C 212.289062 101.414062 210.855469 101.457031 209.410156 101.496094 C 199.039062 101.78125 190.082031 102.027344 183.871094 110.058594 C 179.128906 116.199219 176.441406 126.863281 175.890625 141.75 C 173.144531 216.226562 174.21875 299.1875 175.257812 379.417969 C 175.984375 435.78125 176.671875 489.023438 175.945312 534.882812 C 175.636719 554.171875 176.394531 573.765625 189.121094 582.90625 C 197.179688 588.695312 208.488281 589.09375 221.355469 588.996094 C 263.96875 588.671875 303.675781 587.9375 342.078125 587.226562 C 353.910156 587.007812 365.753906 586.789062 377.679688 586.582031 C 380.792969 581.355469 384.359375 576.460938 388.386719 571.898438 C 360.078125 528.445312 327.605469 475.746094 306.355469 439.332031 Z M 337.421875 380.816406 C 339.832031 380.9375 342.203125 381.296875 344.539062 381.890625 C 346.875 382.484375 349.132812 383.300781 351.304688 384.347656 C 353.476562 385.390625 355.527344 386.636719 357.453125 388.089844 C 359.375 389.542969 361.140625 391.171875 362.738281 392.972656 C 365.183594 395.796875 368.109375 399.285156 371.378906 403.261719 C 386.699219 401.660156 405.355469 398.433594 421.429688 389.355469 C 437.671875 380.183594 447.316406 361.390625 446.601562 340.296875 C 445.871094 318.8125 430.109375 299.1875 407.382812 291.460938 C 383.636719 283.398438 357.039062 283.601562 331.320312 283.796875 C 327.953125 283.824219 324.609375 283.851562 321.292969 283.859375 C 288.070312 283.933594 261.066406 287.546875 237.273438 304.941406 C 225.320312 313.6875 216.832031 328.058594 214.574219 343.390625 C 212.589844 356.855469 215.539062 369.628906 222.878906 379.355469 C 237.027344 398.089844 261.363281 402 283.300781 403.351562 C 289.886719 403.757812 295.652344 404.074219 301.015625 404.335938 C 302.121094 401.097656 303.660156 398.082031 305.632812 395.289062 C 307.601562 392.492188 309.921875 390.027344 312.597656 387.898438 C 318.996094 382.757812 328.042969 380.179688 337.421875 380.8125 Z M 300.429688 342.195312 C 294.179688 353.53125 281.042969 359.265625 264.539062 358.191406 L 263.089844 375.714844 C 263.050781 376.191406 262.964844 376.664062 262.839844 377.125 C 262.710938 377.589844 262.542969 378.039062 262.332031 378.46875 C 262.121094 378.898438 261.871094 379.308594 261.585938 379.695312 C 261.296875 380.078125 260.976562 380.433594 260.625 380.757812 C 260.273438 381.085938 259.890625 381.375 259.484375 381.628906 C 259.078125 381.882812 258.652344 382.097656 258.203125 382.273438 C 257.757812 382.449219 257.296875 382.582031 256.824219 382.671875 C 256.351562 382.757812 255.878906 382.804688 255.398438 382.804688 C 255.183594 382.804688 254.96875 382.796875 254.75 382.777344 C 254.246094 382.734375 253.75 382.644531 253.261719 382.503906 C 252.773438 382.367188 252.304688 382.179688 251.851562 381.949219 C 251.402344 381.714844 250.976562 381.441406 250.578125 381.125 C 250.183594 380.808594 249.820312 380.460938 249.492188 380.070312 C 249.164062 379.683594 248.878906 379.269531 248.632812 378.824219 C 248.386719 378.382812 248.183594 377.917969 248.03125 377.4375 C 247.875 376.953125 247.769531 376.457031 247.710938 375.953125 C 247.652344 375.449219 247.644531 374.945312 247.6875 374.441406 L 252.386719 317.671875 C 252.457031 316.832031 252.660156 316.023438 252.992188 315.25 C 253.328125 314.472656 253.777344 313.773438 254.339844 313.144531 C 254.90625 312.515625 255.554688 311.996094 256.289062 311.582031 C 257.023438 311.167969 257.808594 310.878906 258.636719 310.722656 C 269.296875 308.683594 278.203125 308.617188 286.675781 310.515625 C 288.230469 310.871094 289.726562 311.40625 291.15625 312.113281 C 292.589844 312.824219 293.917969 313.6875 295.148438 314.710938 C 296.375 315.730469 297.46875 316.882812 298.429688 318.160156 C 299.386719 319.4375 300.183594 320.808594 300.820312 322.273438 C 303.753906 328.800781 303.605469 336.433594 300.429688 342.191406 Z M 286.726562 328.621094 C 286.4375 327.863281 285.988281 327.21875 285.378906 326.683594 C 284.769531 326.148438 284.074219 325.785156 283.285156 325.597656 C 277.984375 324.480469 272.652344 324.28125 267.285156 325.003906 L 265.816406 342.761719 C 274.414062 343.222656 283.257812 341.320312 286.894531 334.730469 C 287.296875 333.746094 287.484375 332.722656 287.457031 331.65625 C 287.425781 330.59375 287.183594 329.578125 286.726562 328.617188 Z M 331.117188 366.667969 C 327.695312 366.707031 324.203125 366.742188 320.816406 366.707031 C 319.671875 370.585938 318.558594 374.402344 317.535156 378.027344 C 317.398438 378.515625 317.214844 378.988281 316.984375 379.445312 C 316.757812 379.898438 316.484375 380.324219 316.171875 380.726562 C 315.855469 381.128906 315.507812 381.492188 315.121094 381.824219 C 314.734375 382.15625 314.320312 382.445312 313.875 382.695312 C 313.433594 382.945312 312.96875 383.148438 312.484375 383.308594 C 312 383.464844 311.507812 383.574219 311 383.636719 C 310.496094 383.695312 309.988281 383.707031 309.480469 383.664062 C 308.972656 383.625 308.476562 383.535156 307.984375 383.398438 C 307.496094 383.257812 307.023438 383.074219 306.570312 382.84375 C 306.117188 382.609375 305.691406 382.335938 305.292969 382.019531 C 304.894531 381.707031 304.527344 381.351562 304.199219 380.964844 C 303.871094 380.578125 303.582031 380.160156 303.332031 379.714844 C 303.085938 379.269531 302.886719 378.804688 302.730469 378.320312 C 302.574219 377.835938 302.46875 377.339844 302.410156 376.835938 C 302.351562 376.332031 302.34375 375.824219 302.386719 375.316406 C 302.429688 374.808594 302.523438 374.3125 302.664062 373.820312 C 304.761719 366.402344 307.195312 358.265625 309.550781 350.398438 C 311.886719 342.589844 314.300781 334.515625 316.367188 327.207031 C 317.164062 323.703125 318.625 320.503906 320.753906 317.609375 C 324.507812 312.9375 330.542969 310.914062 335.757812 312.582031 C 342.953125 314.878906 345.066406 322.335938 345.859375 325.144531 C 348.011719 332.726562 350.511719 341.082031 352.929688 349.164062 C 355.363281 357.300781 357.882812 365.710938 360.0625 373.402344 C 360.199219 373.890625 360.289062 374.390625 360.328125 374.894531 C 360.371094 375.398438 360.359375 375.90625 360.300781 376.410156 C 360.242188 376.914062 360.136719 377.40625 359.980469 377.890625 C 359.824219 378.371094 359.621094 378.835938 359.375 379.277344 C 359.125 379.71875 358.839844 380.136719 358.507812 380.523438 C 358.179688 380.90625 357.816406 381.257812 357.417969 381.574219 C 357.019531 381.886719 356.59375 382.160156 356.144531 382.390625 C 355.691406 382.621094 355.222656 382.808594 354.734375 382.945312 C 354.246094 383.082031 353.75 383.171875 353.242188 383.214844 C 352.738281 383.253906 352.230469 383.246094 351.726562 383.183594 C 351.222656 383.125 350.730469 383.019531 350.25 382.863281 C 349.765625 382.707031 349.300781 382.503906 348.859375 382.257812 C 348.417969 382.011719 348.003906 381.722656 347.617188 381.394531 C 347.230469 381.0625 346.878906 380.699219 346.5625 380.300781 C 346.25 379.902344 345.976562 379.480469 345.746094 379.027344 C 345.515625 378.574219 345.332031 378.105469 345.191406 377.617188 C 344.191406 374.089844 343.117188 370.394531 342.007812 366.640625 C 338.507812 366.585938 334.769531 366.625 331.121094 366.664062 Z M 337.394531 351.167969 C 335.347656 344.3125 333.269531 337.339844 331.40625 330.820312 L 331.238281 331.414062 C 329.457031 337.71875 327.429688 344.535156 325.417969 351.265625 C 327.257812 351.257812 329.113281 351.238281 330.945312 351.214844 C 333.085938 351.1875 335.25 351.167969 337.398438 351.160156 Z M 374.214844 339.015625 C 377.210938 342.84375 380.304688 346.800781 383.6875 351.039062 C 383.957031 356.292969 383.988281 360.304688 384.015625 364.890625 C 384.039062 368.121094 384.0625 371.460938 384.167969 375.632812 C 384.183594 376.132812 384.242188 376.625 384.351562 377.113281 C 384.460938 377.597656 384.613281 378.070312 384.8125 378.527344 C 385.011719 378.984375 385.253906 379.417969 385.539062 379.828125 C 385.824219 380.238281 386.144531 380.617188 386.5 380.964844 C 386.855469 381.3125 387.246094 381.625 387.660156 381.898438 C 388.078125 382.171875 388.519531 382.402344 388.980469 382.589844 C 389.441406 382.777344 389.917969 382.921875 390.40625 383.015625 C 390.898438 383.113281 391.390625 383.160156 391.890625 383.160156 L 392.097656 383.160156 C 392.605469 383.148438 393.105469 383.085938 393.597656 382.972656 C 394.09375 382.859375 394.574219 382.699219 395.035156 382.496094 C 395.5 382.289062 395.9375 382.039062 396.351562 381.746094 C 396.765625 381.453125 397.148438 381.121094 397.496094 380.753906 C 397.847656 380.386719 398.15625 379.988281 398.425781 379.558594 C 398.699219 379.128906 398.925781 378.679688 399.105469 378.207031 C 399.289062 377.734375 399.421875 377.246094 399.507812 376.746094 C 399.59375 376.246094 399.628906 375.742188 399.617188 375.234375 C 399.515625 371.21875 399.492188 367.945312 399.46875 364.789062 C 399.441406 360.707031 399.414062 356.808594 399.207031 352.046875 C 402.535156 347.699219 405.847656 343.734375 409.332031 339.589844 C 413.1875 335.007812 417.175781 330.265625 421.15625 324.960938 C 421.460938 324.554688 421.722656 324.125 421.941406 323.667969 C 422.160156 323.207031 422.332031 322.734375 422.457031 322.242188 C 422.585938 321.75 422.660156 321.253906 422.6875 320.746094 C 422.714844 320.238281 422.695312 319.734375 422.621094 319.230469 C 422.550781 318.730469 422.429688 318.238281 422.261719 317.761719 C 422.09375 317.28125 421.882812 316.824219 421.621094 316.386719 C 421.363281 315.953125 421.066406 315.542969 420.726562 315.167969 C 420.386719 314.789062 420.015625 314.449219 419.609375 314.144531 C 419.203125 313.839844 418.773438 313.578125 418.316406 313.359375 C 417.855469 313.136719 417.382812 312.964844 416.890625 312.839844 C 416.398438 312.714844 415.902344 312.636719 415.394531 312.609375 C 414.886719 312.582031 414.382812 312.605469 413.878906 312.675781 C 413.378906 312.746094 412.886719 312.867188 412.410156 313.035156 C 411.929688 313.203125 411.472656 313.417969 411.035156 313.675781 C 410.601562 313.933594 410.191406 314.234375 409.816406 314.570312 C 409.4375 314.910156 409.097656 315.28125 408.792969 315.6875 C 405.070312 320.652344 401.398438 325.019531 397.507812 329.644531 C 395.644531 331.863281 393.75 334.113281 391.84375 336.453125 C 389.96875 334.074219 388.164062 331.769531 386.394531 329.5 C 382.769531 324.867188 379.019531 320.066406 374.761719 314.769531 C 374.441406 314.375 374.089844 314.011719 373.699219 313.6875 C 373.308594 313.363281 372.894531 313.078125 372.449219 312.832031 C 372.003906 312.589844 371.539062 312.394531 371.054688 312.242188 C 370.570312 312.089844 370.074219 311.984375 369.570312 311.929688 C 369.066406 311.875 368.5625 311.871094 368.054688 311.917969 C 367.550781 311.960938 367.054688 312.054688 366.566406 312.199219 C 366.082031 312.339844 365.613281 312.527344 365.164062 312.765625 C 364.714844 313 364.289062 313.277344 363.894531 313.59375 C 363.5 313.910156 363.140625 314.265625 362.8125 314.65625 C 362.488281 315.042969 362.203125 315.460938 361.960938 315.90625 C 361.71875 316.351562 361.519531 316.816406 361.367188 317.300781 C 361.214844 317.785156 361.113281 318.277344 361.058594 318.78125 C 361.003906 319.289062 361 319.792969 361.042969 320.296875 C 361.089844 320.804688 361.183594 321.300781 361.324219 321.785156 C 361.46875 322.273438 361.65625 322.742188 361.890625 323.191406 C 362.125 323.640625 362.402344 324.0625 362.71875 324.457031 C 366.910156 329.664062 370.625 334.414062 374.21875 339.011719 Z M 374.214844 339.015625 " fill-opacity="1" fill-rule="nonzero"/></svg>