<svg xmlns="http://www.w3.org/2000/svg" xmlns:xlink="http://www.w3.org/1999/xlink" width="1080" zoomAndPan="magnify" viewBox="0 0 810 809.999993" height="1080" preserveAspectRatio="xMidYMid meet" version="1.0"><defs><clipPath id="d4139f7a89"><path d="M 589 116.4375 L 810 116.4375 L 810 436 L 589 436 Z M 589 116.4375 " clip-rule="nonzero"/></clipPath><clipPath id="f05959cac6"><path d="M 0 202 L 344 202 L 344 693.9375 L 0 693.9375 Z M 0 202 " clip-rule="nonzero"/></clipPath></defs><path fill="#bc4749" d="M 245.453125 374.070312 C 245.453125 372.863281 245.425781 371.660156 245.367188 370.457031 C 245.308594 369.25 245.21875 368.050781 245.101562 366.851562 C 244.980469 365.652344 244.835938 364.457031 244.65625 363.265625 C 244.480469 362.070312 244.273438 360.882812 244.039062 359.703125 C 243.804688 358.519531 243.539062 357.34375 243.246094 356.175781 C 242.953125 355.007812 242.632812 353.847656 242.285156 352.691406 C 241.933594 351.539062 241.554688 350.394531 241.148438 349.261719 C 240.742188 348.125 240.308594 347.003906 239.847656 345.890625 C 239.386719 344.777344 238.898438 343.675781 238.382812 342.585938 C 237.871094 341.496094 237.328125 340.417969 236.757812 339.355469 C 236.191406 338.292969 235.597656 337.246094 234.976562 336.210938 C 234.359375 335.179688 233.714844 334.160156 233.042969 333.15625 C 232.375 332.15625 231.679688 331.171875 230.964844 330.203125 C 230.246094 329.234375 229.503906 328.285156 228.738281 327.355469 C 227.976562 326.421875 227.1875 325.511719 226.378906 324.617188 C 225.570312 323.722656 224.738281 322.851562 223.886719 322 C 223.035156 321.148438 222.164062 320.316406 221.269531 319.507812 C 220.375 318.699219 219.464844 317.910156 218.53125 317.148438 C 217.601562 316.382812 216.652344 315.640625 215.683594 314.921875 C 214.714844 314.207031 213.730469 313.511719 212.726562 312.84375 C 211.726562 312.171875 210.707031 311.527344 209.675781 310.910156 C 208.640625 310.289062 207.59375 309.695312 206.53125 309.125 C 205.46875 308.558594 204.390625 308.015625 203.300781 307.5 C 202.210938 306.988281 201.109375 306.5 199.996094 306.039062 C 198.882812 305.574219 197.761719 305.140625 196.625 304.738281 C 195.492188 304.332031 194.347656 303.953125 193.195312 303.601562 C 192.039062 303.253906 190.878906 302.929688 189.710938 302.640625 C 188.542969 302.347656 187.367188 302.082031 186.183594 301.847656 C 185 301.613281 183.816406 301.40625 182.621094 301.230469 C 181.429688 301.050781 180.234375 300.90625 179.035156 300.785156 C 177.835938 300.667969 176.636719 300.578125 175.429688 300.519531 C 174.226562 300.460938 173.023438 300.433594 171.816406 300.433594 C 170.613281 300.433594 169.410156 300.460938 168.203125 300.519531 C 167 300.578125 165.800781 300.667969 164.601562 300.785156 C 163.402344 300.90625 162.207031 301.050781 161.011719 301.230469 C 159.820312 301.40625 158.632812 301.613281 157.453125 301.847656 C 156.269531 302.082031 155.09375 302.347656 153.925781 302.640625 C 152.757812 302.933594 151.597656 303.253906 150.441406 303.601562 C 149.289062 303.953125 148.144531 304.332031 147.011719 304.738281 C 145.875 305.140625 144.753906 305.574219 143.640625 306.039062 C 142.523438 306.5 141.425781 306.988281 140.335938 307.5 C 139.246094 308.015625 138.167969 308.558594 137.105469 309.125 C 136.042969 309.695312 134.996094 310.289062 133.960938 310.910156 C 132.929688 311.527344 131.910156 312.171875 130.90625 312.84375 C 129.90625 313.511719 128.921875 314.207031 127.953125 314.921875 C 126.984375 315.640625 126.035156 316.382812 125.105469 317.148438 C 124.171875 317.910156 123.261719 318.699219 122.367188 319.507812 C 121.472656 320.316406 120.601562 321.148438 119.75 322 C 118.898438 322.851562 118.066406 323.722656 117.257812 324.617188 C 116.449219 325.511719 115.660156 326.421875 114.894531 327.355469 C 114.132812 328.285156 113.390625 329.234375 112.671875 330.203125 C 111.953125 331.171875 111.261719 332.15625 110.589844 333.15625 C 109.921875 334.160156 109.277344 335.179688 108.65625 336.210938 C 108.039062 337.246094 107.445312 338.292969 106.875 339.355469 C 106.308594 340.417969 105.765625 341.496094 105.25 342.585938 C 104.738281 343.675781 104.25 344.777344 103.785156 345.890625 C 103.324219 347.003906 102.890625 348.125 102.484375 349.261719 C 102.082031 350.394531 101.703125 351.539062 101.351562 352.691406 C 101.003906 353.847656 100.679688 355.007812 100.386719 356.175781 C 100.097656 357.34375 99.832031 358.519531 99.597656 359.703125 C 99.363281 360.882812 99.15625 362.070312 98.980469 363.261719 C 98.800781 364.457031 98.65625 365.652344 98.535156 366.851562 C 98.417969 368.050781 98.328125 369.25 98.269531 370.457031 C 98.210938 371.660156 98.183594 372.863281 98.183594 374.070312 C 98.183594 375.273438 98.210938 376.476562 98.269531 377.679688 C 98.328125 378.886719 98.417969 380.085938 98.535156 381.285156 C 98.65625 382.484375 98.800781 383.679688 98.980469 384.875 C 99.15625 386.066406 99.363281 387.253906 99.597656 388.433594 C 99.832031 389.617188 100.097656 390.792969 100.386719 391.960938 C 100.679688 393.128906 101.003906 394.289062 101.351562 395.445312 C 101.703125 396.597656 102.082031 397.742188 102.484375 398.875 C 102.890625 400.011719 103.324219 401.132812 103.785156 402.246094 C 104.25 403.359375 104.738281 404.460938 105.25 405.550781 C 105.765625 406.640625 106.308594 407.71875 106.875 408.78125 C 107.445312 409.84375 108.039062 410.890625 108.65625 411.925781 C 109.277344 412.957031 109.921875 413.976562 110.589844 414.980469 C 111.261719 415.980469 111.953125 416.964844 112.671875 417.933594 C 113.390625 418.902344 114.132812 419.851562 114.898438 420.78125 C 115.660156 421.714844 116.449219 422.625 117.257812 423.519531 C 118.066406 424.414062 118.898438 425.285156 119.75 426.136719 C 120.601562 426.988281 121.472656 427.820312 122.367188 428.628906 C 123.261719 429.4375 124.171875 430.226562 125.105469 430.988281 C 126.035156 431.753906 126.984375 432.496094 127.953125 433.214844 C 128.921875 433.929688 129.90625 434.625 130.90625 435.292969 C 131.910156 435.964844 132.929688 436.609375 133.960938 437.226562 C 134.996094 437.847656 136.042969 438.441406 137.105469 439.011719 C 138.167969 439.578125 139.246094 440.121094 140.335938 440.636719 C 141.425781 441.148438 142.523438 441.636719 143.640625 442.097656 C 144.753906 442.5625 145.875 442.996094 147.011719 443.398438 C 148.144531 443.804688 149.289062 444.183594 150.441406 444.535156 C 151.597656 444.882812 152.757812 445.207031 153.925781 445.496094 C 155.09375 445.789062 156.269531 446.054688 157.453125 446.289062 C 158.632812 446.523438 159.820312 446.730469 161.011719 446.90625 C 162.207031 447.085938 163.402344 447.230469 164.601562 447.351562 C 165.800781 447.46875 167 447.558594 168.203125 447.617188 C 169.410156 447.675781 170.613281 447.703125 171.816406 447.703125 C 173.023438 447.703125 174.226562 447.671875 175.429688 447.613281 C 176.632812 447.550781 177.835938 447.460938 179.035156 447.34375 C 180.230469 447.222656 181.425781 447.074219 182.617188 446.898438 C 183.808594 446.71875 184.996094 446.511719 186.179688 446.277344 C 187.359375 446.039062 188.535156 445.777344 189.703125 445.480469 C 190.871094 445.1875 192.03125 444.867188 193.183594 444.515625 C 194.335938 444.164062 195.480469 443.785156 196.613281 443.378906 C 197.75 442.972656 198.871094 442.539062 199.984375 442.078125 C 201.097656 441.617188 202.199219 441.128906 203.289062 440.613281 C 204.375 440.097656 205.453125 439.554688 206.515625 438.984375 C 207.578125 438.417969 208.625 437.824219 209.65625 437.203125 C 210.691406 436.585938 211.707031 435.941406 212.710938 435.269531 C 213.710938 434.601562 214.695312 433.90625 215.664062 433.1875 C 216.628906 432.472656 217.578125 431.730469 218.511719 430.964844 C 219.441406 430.199219 220.355469 429.414062 221.246094 428.605469 C 222.140625 427.796875 223.011719 426.964844 223.863281 426.113281 C 224.714844 425.261719 225.546875 424.390625 226.355469 423.496094 C 227.164062 422.605469 227.949219 421.691406 228.714844 420.761719 C 229.480469 419.828125 230.222656 418.878906 230.9375 417.914062 C 231.65625 416.945312 232.351562 415.960938 233.019531 414.960938 C 233.691406 413.957031 234.335938 412.941406 234.953125 411.90625 C 235.574219 410.875 236.167969 409.828125 236.734375 408.765625 C 237.304688 407.703125 237.847656 406.625 238.363281 405.539062 C 238.878906 404.449219 239.367188 403.347656 239.828125 402.234375 C 240.289062 401.121094 240.722656 400 241.128906 398.863281 C 241.535156 397.730469 241.914062 396.585938 242.265625 395.433594 C 242.617188 394.28125 242.9375 393.121094 243.230469 391.953125 C 243.527344 390.785156 243.789062 389.609375 244.027344 388.429688 C 244.261719 387.246094 244.46875 386.0625 244.648438 384.867188 C 244.824219 383.675781 244.972656 382.480469 245.09375 381.285156 C 245.210938 380.085938 245.300781 378.882812 245.363281 377.679688 C 245.421875 376.476562 245.453125 375.273438 245.453125 374.070312 Z M 122.726562 374.070312 C 122.726562 372.460938 122.804688 370.855469 122.964844 369.257812 C 123.121094 367.65625 123.355469 366.066406 123.671875 364.492188 C 123.984375 362.914062 124.375 361.355469 124.839844 359.816406 C 125.308594 358.28125 125.847656 356.765625 126.464844 355.28125 C 127.078125 353.796875 127.765625 352.34375 128.523438 350.925781 C 129.28125 349.507812 130.105469 348.132812 131 346.796875 C 131.894531 345.457031 132.851562 344.167969 133.871094 342.925781 C 134.890625 341.683594 135.96875 340.492188 137.105469 339.355469 C 138.242188 338.21875 139.433594 337.140625 140.675781 336.121094 C 141.917969 335.101562 143.207031 334.144531 144.542969 333.25 C 145.882812 332.359375 147.257812 331.53125 148.675781 330.773438 C 150.09375 330.015625 151.546875 329.328125 153.03125 328.714844 C 154.515625 328.097656 156.027344 327.558594 157.566406 327.089844 C 159.105469 326.625 160.664062 326.234375 162.242188 325.921875 C 163.816406 325.605469 165.40625 325.371094 167.007812 325.214844 C 168.605469 325.054688 170.210938 324.976562 171.816406 324.976562 C 173.425781 324.976562 175.03125 325.054688 176.628906 325.214844 C 178.230469 325.371094 179.820312 325.605469 181.394531 325.921875 C 182.972656 326.234375 184.53125 326.625 186.070312 327.089844 C 187.605469 327.558594 189.117188 328.097656 190.605469 328.714844 C 192.089844 329.328125 193.542969 330.015625 194.960938 330.773438 C 196.378906 331.53125 197.753906 332.359375 199.089844 333.25 C 200.429688 334.144531 201.71875 335.101562 202.960938 336.121094 C 204.203125 337.140625 205.394531 338.21875 206.53125 339.355469 C 207.667969 340.492188 208.746094 341.683594 209.765625 342.925781 C 210.785156 344.167969 211.742188 345.457031 212.636719 346.796875 C 213.527344 348.132812 214.355469 349.507812 215.113281 350.925781 C 215.871094 352.34375 216.558594 353.796875 217.171875 355.28125 C 217.789062 356.765625 218.328125 358.28125 218.796875 359.816406 C 219.261719 361.355469 219.652344 362.914062 219.964844 364.492188 C 220.28125 366.066406 220.515625 367.65625 220.671875 369.257812 C 220.832031 370.855469 220.910156 372.460938 220.910156 374.070312 C 220.910156 375.675781 220.832031 377.28125 220.671875 378.878906 C 220.515625 380.480469 220.28125 382.070312 219.964844 383.644531 C 219.652344 385.222656 219.261719 386.78125 218.796875 388.320312 C 218.328125 389.855469 217.789062 391.371094 217.171875 392.855469 C 216.558594 394.339844 215.871094 395.792969 215.113281 397.210938 C 214.355469 398.628906 213.527344 400.003906 212.636719 401.339844 C 211.742188 402.679688 210.785156 403.96875 209.765625 405.210938 C 208.746094 406.453125 207.667969 407.644531 206.53125 408.78125 C 205.394531 409.917969 204.203125 410.996094 202.960938 412.015625 C 201.71875 413.035156 200.429688 413.992188 199.089844 414.886719 C 197.753906 415.777344 196.378906 416.605469 194.960938 417.363281 C 193.542969 418.121094 192.089844 418.808594 190.605469 419.421875 C 189.117188 420.039062 187.605469 420.578125 186.070312 421.046875 C 184.53125 421.511719 182.972656 421.902344 181.394531 422.214844 C 179.820312 422.53125 178.230469 422.765625 176.628906 422.921875 C 175.03125 423.082031 173.425781 423.160156 171.816406 423.160156 C 170.210938 423.15625 168.609375 423.078125 167.007812 422.917969 C 165.410156 422.757812 163.820312 422.523438 162.246094 422.207031 C 160.667969 421.890625 159.113281 421.5 157.574219 421.03125 C 156.035156 420.566406 154.523438 420.023438 153.039062 419.40625 C 151.554688 418.792969 150.105469 418.105469 148.6875 417.347656 C 147.269531 416.585938 145.894531 415.761719 144.558594 414.867188 C 143.222656 413.976562 141.933594 413.019531 140.691406 412 C 139.449219 410.980469 138.257812 409.902344 137.121094 408.765625 C 135.984375 407.628906 134.90625 406.4375 133.886719 405.195312 C 132.867188 403.953125 131.910156 402.664062 131.019531 401.328125 C 130.125 399.992188 129.296875 398.617188 128.539062 397.199219 C 127.78125 395.78125 127.09375 394.332031 126.480469 392.847656 C 125.863281 391.363281 125.320312 389.851562 124.855469 388.3125 C 124.386719 386.773438 123.996094 385.21875 123.679688 383.640625 C 123.363281 382.066406 123.128906 380.476562 122.96875 378.878906 C 122.808594 377.277344 122.730469 375.675781 122.726562 374.070312 Z M 122.726562 374.070312 " fill-opacity="1" fill-rule="nonzero"/><path fill="#bc4749" d="M 748.636719 226.796875 C 748.636719 225.1875 748.558594 223.582031 748.398438 221.984375 C 748.242188 220.382812 748.007812 218.796875 747.691406 217.21875 C 747.378906 215.640625 746.988281 214.082031 746.523438 212.546875 C 746.054688 211.007812 745.515625 209.496094 744.898438 208.007812 C 744.285156 206.523438 743.597656 205.074219 742.839844 203.65625 C 742.082031 202.238281 741.257812 200.859375 740.363281 199.523438 C 739.46875 198.183594 738.511719 196.894531 737.492188 195.652344 C 736.472656 194.410156 735.394531 193.21875 734.257812 192.082031 C 733.121094 190.945312 731.929688 189.867188 730.6875 188.847656 C 729.445312 187.828125 728.15625 186.871094 726.820312 185.976562 C 725.480469 185.085938 724.105469 184.257812 722.6875 183.5 C 721.269531 182.742188 719.816406 182.058594 718.332031 181.441406 C 716.847656 180.828125 715.335938 180.285156 713.796875 179.820312 C 712.257812 179.351562 710.699219 178.960938 709.121094 178.648438 C 707.546875 178.335938 705.957031 178.097656 704.355469 177.941406 C 702.757812 177.785156 701.152344 177.703125 699.546875 177.703125 C 697.9375 177.703125 696.332031 177.785156 694.734375 177.941406 C 693.132812 178.097656 691.546875 178.335938 689.96875 178.648438 C 688.390625 178.960938 686.832031 179.351562 685.296875 179.820312 C 683.757812 180.285156 682.246094 180.828125 680.757812 181.441406 C 679.273438 182.058594 677.820312 182.742188 676.402344 183.5 C 674.984375 184.257812 673.609375 185.085938 672.273438 185.976562 C 670.933594 186.871094 669.644531 187.828125 668.402344 188.847656 C 667.160156 189.867188 665.96875 190.945312 664.832031 192.082031 C 663.695312 193.21875 662.617188 194.410156 661.597656 195.652344 C 660.578125 196.894531 659.621094 198.183594 658.726562 199.523438 C 657.835938 200.859375 657.007812 202.238281 656.25 203.65625 C 655.492188 205.074219 654.804688 206.523438 654.191406 208.007812 C 653.574219 209.496094 653.035156 211.007812 652.570312 212.546875 C 652.101562 214.082031 651.710938 215.640625 651.398438 217.21875 C 651.085938 218.796875 650.847656 220.382812 650.691406 221.984375 C 650.535156 223.582031 650.453125 225.1875 650.453125 226.796875 C 650.453125 228.402344 650.535156 230.007812 650.691406 231.609375 C 650.847656 233.207031 651.085938 234.796875 651.398438 236.371094 C 651.710938 237.949219 652.101562 239.507812 652.570312 241.046875 C 653.035156 242.585938 653.574219 244.097656 654.191406 245.582031 C 654.804688 247.066406 655.492188 248.519531 656.25 249.9375 C 657.007812 251.355469 657.835938 252.730469 658.726562 254.070312 C 659.621094 255.40625 660.578125 256.695312 661.597656 257.9375 C 662.617188 259.179688 663.695312 260.371094 664.832031 261.507812 C 665.96875 262.644531 667.160156 263.722656 668.402344 264.742188 C 669.644531 265.761719 670.933594 266.71875 672.273438 267.613281 C 673.609375 268.507812 674.984375 269.332031 676.402344 270.089844 C 677.820312 270.847656 679.273438 271.535156 680.757812 272.148438 C 682.246094 272.765625 683.757812 273.304688 685.296875 273.773438 C 686.832031 274.238281 688.390625 274.628906 689.96875 274.941406 C 691.546875 275.257812 693.132812 275.492188 694.734375 275.648438 C 696.332031 275.808594 697.9375 275.886719 699.546875 275.886719 C 701.152344 275.882812 702.757812 275.804688 704.355469 275.644531 C 705.953125 275.484375 707.542969 275.25 709.117188 274.933594 C 710.695312 274.617188 712.25 274.226562 713.789062 273.761719 C 715.328125 273.292969 716.839844 272.75 718.324219 272.132812 C 719.808594 271.519531 721.257812 270.832031 722.675781 270.074219 C 724.09375 269.316406 725.46875 268.488281 726.804688 267.597656 C 728.140625 266.703125 729.429688 265.746094 730.671875 264.726562 C 731.914062 263.707031 733.105469 262.628906 734.242188 261.492188 C 735.378906 260.355469 736.457031 259.164062 737.476562 257.921875 C 738.496094 256.679688 739.453125 255.390625 740.347656 254.054688 C 741.238281 252.71875 742.066406 251.34375 742.824219 249.925781 C 743.582031 248.507812 744.269531 247.058594 744.882812 245.574219 C 745.5 244.089844 746.042969 242.578125 746.511719 241.039062 C 746.976562 239.5 747.367188 237.945312 747.683594 236.367188 C 748 234.792969 748.234375 233.203125 748.394531 231.605469 C 748.554688 230.007812 748.632812 228.402344 748.636719 226.796875 Z M 675 226.796875 C 675 225.992188 675.039062 225.191406 675.117188 224.390625 C 675.195312 223.589844 675.316406 222.796875 675.472656 222.007812 C 675.628906 221.21875 675.824219 220.441406 676.058594 219.671875 C 676.289062 218.902344 676.5625 218.144531 676.867188 217.402344 C 677.175781 216.660156 677.519531 215.933594 677.898438 215.226562 C 678.277344 214.515625 678.691406 213.828125 679.136719 213.160156 C 679.582031 212.492188 680.0625 211.84375 680.570312 211.222656 C 681.082031 210.601562 681.621094 210.007812 682.1875 209.4375 C 682.757812 208.871094 683.351562 208.332031 683.972656 207.820312 C 684.59375 207.3125 685.242188 206.832031 685.910156 206.386719 C 686.578125 205.941406 687.265625 205.527344 687.976562 205.148438 C 688.683594 204.769531 689.410156 204.425781 690.152344 204.117188 C 690.894531 203.8125 691.652344 203.539062 692.421875 203.308594 C 693.191406 203.074219 693.96875 202.878906 694.757812 202.722656 C 695.546875 202.566406 696.339844 202.445312 697.140625 202.367188 C 697.941406 202.289062 698.742188 202.25 699.546875 202.25 C 700.347656 202.25 701.152344 202.289062 701.953125 202.367188 C 702.75 202.445312 703.546875 202.566406 704.335938 202.722656 C 705.121094 202.878906 705.902344 203.074219 706.671875 203.308594 C 707.441406 203.539062 708.195312 203.8125 708.9375 204.117188 C 709.679688 204.425781 710.40625 204.769531 711.117188 205.148438 C 711.824219 205.527344 712.515625 205.941406 713.183594 206.386719 C 713.851562 206.832031 714.496094 207.3125 715.117188 207.820312 C 715.738281 208.332031 716.332031 208.871094 716.902344 209.4375 C 717.46875 210.007812 718.007812 210.601562 718.519531 211.222656 C 719.03125 211.84375 719.507812 212.492188 719.953125 213.160156 C 720.402344 213.828125 720.8125 214.515625 721.191406 215.226562 C 721.570312 215.933594 721.914062 216.660156 722.222656 217.402344 C 722.53125 218.144531 722.800781 218.902344 723.035156 219.671875 C 723.265625 220.441406 723.460938 221.21875 723.621094 222.007812 C 723.777344 222.796875 723.894531 223.589844 723.972656 224.390625 C 724.050781 225.191406 724.089844 225.992188 724.089844 226.796875 C 724.089844 227.597656 724.050781 228.402344 723.972656 229.203125 C 723.894531 230 723.777344 230.796875 723.621094 231.585938 C 723.460938 232.371094 723.265625 233.152344 723.035156 233.921875 C 722.800781 234.691406 722.53125 235.445312 722.222656 236.1875 C 721.914062 236.929688 721.570312 237.65625 721.191406 238.367188 C 720.8125 239.074219 720.402344 239.765625 719.953125 240.433594 C 719.507812 241.101562 719.03125 241.746094 718.519531 242.367188 C 718.007812 242.988281 717.46875 243.582031 716.902344 244.152344 C 716.332031 244.71875 715.738281 245.257812 715.117188 245.769531 C 714.496094 246.28125 713.851562 246.757812 713.183594 247.203125 C 712.515625 247.652344 711.824219 248.0625 711.117188 248.441406 C 710.40625 248.820312 709.679688 249.164062 708.9375 249.472656 C 708.195312 249.78125 707.441406 250.050781 706.671875 250.285156 C 705.902344 250.515625 705.121094 250.710938 704.335938 250.871094 C 703.546875 251.027344 702.75 251.144531 701.953125 251.222656 C 701.152344 251.300781 700.347656 251.339844 699.546875 251.339844 C 698.742188 251.339844 697.941406 251.300781 697.140625 251.222656 C 696.339844 251.140625 695.546875 251.023438 694.757812 250.867188 C 693.96875 250.707031 693.191406 250.511719 692.421875 250.277344 C 691.652344 250.046875 690.898438 249.773438 690.15625 249.464844 C 689.414062 249.160156 688.6875 248.816406 687.980469 248.4375 C 687.269531 248.054688 686.582031 247.644531 685.914062 247.195312 C 685.246094 246.75 684.601562 246.273438 683.980469 245.761719 C 683.359375 245.253906 682.765625 244.714844 682.195312 244.144531 C 681.628906 243.578125 681.089844 242.980469 680.578125 242.359375 C 680.070312 241.738281 679.589844 241.09375 679.144531 240.425781 C 678.699219 239.757812 678.285156 239.070312 677.90625 238.363281 C 677.527344 237.652344 677.183594 236.925781 676.875 236.183594 C 676.566406 235.441406 676.296875 234.6875 676.0625 233.917969 C 675.828125 233.148438 675.632812 232.371094 675.476562 231.582031 C 675.316406 230.792969 675.199219 230 675.121094 229.199219 C 675.039062 228.402344 675 227.597656 675 226.796875 Z M 675 226.796875 " fill-opacity="1" fill-rule="nonzero"/><g clip-path="url(#d4139f7a89)"><path fill="#bc4749" d="M 756.128906 348.9375 C 782.671875 317.996094 810 274.644531 810 226.796875 C 810 224.988281 809.957031 223.179688 809.867188 221.375 C 809.777344 219.570312 809.644531 217.769531 809.46875 215.96875 C 809.289062 214.171875 809.070312 212.375 808.804688 210.589844 C 808.539062 208.800781 808.230469 207.019531 807.878906 205.246094 C 807.523438 203.472656 807.128906 201.710938 806.691406 199.957031 C 806.25 198.203125 805.769531 196.460938 805.242188 194.730469 C 804.71875 193.003906 804.152344 191.285156 803.542969 189.585938 C 802.933594 187.882812 802.285156 186.195312 801.59375 184.527344 C 800.898438 182.855469 800.167969 181.203125 799.394531 179.570312 C 798.621094 177.9375 797.808594 176.320312 796.957031 174.726562 C 796.105469 173.132812 795.214844 171.5625 794.285156 170.011719 C 793.355469 168.460938 792.390625 166.933594 791.386719 165.429688 C 790.378906 163.925781 789.339844 162.449219 788.261719 160.996094 C 787.1875 159.546875 786.074219 158.121094 784.929688 156.722656 C 783.78125 155.328125 782.601562 153.957031 781.386719 152.617188 C 780.171875 151.28125 778.925781 149.96875 777.648438 148.691406 C 776.371094 147.414062 775.0625 146.167969 773.722656 144.953125 C 772.382812 143.742188 771.015625 142.558594 769.617188 141.414062 C 768.21875 140.265625 766.796875 139.15625 765.34375 138.078125 C 763.890625 137 762.414062 135.960938 760.910156 134.957031 C 759.40625 133.953125 757.878906 132.984375 756.332031 132.054688 C 754.78125 131.125 753.207031 130.234375 751.613281 129.382812 C 750.019531 128.53125 748.40625 127.71875 746.769531 126.945312 C 745.136719 126.171875 743.484375 125.441406 741.816406 124.75 C 740.144531 124.058594 738.457031 123.40625 736.757812 122.796875 C 735.054688 122.1875 733.339844 121.621094 731.609375 121.097656 C 729.878906 120.574219 728.136719 120.089844 726.382812 119.652344 C 724.628906 119.210938 722.867188 118.816406 721.09375 118.464844 C 719.320312 118.109375 717.539062 117.800781 715.753906 117.535156 C 713.964844 117.269531 712.171875 117.050781 710.371094 116.871094 C 708.574219 116.695312 706.769531 116.5625 704.964844 116.472656 C 703.160156 116.386719 701.351562 116.339844 699.546875 116.339844 C 697.738281 116.339844 695.929688 116.386719 694.125 116.472656 C 692.320312 116.5625 690.519531 116.695312 688.71875 116.871094 C 686.921875 117.050781 685.125 117.269531 683.339844 117.535156 C 681.550781 117.800781 679.769531 118.109375 677.996094 118.464844 C 676.222656 118.816406 674.460938 119.210938 672.707031 119.652344 C 670.953125 120.089844 669.210938 120.574219 667.480469 121.097656 C 665.753906 121.621094 664.035156 122.1875 662.335938 122.796875 C 660.632812 123.40625 658.945312 124.058594 657.277344 124.75 C 655.605469 125.441406 653.953125 126.171875 652.320312 126.945312 C 650.6875 127.71875 649.070312 128.53125 647.476562 129.382812 C 645.882812 130.234375 644.3125 131.125 642.761719 132.054688 C 641.210938 132.984375 639.683594 133.953125 638.179688 134.957031 C 636.675781 135.960938 635.199219 137 633.746094 138.078125 C 632.296875 139.15625 630.871094 140.265625 629.472656 141.414062 C 628.078125 142.558594 626.707031 143.742188 625.367188 144.953125 C 624.03125 146.167969 622.71875 147.414062 621.441406 148.691406 C 620.164062 149.96875 618.917969 151.28125 617.703125 152.617188 C 616.488281 153.957031 615.308594 155.328125 614.164062 156.722656 C 613.015625 158.121094 611.902344 159.546875 610.828125 160.996094 C 609.75 162.449219 608.710938 163.925781 607.707031 165.429688 C 606.703125 166.933594 605.734375 168.460938 604.804688 170.011719 C 603.875 171.5625 602.984375 173.132812 602.132812 174.726562 C 601.28125 176.320312 600.46875 177.9375 599.695312 179.570312 C 598.921875 181.203125 598.191406 182.855469 597.5 184.527344 C 596.808594 186.195312 596.15625 187.882812 595.546875 189.585938 C 594.9375 191.285156 594.371094 193.003906 593.847656 194.730469 C 593.324219 196.460938 592.839844 198.203125 592.402344 199.957031 C 591.960938 201.710938 591.566406 203.472656 591.214844 205.246094 C 590.859375 207.019531 590.550781 208.800781 590.285156 210.589844 C 590.019531 212.375 589.800781 214.171875 589.621094 215.96875 C 589.445312 217.769531 589.3125 219.570312 589.222656 221.375 C 589.136719 223.179688 589.089844 224.988281 589.089844 226.796875 C 589.089844 274.644531 616.421875 317.996094 642.960938 348.933594 C 630.019531 355.203125 620.914062 363.527344 616.585938 373.132812 C 615.949219 373.078125 615.4375 373.027344 614.75 372.972656 C 613.949219 372.90625 613.148438 372.917969 612.347656 373.011719 C 611.546875 373.105469 610.765625 373.273438 610 373.519531 C 609.234375 373.765625 608.496094 374.085938 607.792969 374.476562 C 607.089844 374.867188 606.429688 375.320312 605.816406 375.84375 C 605.203125 376.363281 604.644531 376.9375 604.144531 377.570312 C 603.644531 378.199219 603.210938 378.871094 602.839844 379.585938 C 602.472656 380.304688 602.179688 381.046875 601.957031 381.820312 C 601.734375 382.59375 601.589844 383.382812 601.523438 384.1875 C 601.457031 384.988281 601.46875 385.789062 601.558594 386.589844 C 601.648438 387.386719 601.816406 388.171875 602.0625 388.9375 C 602.308594 389.707031 602.625 390.441406 603.015625 391.144531 C 603.402344 391.847656 603.859375 392.507812 604.378906 393.125 C 604.898438 393.738281 605.472656 394.296875 606.101562 394.800781 C 606.730469 395.300781 607.402344 395.738281 608.117188 396.105469 C 608.832031 396.476562 609.578125 396.773438 610.351562 396.996094 C 611.125 397.21875 611.910156 397.363281 612.714844 397.433594 C 613.878906 397.53125 614.832031 397.617188 615.84375 397.707031 C 624.363281 419.835938 657.472656 435.433594 699.546875 435.433594 C 748.523438 435.433594 785.453125 414.328125 785.453125 386.339844 C 785.453125 371.210938 774.71875 357.945312 756.128906 348.9375 Z M 699.546875 140.886719 C 700.949219 140.886719 702.355469 140.925781 703.757812 140.996094 C 705.164062 141.066406 706.5625 141.167969 707.964844 141.308594 C 709.363281 141.449219 710.757812 141.621094 712.144531 141.828125 C 713.535156 142.035156 714.921875 142.277344 716.300781 142.554688 C 717.675781 142.828125 719.046875 143.136719 720.410156 143.480469 C 721.773438 143.824219 723.128906 144.199219 724.472656 144.609375 C 725.816406 145.015625 727.152344 145.457031 728.472656 145.933594 C 729.796875 146.40625 731.109375 146.914062 732.40625 147.453125 C 733.703125 147.992188 734.988281 148.558594 736.257812 149.160156 C 737.53125 149.761719 738.785156 150.394531 740.023438 151.058594 C 741.261719 151.722656 742.484375 152.414062 743.691406 153.136719 C 744.894531 153.859375 746.082031 154.613281 747.25 155.394531 C 748.417969 156.175781 749.566406 156.984375 750.695312 157.824219 C 751.824219 158.660156 752.933594 159.523438 754.019531 160.417969 C 755.105469 161.308594 756.171875 162.226562 757.210938 163.171875 C 758.253906 164.113281 759.269531 165.082031 760.265625 166.078125 C 761.257812 167.070312 762.226562 168.089844 763.171875 169.128906 C 764.113281 170.171875 765.03125 171.234375 765.925781 172.320312 C 766.816406 173.40625 767.679688 174.515625 768.519531 175.644531 C 769.355469 176.773438 770.164062 177.921875 770.945312 179.089844 C 771.726562 180.257812 772.480469 181.445312 773.203125 182.652344 C 773.925781 183.855469 774.617188 185.078125 775.28125 186.316406 C 775.945312 187.558594 776.578125 188.8125 777.179688 190.082031 C 777.78125 191.351562 778.351562 192.636719 778.890625 193.933594 C 779.429688 195.234375 779.933594 196.542969 780.410156 197.867188 C 780.882812 199.191406 781.324219 200.523438 781.734375 201.867188 C 782.140625 203.214844 782.519531 204.566406 782.859375 205.929688 C 783.203125 207.292969 783.511719 208.664062 783.789062 210.042969 C 784.0625 211.421875 784.304688 212.804688 784.511719 214.195312 C 784.71875 215.585938 784.894531 216.980469 785.03125 218.378906 C 785.171875 219.777344 785.277344 221.179688 785.347656 222.582031 C 785.417969 223.984375 785.453125 225.390625 785.453125 226.796875 C 785.453125 292.226562 721.574219 351.90625 699.539062 370.550781 C 677.488281 351.9375 613.636719 292.371094 613.636719 226.796875 C 613.636719 225.390625 613.675781 223.984375 613.746094 222.582031 C 613.816406 221.179688 613.917969 219.777344 614.058594 218.378906 C 614.199219 216.980469 614.371094 215.585938 614.578125 214.195312 C 614.785156 212.804688 615.027344 211.421875 615.304688 210.042969 C 615.578125 208.664062 615.886719 207.292969 616.230469 205.929688 C 616.574219 204.566406 616.949219 203.214844 617.355469 201.867188 C 617.765625 200.523438 618.207031 199.191406 618.683594 197.867188 C 619.15625 196.542969 619.664062 195.234375 620.203125 193.933594 C 620.738281 192.636719 621.308594 191.351562 621.910156 190.082031 C 622.511719 188.8125 623.144531 187.558594 623.808594 186.316406 C 624.472656 185.078125 625.164062 183.855469 625.886719 182.652344 C 626.609375 181.445312 627.363281 180.257812 628.144531 179.089844 C 628.925781 177.921875 629.734375 176.773438 630.570312 175.644531 C 631.410156 174.515625 632.273438 173.40625 633.167969 172.320312 C 634.058594 171.234375 634.976562 170.171875 635.921875 169.128906 C 636.863281 168.089844 637.832031 167.070312 638.828125 166.078125 C 639.820312 165.082031 640.839844 164.113281 641.878906 163.171875 C 642.921875 162.226562 643.984375 161.308594 645.070312 160.417969 C 646.15625 159.523438 647.265625 158.660156 648.394531 157.824219 C 649.523438 156.984375 650.671875 156.175781 651.839844 155.394531 C 653.007812 154.613281 654.195312 153.859375 655.398438 153.136719 C 656.605469 152.414062 657.828125 151.722656 659.066406 151.058594 C 660.304688 150.394531 661.5625 149.761719 662.832031 149.160156 C 664.101562 148.558594 665.386719 147.992188 666.683594 147.453125 C 667.984375 146.914062 669.292969 146.40625 670.617188 145.933594 C 671.941406 145.457031 673.273438 145.015625 674.617188 144.605469 C 675.964844 144.199219 677.316406 143.824219 678.679688 143.480469 C 680.042969 143.136719 681.414062 142.828125 682.792969 142.554688 C 684.171875 142.277344 685.554688 142.035156 686.945312 141.828125 C 688.335938 141.621094 689.730469 141.449219 691.128906 141.308594 C 692.527344 141.167969 693.929688 141.066406 695.332031 140.996094 C 696.734375 140.925781 698.140625 140.886719 699.546875 140.886719 Z M 699.546875 410.886719 C 662.085938 410.886719 638.183594 396.347656 638.183594 386.339844 C 638.183594 380.933594 645.855469 373.375 660.59375 368.035156 C 670.511719 378.097656 681.042969 387.46875 692.179688 396.15625 C 692.707031 396.554688 693.265625 396.90625 693.847656 397.210938 C 694.433594 397.515625 695.039062 397.773438 695.664062 397.984375 C 696.289062 398.191406 696.929688 398.347656 697.578125 398.457031 C 698.230469 398.5625 698.886719 398.613281 699.546875 398.613281 C 700.207031 398.613281 700.859375 398.5625 701.511719 398.457031 C 702.164062 398.347656 702.800781 398.191406 703.425781 397.984375 C 704.054688 397.773438 704.660156 397.515625 705.242188 397.210938 C 705.828125 396.90625 706.382812 396.554688 706.910156 396.15625 C 718.050781 387.46875 728.578125 378.097656 738.496094 368.039062 C 753.238281 373.375 760.910156 380.941406 760.910156 386.339844 C 760.910156 396.347656 737.003906 410.886719 699.546875 410.886719 Z M 699.546875 410.886719 " fill-opacity="1" fill-rule="nonzero"/></g><g clip-path="url(#f05959cac6)"><path fill="#bc4749" d="M 307.441406 620.320312 C 306.382812 620.261719 305.542969 620.210938 304.613281 620.152344 C 298.214844 603.023438 277.601562 588.890625 246.113281 580.054688 C 291.671875 530.753906 343.636719 456.496094 343.636719 374.070312 C 343.636719 371.257812 343.566406 368.445312 343.429688 365.636719 C 343.292969 362.828125 343.085938 360.027344 342.808594 357.226562 C 342.535156 354.429688 342.1875 351.640625 341.777344 348.859375 C 341.363281 346.074219 340.882812 343.304688 340.335938 340.546875 C 339.785156 337.789062 339.171875 335.046875 338.488281 332.320312 C 337.804688 329.59375 337.054688 326.882812 336.238281 324.191406 C 335.421875 321.5 334.539062 318.832031 333.59375 316.183594 C 332.644531 313.535156 331.632812 310.914062 330.558594 308.316406 C 329.480469 305.71875 328.34375 303.148438 327.140625 300.605469 C 325.9375 298.066406 324.675781 295.554688 323.347656 293.074219 C 322.023438 290.59375 320.636719 288.148438 319.191406 285.734375 C 317.746094 283.324219 316.242188 280.949219 314.679688 278.613281 C 313.117188 276.273438 311.5 273.976562 309.824219 271.714844 C 308.148438 269.457031 306.417969 267.242188 304.636719 265.066406 C 302.851562 262.894531 301.015625 260.765625 299.128906 258.683594 C 297.238281 256.597656 295.300781 254.5625 293.3125 252.574219 C 291.324219 250.585938 289.289062 248.648438 287.203125 246.757812 C 285.121094 244.871094 282.992188 243.035156 280.820312 241.25 C 278.644531 239.46875 276.429688 237.738281 274.171875 236.0625 C 271.910156 234.386719 269.613281 232.769531 267.273438 231.207031 C 264.9375 229.644531 262.5625 228.140625 260.152344 226.695312 C 257.738281 225.25 255.292969 223.863281 252.8125 222.539062 C 250.332031 221.210938 247.820312 219.949219 245.28125 218.746094 C 242.738281 217.542969 240.167969 216.40625 237.570312 215.328125 C 234.972656 214.253906 232.347656 213.242188 229.703125 212.292969 C 227.054688 211.347656 224.386719 210.464844 221.695312 209.648438 C 219.003906 208.832031 216.292969 208.082031 213.566406 207.398438 C 210.839844 206.714844 208.097656 206.101562 205.339844 205.550781 C 202.582031 205.003906 199.8125 204.523438 197.027344 204.109375 C 194.246094 203.699219 191.457031 203.351562 188.660156 203.078125 C 185.859375 202.800781 183.058594 202.59375 180.25 202.457031 C 177.441406 202.320312 174.628906 202.25 171.816406 202.25 C 169.007812 202.25 166.195312 202.320312 163.386719 202.457031 C 160.578125 202.59375 157.777344 202.800781 154.976562 203.078125 C 152.179688 203.351562 149.390625 203.699219 146.605469 204.109375 C 143.824219 204.523438 141.054688 205.003906 138.296875 205.550781 C 135.539062 206.101562 132.796875 206.714844 130.070312 207.398438 C 127.34375 208.082031 124.632812 208.832031 121.941406 209.648438 C 119.25 210.464844 116.582031 211.347656 113.933594 212.292969 C 111.285156 213.242188 108.664062 214.253906 106.066406 215.328125 C 103.46875 216.40625 100.898438 217.542969 98.355469 218.746094 C 95.816406 219.949219 93.304688 221.210938 90.824219 222.539062 C 88.34375 223.863281 85.898438 225.25 83.484375 226.695312 C 81.074219 228.140625 78.699219 229.644531 76.359375 231.207031 C 74.023438 232.769531 71.726562 234.386719 69.464844 236.0625 C 67.207031 237.738281 64.992188 239.46875 62.816406 241.25 C 60.644531 243.035156 58.515625 244.871094 56.433594 246.757812 C 54.347656 248.648438 52.3125 250.585938 50.324219 252.574219 C 48.335938 254.5625 46.398438 256.597656 44.507812 258.683594 C 42.621094 260.765625 40.785156 262.894531 39 265.066406 C 37.21875 267.242188 35.488281 269.457031 33.8125 271.714844 C 32.136719 273.976562 30.519531 276.273438 28.957031 278.609375 C 27.394531 280.949219 25.890625 283.324219 24.445312 285.734375 C 23 288.148438 21.613281 290.59375 20.289062 293.074219 C 18.960938 295.554688 17.699219 298.066406 16.496094 300.605469 C 15.292969 303.148438 14.15625 305.71875 13.078125 308.316406 C 12.003906 310.914062 10.992188 313.535156 10.042969 316.183594 C 9.097656 318.832031 8.214844 321.5 7.398438 324.191406 C 6.582031 326.882812 5.832031 329.59375 5.148438 332.320312 C 4.464844 335.046875 3.851562 337.789062 3.300781 340.546875 C 2.753906 343.304688 2.273438 346.074219 1.859375 348.859375 C 1.445312 351.640625 1.101562 354.429688 0.828125 357.226562 C 0.550781 360.027344 0.34375 362.828125 0.207031 365.636719 C 0.0703125 368.445312 0 371.257812 0 374.070312 C 0 456.496094 51.964844 530.753906 97.523438 580.054688 C 59.140625 590.828125 36.816406 609.457031 36.816406 631.796875 C 36.816406 671.652344 106.375 693.160156 171.816406 693.160156 C 229.78125 693.160156 290.863281 676.257812 304.097656 644.714844 C 304.773438 644.753906 305.324219 644.789062 306.0625 644.828125 C 306.296875 644.839844 306.53125 644.847656 306.765625 644.847656 C 307.554688 644.847656 308.339844 644.769531 309.117188 644.617188 C 309.890625 644.464844 310.648438 644.242188 311.378906 643.941406 C 312.113281 643.644531 312.808594 643.277344 313.472656 642.84375 C 314.132812 642.414062 314.75 641.917969 315.316406 641.367188 C 315.882812 640.816406 316.390625 640.214844 316.839844 639.566406 C 317.292969 638.914062 317.675781 638.226562 317.992188 637.503906 C 318.3125 636.777344 318.554688 636.027344 318.730469 635.257812 C 318.902344 634.484375 319 633.703125 319.023438 632.914062 C 319.042969 632.121094 318.988281 631.335938 318.859375 630.554688 C 318.730469 629.777344 318.527344 629.015625 318.25 628.273438 C 317.972656 627.53125 317.625 626.824219 317.210938 626.152344 C 316.796875 625.476562 316.324219 624.847656 315.789062 624.265625 C 315.25 623.683594 314.664062 623.160156 314.027344 622.6875 C 313.390625 622.21875 312.714844 621.816406 312 621.480469 C 311.285156 621.140625 310.542969 620.875 309.777344 620.679688 C 309.007812 620.484375 308.230469 620.363281 307.441406 620.320312 Z M 171.816406 226.796875 C 174.226562 226.796875 176.636719 226.859375 179.042969 226.980469 C 181.449219 227.101562 183.851562 227.28125 186.25 227.519531 C 188.644531 227.757812 191.035156 228.054688 193.417969 228.410156 C 195.800781 228.765625 198.175781 229.179688 200.539062 229.652344 C 202.902344 230.125 205.25 230.65625 207.585938 231.242188 C 209.925781 231.828125 212.246094 232.472656 214.550781 233.175781 C 216.855469 233.875 219.140625 234.632812 221.410156 235.445312 C 223.679688 236.257812 225.925781 237.128906 228.152344 238.050781 C 230.375 238.972656 232.578125 239.953125 234.753906 240.984375 C 236.933594 242.015625 239.085938 243.097656 241.207031 244.234375 C 243.332031 245.371094 245.429688 246.558594 247.496094 247.800781 C 249.5625 249.039062 251.59375 250.328125 253.597656 251.667969 C 255.601562 253.007812 257.570312 254.394531 259.503906 255.828125 C 261.441406 257.265625 263.339844 258.746094 265.203125 260.277344 C 267.0625 261.804688 268.886719 263.378906 270.671875 264.996094 C 272.457031 266.617188 274.203125 268.277344 275.90625 269.980469 C 277.609375 271.683594 279.269531 273.429688 280.890625 275.214844 C 282.507812 277 284.082031 278.824219 285.609375 280.683594 C 287.140625 282.546875 288.621094 284.445312 290.058594 286.378906 C 291.492188 288.316406 292.878906 290.285156 294.21875 292.289062 C 295.558594 294.289062 296.847656 296.324219 298.085938 298.390625 C 299.328125 300.457031 300.515625 302.554688 301.652344 304.679688 C 302.789062 306.800781 303.871094 308.953125 304.902344 311.132812 C 305.933594 313.308594 306.910156 315.511719 307.835938 317.734375 C 308.757812 319.960938 309.628906 322.207031 310.441406 324.476562 C 311.253906 326.746094 312.011719 329.03125 312.710938 331.335938 C 313.414062 333.640625 314.058594 335.960938 314.644531 338.300781 C 315.230469 340.636719 315.761719 342.984375 316.234375 345.347656 C 316.707031 347.710938 317.121094 350.085938 317.476562 352.46875 C 317.832031 354.851562 318.128906 357.242188 318.367188 359.636719 C 318.605469 362.035156 318.785156 364.4375 318.90625 366.84375 C 319.027344 369.25 319.089844 371.660156 319.089844 374.070312 C 319.089844 488.574219 202.523438 591.128906 171.816406 616.15625 C 141.113281 591.128906 24.546875 488.574219 24.546875 374.070312 C 24.546875 371.660156 24.609375 369.25 24.730469 366.84375 C 24.851562 364.4375 25.03125 362.035156 25.269531 359.636719 C 25.507812 357.242188 25.804688 354.851562 26.160156 352.46875 C 26.515625 350.085938 26.929688 347.710938 27.402344 345.347656 C 27.875 342.984375 28.40625 340.636719 28.992188 338.300781 C 29.578125 335.960938 30.222656 333.640625 30.925781 331.335938 C 31.625 329.03125 32.382812 326.746094 33.195312 324.476562 C 34.007812 322.207031 34.878906 319.960938 35.800781 317.734375 C 36.722656 315.511719 37.703125 313.308594 38.734375 311.132812 C 39.765625 308.953125 40.847656 306.800781 41.984375 304.679688 C 43.121094 302.554688 44.308594 300.457031 45.550781 298.390625 C 46.789062 296.324219 48.078125 294.289062 49.417969 292.289062 C 50.757812 290.285156 52.144531 288.316406 53.578125 286.382812 C 55.015625 284.445312 56.496094 282.546875 58.027344 280.683594 C 59.554688 278.824219 61.128906 277 62.746094 275.214844 C 64.363281 273.429688 66.027344 271.683594 67.730469 269.980469 C 69.433594 268.277344 71.179688 266.617188 72.964844 264.996094 C 74.75 263.378906 76.574219 261.804688 78.433594 260.277344 C 80.296875 258.746094 82.195312 257.265625 84.128906 255.828125 C 86.066406 254.394531 88.035156 253.007812 90.039062 251.667969 C 92.039062 250.328125 94.074219 249.039062 96.140625 247.800781 C 98.207031 246.558594 100.304688 245.371094 102.425781 244.234375 C 104.550781 243.097656 106.703125 242.015625 108.878906 240.984375 C 111.058594 239.953125 113.261719 238.972656 115.484375 238.050781 C 117.710938 237.128906 119.957031 236.257812 122.226562 235.445312 C 124.492188 234.632812 126.78125 233.875 129.085938 233.175781 C 131.390625 232.472656 133.710938 231.828125 136.050781 231.242188 C 138.386719 230.65625 140.734375 230.125 143.097656 229.652344 C 145.460938 229.179688 147.835938 228.765625 150.21875 228.410156 C 152.601562 228.054688 154.992188 227.757812 157.386719 227.519531 C 159.785156 227.28125 162.1875 227.101562 164.59375 226.980469 C 167 226.859375 169.410156 226.796875 171.816406 226.796875 Z M 171.816406 668.613281 C 104.390625 668.613281 61.363281 646.808594 61.363281 631.796875 C 61.363281 621.964844 81.097656 608.15625 117.425781 600.554688 C 132.257812 615.230469 147.949219 628.925781 164.496094 641.640625 C 165.019531 642.03125 165.574219 642.378906 166.15625 642.683594 C 166.738281 642.984375 167.339844 643.238281 167.960938 643.445312 C 168.582031 643.652344 169.21875 643.808594 169.863281 643.910156 C 170.511719 644.015625 171.164062 644.066406 171.816406 644.070312 C 172.472656 644.066406 173.125 644.015625 173.773438 643.910156 C 174.417969 643.808594 175.054688 643.652344 175.675781 643.445312 C 176.296875 643.238281 176.898438 642.984375 177.480469 642.683594 C 178.0625 642.378906 178.617188 642.03125 179.140625 641.640625 C 195.6875 628.925781 211.375 615.230469 226.210938 600.554688 C 262.539062 608.15625 282.273438 621.964844 282.273438 631.796875 C 282.273438 646.808594 239.246094 668.613281 171.816406 668.613281 Z M 171.816406 668.613281 " fill-opacity="1" fill-rule="nonzero"/></g><path fill="#bc4749" d="M 419.722656 425.609375 C 421.15625 423.226562 422.871094 421.070312 424.871094 419.136719 C 426.867188 417.203125 429.078125 415.558594 431.503906 414.199219 C 431.644531 414.066406 431.808594 413.984375 431.996094 413.953125 L 432.121094 413.828125 C 433.011719 413.28125 433.816406 412.628906 434.535156 411.875 C 435.257812 411.117188 435.867188 410.28125 436.375 409.367188 C 436.878906 408.453125 437.257812 407.492188 437.515625 406.480469 C 437.773438 405.46875 437.894531 404.441406 437.886719 403.394531 C 437.867188 401.121094 437.296875 398.992188 436.171875 397.015625 C 435.742188 396.339844 435.253906 395.714844 434.707031 395.132812 C 434.15625 394.554688 433.558594 394.03125 432.910156 393.5625 C 432.261719 393.097656 431.574219 392.695312 430.847656 392.363281 C 430.125 392.027344 429.375 391.761719 428.597656 391.570312 C 427.824219 391.378906 427.035156 391.261719 426.238281 391.21875 C 425.441406 391.175781 424.648438 391.210938 423.855469 391.316406 C 423.066406 391.425781 422.289062 391.609375 421.535156 391.867188 C 420.777344 392.121094 420.050781 392.449219 419.359375 392.84375 C 409.664062 398.734375 402.542969 405.726562 398.125 413.953125 C 397.875 414.417969 397.652344 414.898438 397.460938 415.390625 C 397.273438 415.882812 397.113281 416.386719 396.988281 416.898438 C 396.863281 417.414062 396.773438 417.933594 396.714844 418.457031 C 396.660156 418.984375 396.636719 419.511719 396.644531 420.039062 C 396.65625 420.566406 396.703125 421.09375 396.78125 421.613281 C 396.859375 422.136719 396.972656 422.652344 397.117188 423.160156 C 397.265625 423.667969 397.445312 424.164062 397.652344 424.648438 C 397.863281 425.132812 398.105469 425.601562 398.375 426.054688 C 398.648438 426.507812 398.949219 426.941406 399.277344 427.359375 C 399.605469 427.773438 399.957031 428.164062 400.335938 428.53125 C 400.714844 428.902344 401.113281 429.242188 401.539062 429.558594 C 401.960938 429.875 402.402344 430.164062 402.863281 430.421875 C 403.324219 430.683594 403.800781 430.910156 404.289062 431.109375 C 404.78125 431.304688 405.28125 431.472656 405.792969 431.601562 C 406.304688 431.734375 406.820312 431.835938 407.347656 431.898438 C 407.871094 431.964844 408.398438 431.996094 408.925781 431.992188 C 410.027344 431.984375 411.109375 431.832031 412.167969 431.539062 C 413.230469 431.246094 414.238281 430.816406 415.183594 430.257812 C 416.132812 429.695312 416.992188 429.023438 417.761719 428.234375 C 418.53125 427.445312 419.1875 426.570312 419.722656 425.609375 Z M 419.722656 425.609375 " fill-opacity="1" fill-rule="nonzero"/><path fill="#bc4749" d="M 377.996094 622.21875 L 377.261719 622.21875 C 369.648438 622.21875 361.917969 622.21875 354.433594 622.101562 L 354.1875 622.101562 C 353.394531 622.105469 352.609375 622.183594 351.828125 622.339844 C 351.050781 622.496094 350.292969 622.722656 349.558594 623.027344 C 348.824219 623.328125 348.125 623.699219 347.460938 624.136719 C 346.796875 624.574219 346.183594 625.070312 345.613281 625.625 C 345.046875 626.179688 344.539062 626.785156 344.089844 627.441406 C 343.636719 628.09375 343.253906 628.785156 342.9375 629.515625 C 342.621094 630.242188 342.375 630.996094 342.203125 631.773438 C 342.03125 632.546875 341.9375 633.332031 341.917969 634.125 C 341.898438 634.929688 341.960938 635.726562 342.105469 636.515625 C 342.246094 637.308594 342.464844 638.074219 342.757812 638.824219 C 343.050781 639.570312 343.417969 640.28125 343.851562 640.957031 C 344.289062 641.632812 344.785156 642.257812 345.34375 642.832031 C 345.902344 643.410156 346.511719 643.925781 347.175781 644.378906 C 347.835938 644.835938 348.535156 645.222656 349.273438 645.539062 C 350.011719 645.855469 350.773438 646.09375 351.558594 646.261719 C 352.347656 646.425781 353.140625 646.511719 353.945312 646.519531 C 361.671875 646.765625 369.402344 646.765625 377.261719 646.765625 L 377.878906 646.765625 C 378.679688 646.765625 379.476562 646.6875 380.265625 646.53125 C 381.050781 646.375 381.816406 646.140625 382.558594 645.835938 C 383.300781 645.527344 384.007812 645.152344 384.675781 644.707031 C 385.34375 644.261719 385.964844 643.757812 386.535156 643.191406 C 387.101562 642.625 387.613281 642.007812 388.058594 641.339844 C 388.507812 640.675781 388.886719 639.96875 389.195312 639.230469 C 389.507812 638.488281 389.742188 637.726562 389.902344 636.9375 C 390.0625 636.152344 390.144531 635.355469 390.148438 634.550781 C 390.152344 633.75 390.078125 632.953125 389.925781 632.164062 C 389.773438 631.375 389.546875 630.609375 389.242188 629.867188 C 388.941406 629.121094 388.566406 628.414062 388.125 627.742188 C 387.683594 627.070312 387.179688 626.449219 386.617188 625.878906 C 386.054688 625.304688 385.441406 624.792969 384.777344 624.34375 C 384.113281 623.890625 383.410156 623.507812 382.671875 623.195312 C 381.929688 622.878906 381.167969 622.640625 380.382812 622.476562 C 379.59375 622.3125 378.800781 622.226562 377.996094 622.21875 Z M 377.996094 622.21875 " fill-opacity="1" fill-rule="nonzero"/><path fill="#bc4749" d="M 621.730469 534.960938 L 621.730469 534.835938 C 621.417969 534.105469 621.039062 533.414062 620.59375 532.753906 C 620.148438 532.097656 619.644531 531.488281 619.082031 530.925781 C 618.523438 530.359375 617.914062 529.855469 617.257812 529.410156 C 616.601562 528.960938 615.90625 528.578125 615.179688 528.261719 C 614.449219 527.945312 613.695312 527.703125 612.921875 527.527344 C 612.144531 527.355469 611.359375 527.253906 610.566406 527.230469 C 609.773438 527.203125 608.984375 527.253906 608.199219 527.378906 C 607.414062 527.503906 606.648438 527.699219 605.898438 527.96875 C 605.144531 528.261719 604.425781 528.625 603.742188 529.058594 C 603.058594 529.492188 602.425781 529.988281 601.839844 530.546875 C 601.253906 531.105469 600.730469 531.71875 600.265625 532.382812 C 599.800781 533.046875 599.40625 533.746094 599.082031 534.488281 C 598.757812 535.230469 598.507812 535.996094 598.335938 536.789062 C 598.160156 537.578125 598.066406 538.378906 598.050781 539.1875 C 598.035156 539.996094 598.101562 540.800781 598.246094 541.597656 C 598.390625 542.394531 598.609375 543.167969 598.90625 543.921875 C 600.613281 548.515625 601.429688 553.261719 601.363281 558.160156 C 601.390625 559.226562 601.347656 560.289062 601.238281 561.347656 C 601.152344 562.148438 601.144531 562.953125 601.21875 563.753906 C 601.292969 564.558594 601.441406 565.347656 601.671875 566.121094 C 601.898438 566.894531 602.199219 567.636719 602.574219 568.351562 C 602.949219 569.066406 603.390625 569.738281 603.898438 570.363281 C 604.40625 570.992188 604.96875 571.5625 605.589844 572.078125 C 606.210938 572.59375 606.875 573.042969 607.585938 573.429688 C 608.292969 573.8125 609.03125 574.125 609.804688 574.363281 C 610.574219 574.605469 611.359375 574.765625 612.164062 574.847656 L 613.390625 574.847656 C 614.148438 574.851562 614.898438 574.789062 615.644531 574.652344 C 616.386719 574.519531 617.113281 574.316406 617.820312 574.046875 C 618.527344 573.777344 619.207031 573.445312 619.851562 573.050781 C 620.496094 572.65625 621.101562 572.207031 621.664062 571.703125 C 622.226562 571.195312 622.738281 570.640625 623.199219 570.039062 C 623.660156 569.441406 624.058594 568.800781 624.402344 568.125 C 624.742188 567.449219 625.019531 566.75 625.230469 566.023438 C 625.445312 565.296875 625.589844 564.558594 625.664062 563.804688 C 625.785156 561.964844 625.910156 560 625.910156 558.160156 C 625.953125 550.355469 624.644531 542.789062 621.976562 535.453125 C 621.859375 535.328125 621.859375 535.082031 621.730469 534.960938 Z M 621.730469 534.960938 " fill-opacity="1" fill-rule="nonzero"/><path fill="#bc4749" d="M 580.378906 589.332031 C 574.246094 593.109375 567.820312 596.300781 561.105469 598.902344 C 560.363281 599.207031 559.652344 599.582031 558.984375 600.023438 C 558.3125 600.464844 557.6875 600.96875 557.113281 601.53125 C 556.542969 602.097656 556.027344 602.710938 555.574219 603.371094 C 555.117188 604.035156 554.730469 604.738281 554.414062 605.476562 C 554.09375 606.214844 553.851562 606.976562 553.679688 607.761719 C 553.511719 608.546875 553.417969 609.34375 553.402344 610.148438 C 553.386719 610.953125 553.449219 611.75 553.589844 612.542969 C 553.726562 613.332031 553.941406 614.105469 554.230469 614.855469 C 554.6875 615.996094 555.300781 617.046875 556.070312 618.003906 C 556.839844 618.964844 557.734375 619.789062 558.75 620.476562 C 559.769531 621.167969 560.867188 621.691406 562.039062 622.050781 C 563.214844 622.414062 564.417969 622.59375 565.648438 622.589844 C 567.222656 622.617188 568.734375 622.328125 570.191406 621.726562 C 578.332031 618.582031 586.105469 614.695312 593.507812 610.074219 C 594.375 609.519531 595.15625 608.867188 595.859375 608.117188 C 596.558594 607.367188 597.15625 606.539062 597.648438 605.636719 C 598.144531 604.738281 598.515625 603.789062 598.773438 602.792969 C 599.027344 601.796875 599.152344 600.785156 599.152344 599.757812 C 599.152344 597.378906 598.539062 595.171875 597.3125 593.132812 C 596.871094 592.464844 596.367188 591.847656 595.804688 591.273438 C 595.242188 590.703125 594.632812 590.191406 593.972656 589.738281 C 593.3125 589.285156 592.613281 588.898438 591.882812 588.578125 C 591.148438 588.257812 590.390625 588.007812 589.609375 587.832031 C 588.824219 587.660156 588.035156 587.558594 587.234375 587.535156 C 586.433594 587.511719 585.636719 587.5625 584.847656 587.691406 C 584.058594 587.820312 583.285156 588.023438 582.535156 588.296875 C 581.78125 588.574219 581.0625 588.917969 580.378906 589.332031 Z M 580.378906 589.332031 " fill-opacity="1" fill-rule="nonzero"/><path fill="#bc4749" d="M 448.320312 619.886719 C 440.464844 620.5 432.613281 620.871094 425.003906 621.238281 C 424.195312 621.261719 423.398438 621.363281 422.609375 621.546875 C 421.820312 621.730469 421.058594 621.992188 420.324219 622.328125 C 419.585938 622.664062 418.890625 623.066406 418.238281 623.542969 C 417.582031 624.015625 416.980469 624.550781 416.429688 625.144531 C 415.882812 625.738281 415.398438 626.382812 414.976562 627.074219 C 414.558594 627.761719 414.210938 628.488281 413.933594 629.25 C 413.660156 630.007812 413.460938 630.789062 413.339844 631.589844 C 413.222656 632.390625 413.179688 633.191406 413.222656 634 C 413.25 634.789062 413.351562 635.5625 413.53125 636.328125 C 413.707031 637.097656 413.957031 637.839844 414.277344 638.554688 C 414.597656 639.273438 414.984375 639.957031 415.4375 640.597656 C 415.890625 641.242188 416.402344 641.835938 416.96875 642.378906 C 417.535156 642.925781 418.152344 643.410156 418.8125 643.835938 C 419.472656 644.261719 420.167969 644.621094 420.898438 644.914062 C 421.628906 645.203125 422.382812 645.421875 423.15625 645.570312 C 423.929688 645.714844 424.707031 645.785156 425.496094 645.78125 L 425.984375 645.78125 C 434.453125 645.417969 442.554688 644.925781 450.039062 644.433594 C 450.804688 644.371094 451.558594 644.242188 452.300781 644.039062 C 453.042969 643.835938 453.761719 643.566406 454.453125 643.234375 C 455.144531 642.898438 455.800781 642.503906 456.417969 642.046875 C 457.035156 641.589844 457.605469 641.078125 458.128906 640.515625 C 458.652344 639.953125 459.121094 639.347656 459.53125 638.695312 C 459.941406 638.046875 460.289062 637.363281 460.574219 636.648438 C 460.855469 635.933594 461.074219 635.199219 461.21875 634.445312 C 461.367188 633.691406 461.445312 632.929688 461.449219 632.160156 L 461.449219 631.304688 C 461.390625 630.5 461.253906 629.707031 461.042969 628.929688 C 460.828125 628.152344 460.539062 627.398438 460.179688 626.679688 C 459.820312 625.957031 459.390625 625.277344 458.898438 624.636719 C 458.402344 624 457.851562 623.417969 457.242188 622.886719 C 456.632812 622.355469 455.976562 621.890625 455.277344 621.492188 C 454.574219 621.089844 453.84375 620.761719 453.078125 620.503906 C 452.3125 620.246094 451.53125 620.066406 450.730469 619.960938 C 449.929688 619.859375 449.125 619.835938 448.320312 619.886719 Z M 448.320312 619.886719 " fill-opacity="1" fill-rule="nonzero"/><path fill="#bc4749" d="M 517.539062 611.175781 C 510.785156 612.523438 503.425781 613.753906 494.714844 615.101562 C 493.101562 615.285156 491.597656 615.792969 490.203125 616.628906 C 488.8125 617.464844 487.65625 618.550781 486.730469 619.886719 C 485.742188 621.179688 485.042969 622.613281 484.636719 624.191406 C 484.234375 625.769531 484.152344 627.363281 484.402344 628.972656 C 484.507812 629.695312 484.675781 630.402344 484.910156 631.09375 C 485.140625 631.785156 485.433594 632.453125 485.785156 633.089844 C 486.136719 633.730469 486.542969 634.332031 487.003906 634.898438 C 487.464844 635.464844 487.972656 635.988281 488.523438 636.460938 C 489.078125 636.9375 489.671875 637.359375 490.300781 637.730469 C 490.929688 638.097656 491.589844 638.40625 492.273438 638.660156 C 492.960938 638.910156 493.660156 639.097656 494.378906 639.222656 C 495.101562 639.347656 495.824219 639.40625 496.554688 639.398438 C 497.128906 639.414062 497.699219 639.375 498.269531 639.28125 C 506.371094 638.175781 514.472656 636.824219 522.328125 635.230469 C 523.011719 635.089844 523.679688 634.890625 524.332031 634.640625 C 524.984375 634.386719 525.609375 634.078125 526.210938 633.722656 C 526.808594 633.363281 527.375 632.957031 527.90625 632.503906 C 528.4375 632.046875 528.929688 631.554688 529.378906 631.015625 C 529.824219 630.480469 530.226562 629.910156 530.578125 629.304688 C 530.929688 628.699219 531.226562 628.070312 531.472656 627.417969 C 531.71875 626.761719 531.90625 626.09375 532.039062 625.40625 C 532.171875 624.71875 532.246094 624.027344 532.261719 623.328125 C 532.25 622.503906 532.167969 621.683594 532.019531 620.871094 C 531.851562 620.082031 531.613281 619.316406 531.296875 618.574219 C 530.984375 617.832031 530.601562 617.125 530.148438 616.457031 C 529.699219 615.789062 529.1875 615.167969 528.617188 614.601562 C 528.042969 614.03125 527.425781 613.523438 526.753906 613.074219 C 526.085938 612.625 525.378906 612.246094 524.632812 611.933594 C 523.890625 611.621094 523.121094 611.386719 522.332031 611.222656 C 521.542969 611.058594 520.746094 610.972656 519.9375 610.964844 C 519.132812 610.957031 518.332031 611.027344 517.539062 611.175781 Z M 517.539062 611.175781 " fill-opacity="1" fill-rule="nonzero"/><path fill="#bc4749" d="M 438.132812 486.238281 C 438.847656 486.246094 439.554688 486.191406 440.257812 486.078125 C 440.960938 485.960938 441.648438 485.789062 442.324219 485.550781 C 442.996094 485.316406 443.644531 485.027344 444.265625 484.675781 C 444.886719 484.328125 445.476562 483.929688 446.027344 483.476562 C 446.582031 483.027344 447.089844 482.53125 447.554688 481.992188 C 448.019531 481.453125 448.4375 480.875 448.800781 480.265625 C 449.167969 479.652344 449.476562 479.011719 449.730469 478.347656 C 449.984375 477.679688 450.179688 476.996094 450.3125 476.296875 C 450.445312 475.597656 450.519531 474.890625 450.53125 474.175781 C 450.542969 473.464844 450.492188 472.753906 450.378906 472.050781 C 450.265625 471.347656 450.09375 470.65625 449.859375 469.984375 C 449.625 469.308594 449.335938 468.660156 448.988281 468.039062 C 448.644531 467.414062 448.246094 466.828125 447.796875 466.273438 C 447.347656 465.71875 446.851562 465.207031 446.316406 464.742188 C 445.777344 464.273438 445.203125 463.855469 444.589844 463.488281 C 443.980469 463.121094 443.339844 462.808594 442.675781 462.554688 C 436.460938 460.355469 430.773438 457.203125 425.613281 453.105469 C 424.992188 452.601562 424.328125 452.160156 423.625 451.78125 C 422.917969 451.402344 422.183594 451.097656 421.421875 450.859375 C 420.65625 450.621094 419.878906 450.457031 419.082031 450.367188 C 418.289062 450.277344 417.492188 450.265625 416.695312 450.324219 C 415.898438 450.386719 415.113281 450.523438 414.339844 450.738281 C 413.570312 450.949219 412.824219 451.230469 412.109375 451.582031 C 411.390625 451.9375 410.710938 452.355469 410.074219 452.835938 C 409.4375 453.320312 408.847656 453.859375 408.3125 454.453125 C 407.789062 455.066406 407.332031 455.722656 406.9375 456.425781 C 406.542969 457.128906 406.21875 457.863281 405.96875 458.628906 C 405.71875 459.394531 405.546875 460.179688 405.453125 460.980469 C 405.355469 461.78125 405.339844 462.582031 405.402344 463.386719 C 405.464844 464.1875 405.605469 464.976562 405.824219 465.753906 C 406.042969 466.53125 406.332031 467.277344 406.699219 467.996094 C 407.0625 468.714844 407.496094 469.390625 407.996094 470.023438 C 408.492188 470.65625 409.050781 471.234375 409.664062 471.757812 C 416.890625 477.691406 424.910156 482.230469 433.714844 485.378906 C 435.128906 485.964844 436.601562 486.25 438.132812 486.238281 Z M 438.132812 486.238281 " fill-opacity="1" fill-rule="nonzero"/><path fill="#bc4749" d="M 505.511719 502.195312 C 506.246094 502.292969 506.980469 502.335938 507.71875 502.316406 C 508.472656 502.308594 509.222656 502.234375 509.964844 502.089844 C 510.707031 501.945312 511.429688 501.734375 512.132812 501.453125 C 512.835938 501.175781 513.507812 500.835938 514.144531 500.433594 C 514.785156 500.03125 515.382812 499.570312 515.9375 499.058594 C 516.492188 498.546875 516.996094 497.984375 517.449219 497.378906 C 517.898438 496.773438 518.289062 496.128906 518.621094 495.449219 C 518.957031 494.773438 519.222656 494.066406 519.425781 493.339844 C 519.625 492.609375 519.757812 491.871094 519.824219 491.117188 C 519.890625 490.363281 519.882812 489.609375 519.808594 488.859375 C 519.734375 488.105469 519.59375 487.367188 519.382812 486.640625 C 519.167969 485.917969 518.894531 485.214844 518.550781 484.542969 C 518.210938 483.867188 517.8125 483.230469 517.351562 482.628906 C 516.894531 482.027344 516.382812 481.472656 515.820312 480.96875 C 515.261719 480.460938 514.65625 480.011719 514.011719 479.617188 C 513.367188 479.222656 512.691406 478.890625 511.984375 478.621094 C 511.277344 478.351562 510.554688 478.148438 509.808594 478.015625 L 504.039062 477.03125 C 497.902344 475.929688 492.257812 474.828125 486.488281 473.84375 C 485.695312 473.695312 484.902344 473.621094 484.097656 473.625 C 483.292969 473.632812 482.496094 473.714844 481.710938 473.878906 C 480.921875 474.039062 480.160156 474.277344 479.417969 474.585938 C 478.675781 474.898438 477.972656 475.28125 477.308594 475.730469 C 476.640625 476.179688 476.023438 476.691406 475.457031 477.261719 C 474.894531 477.832031 474.386719 478.453125 473.945312 479.121094 C 473.5 479.792969 473.125 480.5 472.820312 481.242188 C 472.511719 481.984375 472.285156 482.75 472.128906 483.539062 C 472.027344 484.273438 471.988281 485.007812 472.007812 485.746094 C 471.992188 486.460938 472.035156 487.171875 472.144531 487.875 C 472.253906 488.582031 472.421875 489.273438 472.65625 489.949219 C 472.886719 490.625 473.175781 491.277344 473.523438 491.898438 C 473.871094 492.523438 474.273438 493.113281 474.722656 493.667969 C 475.175781 494.21875 475.675781 494.726562 476.21875 495.191406 C 476.761719 495.65625 477.339844 496.070312 477.957031 496.429688 C 478.574219 496.792969 479.21875 497.097656 479.886719 497.34375 C 480.558594 497.589844 481.246094 497.773438 481.949219 497.898438 C 489.0625 499.246094 496.308594 500.601562 503.300781 501.824219 Z M 505.511719 502.195312 " fill-opacity="1" fill-rule="nonzero"/><path fill="#bc4749" d="M 565.15625 394.929688 C 565.957031 394.917969 566.75 394.832031 567.535156 394.671875 C 568.320312 394.511719 569.082031 394.277344 569.820312 393.96875 C 570.5625 393.664062 571.265625 393.289062 571.933594 392.847656 C 572.601562 392.40625 573.222656 391.902344 573.792969 391.34375 C 574.367188 390.78125 574.878906 390.171875 575.335938 389.511719 C 575.789062 388.855469 576.179688 388.160156 576.5 387.425781 C 576.824219 386.691406 577.074219 385.933594 577.25 385.152344 C 577.425781 384.371094 577.527344 383.582031 577.554688 382.78125 L 577.554688 382.535156 C 577.542969 381.746094 577.457031 380.964844 577.296875 380.191406 C 577.136719 379.417969 576.902344 378.667969 576.597656 377.9375 C 576.292969 377.210938 575.917969 376.515625 575.480469 375.859375 C 575.042969 375.203125 574.542969 374.59375 573.988281 374.035156 C 573.433594 373.472656 572.828125 372.96875 572.175781 372.523438 C 571.523438 372.078125 570.835938 371.699219 570.109375 371.386719 C 569.382812 371.074219 568.636719 370.832031 567.863281 370.664062 C 567.09375 370.496094 566.3125 370.402344 565.523438 370.382812 C 559.632812 370.136719 553.867188 370.136719 548.097656 370.136719 L 541.347656 370.136719 C 540.542969 370.144531 539.746094 370.230469 538.957031 370.398438 C 538.167969 370.5625 537.402344 370.800781 536.660156 371.117188 C 535.917969 371.433594 535.214844 371.820312 534.550781 372.273438 C 533.886719 372.726562 533.269531 373.242188 532.707031 373.820312 C 532.140625 374.394531 531.640625 375.019531 531.199219 375.695312 C 530.757812 376.367188 530.386719 377.078125 530.085938 377.828125 C 529.785156 378.574219 529.558594 379.34375 529.410156 380.136719 C 529.261719 380.929688 529.191406 381.726562 529.199219 382.53125 C 529.207031 383.339844 529.292969 384.136719 529.457031 384.925781 C 529.625 385.714844 529.863281 386.480469 530.179688 387.21875 C 530.496094 387.960938 530.878906 388.664062 531.335938 389.332031 C 531.789062 389.996094 532.304688 390.609375 532.878906 391.175781 C 533.457031 391.738281 534.082031 392.242188 534.753906 392.683594 C 535.429688 393.125 536.140625 393.496094 536.886719 393.796875 C 537.636719 394.097656 538.40625 394.320312 539.199219 394.472656 C 539.988281 394.621094 540.789062 394.691406 541.59375 394.683594 C 549.449219 394.5625 557.300781 394.683594 564.910156 394.929688 Z M 565.15625 394.929688 " fill-opacity="1" fill-rule="nonzero"/><path fill="#bc4749" d="M 495.324219 397.140625 C 496.074219 397.0625 496.8125 396.917969 497.535156 396.703125 C 498.257812 396.488281 498.953125 396.210938 499.625 395.867188 C 500.296875 395.523438 500.929688 395.121094 501.523438 394.660156 C 502.121094 394.199219 502.667969 393.6875 503.171875 393.125 C 503.671875 392.5625 504.117188 391.957031 504.503906 391.3125 C 504.894531 390.667969 505.21875 389.988281 505.484375 389.285156 C 505.746094 388.578125 505.941406 387.855469 506.070312 387.109375 C 506.199219 386.367188 506.261719 385.621094 506.25 384.867188 L 506.25 383.636719 C 506.160156 382.839844 505.992188 382.054688 505.75 381.289062 C 505.503906 380.523438 505.191406 379.785156 504.804688 379.082031 C 504.417969 378.375 503.964844 377.714844 503.449219 377.097656 C 502.933594 376.476562 502.363281 375.917969 501.738281 375.410156 C 501.113281 374.902344 500.445312 374.464844 499.730469 374.085938 C 499.019531 373.710938 498.277344 373.410156 497.507812 373.175781 C 496.738281 372.945312 495.953125 372.792969 495.152344 372.714844 C 494.351562 372.636719 493.550781 372.636719 492.75 372.714844 C 484.035156 373.695312 475.8125 374.804688 468.203125 376.273438 C 467.460938 376.410156 466.734375 376.617188 466.027344 376.890625 C 465.320312 377.160156 464.648438 377.496094 464.003906 377.894531 C 463.359375 378.289062 462.757812 378.742188 462.195312 379.253906 C 461.636719 379.761719 461.128906 380.316406 460.671875 380.921875 C 460.214844 381.523438 459.816406 382.164062 459.476562 382.839844 C 459.140625 383.515625 458.867188 384.21875 458.65625 384.945312 C 458.449219 385.675781 458.308594 386.414062 458.238281 387.167969 C 458.167969 387.921875 458.164062 388.675781 458.234375 389.429688 C 458.300781 390.183594 458.441406 390.921875 458.644531 391.652344 C 458.851562 392.378906 459.121094 393.082031 459.457031 393.761719 C 459.792969 394.4375 460.1875 395.082031 460.644531 395.683594 C 461.097656 396.289062 461.605469 396.847656 462.164062 397.359375 C 462.722656 397.871094 463.320312 398.324219 463.964844 398.722656 C 464.605469 399.125 465.28125 399.460938 465.984375 399.738281 C 466.691406 400.011719 467.414062 400.21875 468.160156 400.359375 C 468.902344 400.5 469.652344 400.570312 470.410156 400.574219 C 471.195312 400.554688 471.972656 400.472656 472.746094 400.328125 C 479.738281 399.105469 487.347656 397.996094 495.324219 397.140625 Z M 495.324219 397.140625 " fill-opacity="1" fill-rule="nonzero"/><path fill="#bc4749" d="M 576.574219 520.359375 C 577.269531 520.355469 577.957031 520.296875 578.644531 520.175781 C 579.328125 520.058594 580 519.882812 580.652344 519.648438 C 581.308594 519.417969 581.941406 519.128906 582.546875 518.789062 C 583.152344 518.449219 583.726562 518.0625 584.265625 517.625 C 584.808594 517.183594 585.304688 516.707031 585.765625 516.183594 C 586.222656 515.660156 586.636719 515.101562 587 514.507812 C 587.363281 513.917969 587.671875 513.296875 587.933594 512.652344 C 588.191406 512.007812 588.394531 511.34375 588.539062 510.664062 C 588.683594 509.984375 588.773438 509.296875 588.800781 508.601562 C 588.828125 507.90625 588.800781 507.214844 588.710938 506.527344 C 588.621094 505.835938 588.476562 505.160156 588.273438 504.492188 C 588.066406 503.828125 587.808594 503.1875 587.496094 502.566406 C 587.183594 501.945312 586.820312 501.355469 586.40625 500.796875 C 585.992188 500.238281 585.535156 499.714844 585.03125 499.234375 C 584.53125 498.753906 583.992188 498.320312 583.414062 497.929688 C 582.839844 497.539062 582.234375 497.203125 581.601562 496.914062 C 574.042969 493.535156 566.269531 490.75 558.285156 488.566406 C 558.054688 488.433594 557.808594 488.351562 557.546875 488.328125 L 557.425781 488.328125 C 556.652344 488.121094 555.867188 487.988281 555.066406 487.933594 C 554.269531 487.878906 553.472656 487.902344 552.675781 488 C 551.882812 488.101562 551.105469 488.273438 550.34375 488.523438 C 549.582031 488.773438 548.851562 489.097656 548.15625 489.488281 C 547.457031 489.878906 546.800781 490.335938 546.191406 490.855469 C 545.582031 491.371094 545.027344 491.945312 544.527344 492.570312 C 544.027344 493.199219 543.59375 493.867188 543.222656 494.578125 C 542.855469 495.289062 542.558594 496.027344 542.332031 496.796875 C 542.085938 497.886719 541.960938 498.992188 541.960938 500.109375 C 541.953125 500.769531 542 501.429688 542.101562 502.082031 C 542.203125 502.734375 542.355469 503.375 542.5625 504.003906 C 542.769531 504.632812 543.023438 505.238281 543.332031 505.824219 C 543.636719 506.410156 543.988281 506.96875 544.382812 507.496094 C 544.78125 508.027344 545.21875 508.519531 545.695312 508.976562 C 546.171875 509.433594 546.683594 509.847656 547.230469 510.222656 C 547.773438 510.597656 548.347656 510.921875 548.945312 511.203125 C 549.542969 511.484375 550.164062 511.710938 550.796875 511.890625 C 557.894531 513.832031 564.808594 516.28125 571.539062 519.25 C 573.136719 519.988281 574.8125 520.359375 576.574219 520.359375 Z M 576.574219 520.359375 " fill-opacity="1" fill-rule="nonzero"/></svg>